<?xml version="1.0" standalone="no"?>
<!DOCTYPE svg PUBLIC "-//W3C//DTD SVG 1.1//EN" "http://www.w3.org/Graphics/SVG/1.1/DTD/svg11.dtd" >
<svg xmlns="http://www.w3.org/2000/svg" xmlns:xlink="http://www.w3.org/1999/xlink" version="1.1">
<metadata>
Created by FontForge 20200314 at Fri Jul 20 09:07:14 2012
 By Unknown
(c) 2008-2010 Typodermic Fonts. This font is not freely distributable. Visit typodermic.com for more info.
</metadata>
<defs>
<font id="JesayaBk-Regular" horiz-adv-x="479" >
  <font-face 
    font-family="Jesaya Bk"
    font-weight="400"
    font-stretch="normal"
    units-per-em="1000"
    panose-1="2 0 5 6 4 0 0 2 0 4"
    ascent="800"
    descent="-200"
    x-height="554"
    cap-height="742"
    bbox="-105 -219 806 957"
    underline-thickness="50"
    underline-position="-100"
    unicode-range="U+0020-FB02"
  />
<missing-glyph horiz-adv-x="684" 
d="M644 -219h-604v1071h604v-1071zM285 556q22 23 36.5 29t31.5 1q29 -8 36.5 -23.5t2.5 -35.5q-6 -22 -22.5 -37.5t-39 -29.5t-48 -28.5t-49.5 -34.5t-44 -47.5t-30 -67.5q-13 -49 2 -110l142 -37l25 90q6 25 25 43t44.5 33.5t54.5 31.5t56.5 37.5t49.5 51t34 72.5
q9 37 7 76.5t-21.5 75t-59.5 65t-105 47.5q-68 18 -130.5 13.5t-121.5 -50.5l-32 -123zM281 50l-154 42l-47 -173l155 -42z" />
    <glyph glyph-name="copyright" unicode="&#x28;C&#x29;" horiz-adv-x="674" 
d="M423 461h-33q-11 19 -24.5 25.5t-28.5 6.5q-36 0 -48.5 -26t-12.5 -74v-22q0 -52 12 -83.5t48 -31.5q20 0 38.5 4.5t47.5 20.5v-25q-17 -12 -29 -19.5t-21.5 -12t-18 -6t-18.5 -1.5q-29 0 -47.5 11t-29.5 30.5t-15.5 45.5t-4.5 57v43q0 60 23.5 91.5t75.5 31.5
q26 0 47.5 -8.5t38.5 -33.5v-24zM341 752q146 0 220 -94.5t74 -287.5t-75.5 -286.5t-218.5 -93.5q-146 0 -224.5 94t-78.5 286q0 194 77 288t226 94zM341 718q-133 0 -202.5 -86.5t-69.5 -261.5t70 -260.5t202 -85.5q129 0 196 84.5t67 261.5q0 176 -66 262t-197 86z" />
    <glyph glyph-name="registered" unicode="&#x28;R&#x29;" horiz-adv-x="558" 
d="M283 742q213 0 213 -257q0 -135 -53.5 -197t-159.5 -62q-108 0 -163.5 64t-55.5 195q0 257 219 257zM283 722q-199 0 -199 -237q0 -121 51 -180t148 -59q94 0 143.5 57.5t49.5 181.5q0 237 -193 237zM353 523q0 -20 -9.5 -38t-25.5 -22l38 -81v-24h-26l-41 99h-46v-99
h-31v263h81q35 0 47.5 -19t12.5 -54v-25zM243 595v-113h50q15 0 23 11t8 27v21q0 30 -8.5 42t-31.5 12h-41z" />
    <glyph glyph-name="uni2117" unicode="&#x28;P&#x29;" horiz-adv-x="674" 
d="M341 752q146 0 220 -94.5t74 -287.5t-75.5 -286.5t-218.5 -93.5q-146 0 -224.5 94t-78.5 286q0 194 77 288t226 94zM341 718q-133 0 -202.5 -86.5t-69.5 -261.5t70 -260.5t202 -85.5q129 0 196 84.5t67 261.5q0 176 -66 262t-197 86zM448 426q0 -46 -21 -74.5t-76 -28.5
h-62v-143h-36v379h98q51 0 74 -21t23 -68v-44zM289 531v-181h43q47 0 65 17.5t18 65.5v11q0 48 -14 67.5t-56 19.5h-56z" />
    <glyph glyph-name=".notdef" horiz-adv-x="684" 
d="M644 -219h-604v1071h604v-1071zM285 556q22 23 36.5 29t31.5 1q29 -8 36.5 -23.5t2.5 -35.5q-6 -22 -22.5 -37.5t-39 -29.5t-48 -28.5t-49.5 -34.5t-44 -47.5t-30 -67.5q-13 -49 2 -110l142 -37l25 90q6 25 25 43t44.5 33.5t54.5 31.5t56.5 37.5t49.5 51t34 72.5
q9 37 7 76.5t-21.5 75t-59.5 65t-105 47.5q-68 18 -130.5 13.5t-121.5 -50.5l-32 -123zM281 50l-154 42l-47 -173l155 -42z" />
    <glyph glyph-name="space" unicode=" " horiz-adv-x="249" 
 />
    <glyph glyph-name="exclam" unicode="!" horiz-adv-x="181" 
d="M129 216h-77l-14 549h105zM129 0h-76v104h76v-104z" />
    <glyph glyph-name="quotedbl" unicode="&#x22;" horiz-adv-x="252" 
d="M218 526h-57l-8 270h72zM88 526h-54l-10 270h74z" />
    <glyph glyph-name="numbersign" unicode="#" horiz-adv-x="473" 
d="M412 706l-34 -186h62v-50h-72l-34 -191h78v-49h-88l-42 -230h-48v44l33 186h-122l-42 -230h-48v44l33 186h-55v49h65l35 191h-72v50h82l41 222h49v-36l-34 -186h123l41 222h49v-36zM189 470l-34 -191h122l35 191h-123z" />
    <glyph glyph-name="dollar" unicode="$" horiz-adv-x="434" 
d="M240 648q48 -3 85 -24t58 -58v-52h-72q-8 34 -35 51.5t-61 17.5q-17 0 -33.5 -3t-30 -11t-22 -22t-8.5 -36q0 -33 21 -52.5t52.5 -33t68.5 -26t68.5 -32t52.5 -50t21 -80.5q0 -32 -9 -59.5t-29 -48.5t-51 -34.5t-76 -17.5v-77h-55v76q-52 3 -94.5 31t-61.5 73v52h72
q9 -40 38 -61.5t67 -21.5q59 0 86.5 24.5t27.5 65.5q0 35 -21 54.5t-52.5 33t-68.5 25t-68.5 29.5t-52.5 47.5t-21 79.5q0 63 34.5 98t114.5 41v95h55v-94z" />
    <glyph glyph-name="percent" unicode="%" horiz-adv-x="707" 
d="M300 543q0 -48 -4.5 -85.5t-19 -64t-40.5 -40t-68 -13.5t-67.5 13.5t-40 40t-19 64t-4.5 85.5v14q0 45 6 80t21 59.5t40.5 37.5t63.5 13q39 0 64.5 -13t40.5 -37.5t21 -59.5t6 -80v-14zM669 193q0 -48 -4.5 -85.5t-19 -64t-40.5 -40t-68 -13.5t-67.5 13.5t-40 40t-19 64
t-4.5 85.5v14q0 45 6 80t21 59.5t40.5 37.5t63.5 13q39 0 64.5 -13t40.5 -37.5t21 -59.5t6 -80v-14zM242 557q0 66 -15 100t-59 34t-58.5 -33.5t-14.5 -100.5v-21q0 -35 2.5 -61.5t10.5 -44.5t22 -27t38 -9q44 0 59 33t15 95v35zM611 207q0 66 -15 100t-59 34t-58.5 -33.5
t-14.5 -100.5v-21q0 -35 2.5 -61.5t10.5 -44.5t22 -27t38 -9q44 0 59 33t15 95v35zM562 712l-363 -712h-51v29l363 713h51v-30z" />
    <glyph glyph-name="ampersand" unicode="&#x26;" horiz-adv-x="587" 
d="M533 416q0 -72 -13.5 -143t-42.5 -127l80 -99v-47h-51l-71 89q-34 -45 -81.5 -72t-113.5 -27q-53 0 -91.5 15.5t-63.5 42.5t-37 64.5t-12 82.5q0 42 10 74t28.5 58.5t44.5 48t58 41.5q-32 45 -52 87.5t-20 90.5q0 32 9 60.5t26.5 50t44.5 34t63 12.5q68 0 105.5 -36
t37.5 -108q0 -40 -10.5 -70.5t-27.5 -54.5t-40 -42.5t-47 -34.5l159 -199q23 50 31.5 106t10.5 103h66zM216 365q-44 -29 -73 -67.5t-29 -94.5q0 -66 31.5 -103.5t95.5 -37.5q51 0 87 23t61 59zM227 456q19 13 37 27.5t32 32.5t22.5 40t8.5 48q0 88 -79 88q-38 0 -58 -26.5
t-20 -66.5q0 -35 15 -70t42 -73z" />
    <glyph glyph-name="quotesingle" unicode="'" horiz-adv-x="125" 
d="M89 526h-55l-10 270h74z" />
    <glyph glyph-name="parenleft" unicode="(" horiz-adv-x="314" 
d="M270 781q-42 -26 -69.5 -66.5t-43 -95.5t-21.5 -123.5t-6 -149.5q0 -84 7.5 -154t25 -123.5t46.5 -91t73 -57.5l-30 -50q-52 22 -88 60.5t-58.5 96.5t-32.5 137t-10 182q0 97 8 174.5t28 137t53.5 102t84.5 71.5z" />
    <glyph glyph-name="parenright" unicode=")" horiz-adv-x="314" 
d="M76 831q51 -29 84.5 -71.5t53.5 -102t28 -137t8 -174.5q0 -103 -10 -182t-32.5 -137t-58.5 -96.5t-88 -60.5l-30 50q44 20 73 57.5t46.5 91t25 123.5t7.5 154q0 81 -6 149.5t-21.5 123.5t-43 95.5t-69.5 66.5z" />
    <glyph glyph-name="asterisk" unicode="*" horiz-adv-x="423" 
d="M371 665l-121 -31l79 -94l-52 -37l-62 102l-66 -100l-51 37l79 92l-118 32l19 55l114 -46l-10 121h65l-10 -122l116 46z" />
    <glyph glyph-name="plus" unicode="+" horiz-adv-x="493" 
d="M454 331h-178v-178h-64v178h-176v64h176v177h64v-177h178v-64z" />
    <glyph glyph-name="comma" unicode="," horiz-adv-x="171" 
d="M131 68q0 -29 -4.5 -55.5t-11 -47.5t-14.5 -36.5t-14 -22.5h-31v198h75v-36z" />
    <glyph glyph-name="hyphen" unicode="-" horiz-adv-x="278" 
d="M255 286h-231v53h231v-53z" />
    <glyph glyph-name="period" unicode="." horiz-adv-x="185" 
d="M132 0h-77v104h77v-104z" />
    <glyph glyph-name="slash" unicode="/" horiz-adv-x="319" 
d="M302 716l-232 -741h-52v25l231 742h53v-26z" />
    <glyph glyph-name="zero" unicode="0" horiz-adv-x="503" 
d="M460 355q0 -94 -5.5 -163t-27 -114t-63 -66.5t-113.5 -21.5t-113.5 21.5t-63 66.5t-27 114t-5.5 163v32q0 94 5.5 163t27 114t63 66.5t113.5 21.5t113.5 -21.5t63 -66.5t27 -114t5.5 -163v-32zM366 378q0 84 -4 139.5t-16 89.5t-34.5 48t-60.5 14q-41 0 -64 -15
t-34 -49.5t-14 -90.5t-3 -137v-16q0 -80 3 -135t14.5 -89t34.5 -49t63 -15t63 15t34.5 48.5t14.5 88.5t3 135v18z" />
    <glyph glyph-name="one" unicode="1" horiz-adv-x="267" 
d="M218 0h-93v657l-105 -20v79l138 28h60v-744z" />
    <glyph glyph-name="two" unicode="2" horiz-adv-x="461" 
d="M44 586v58q18 33 39.5 54t44.5 33t48.5 17t52.5 5q52 0 88 -15t57.5 -43t31 -67.5t9.5 -87.5q0 -60 -19.5 -114t-48.5 -99q-16 -26 -39.5 -57.5t-50.5 -64.5t-55.5 -65t-54.5 -57h276v-83h-384v78q23 22 48 49.5t50.5 57.5t50.5 62t48 64q47 66 68 122.5t21 102.5
q0 64 -22.5 99t-79.5 35q-35 0 -62.5 -22.5t-42.5 -61.5h-74z" />
    <glyph glyph-name="three" unicode="3" 
d="M56 583v58q33 62 81.5 87t102.5 25q51 0 85.5 -15t56.5 -41.5t31.5 -62t9.5 -76.5q0 -25 -4.5 -50t-15 -47t-27.5 -38.5t-42 -24.5q30 -9 50 -27.5t33 -43.5t18.5 -53.5t5.5 -57.5q0 -46 -13 -87t-39.5 -72t-67.5 -49t-98 -18q-29 0 -57.5 9.5t-53.5 26.5t-44.5 42
t-30.5 57v60h75q10 -53 44 -79.5t73 -26.5q61 0 92 38t31 100q0 27 -4.5 52t-17 44.5t-34 31t-54.5 11.5h-56v71h55q28 0 46.5 10t30 26.5t16 37.5t4.5 44q0 24 -5.5 47t-17.5 40t-32 27.5t-49 10.5q-30 0 -59.5 -21t-44.5 -66h-74z" />
    <glyph glyph-name="four" unicode="4" horiz-adv-x="454" 
d="M387 279h44v-76h-44v-203h-88v203h-279v64l278 475h89v-463zM107 279h192v323z" />
    <glyph glyph-name="five" unicode="5" horiz-adv-x="477" 
d="M406 656h-259l-14 -233q21 18 37 30.5t32 20t35 11t46 3.5q34 0 63.5 -11.5t51.5 -39.5t34 -74t12 -116q0 -54 -13 -101t-39.5 -81.5t-68 -54.5t-98.5 -20q-33 0 -64.5 11t-56.5 30t-42 44t-22 53v57h75q4 -25 15.5 -45t27.5 -33.5t35 -20.5t38 -7q62 0 93 46.5t31 121.5
q0 46 -6.5 77t-18.5 50t-29.5 27t-40.5 8q-32 0 -68 -19t-81 -67l-60 25l23 394h332v-86z" />
    <glyph glyph-name="six" unicode="6" horiz-adv-x="498" 
d="M428 587h-74q-14 45 -40 64t-58 19q-42 0 -66.5 -20t-37 -55t-16 -81.5t-3.5 -100.5q45 35 82.5 49t71.5 14q88 0 130 -52.5t42 -166.5v-22q0 -56 -9 -101.5t-32.5 -77.5t-63.5 -49.5t-103 -17.5q-77 0 -119 26.5t-62 75t-24 116t-4 150.5q0 81 4.5 153t25.5 126t64.5 85
t121.5 31q52 0 95.5 -23t74.5 -82v-60zM365 253q0 82 -28 115t-86 33q-32 0 -63.5 -15t-52.5 -41v-33q0 -56 3 -100.5t14.5 -75.5t34.5 -47t63 -16q67 0 91 42t24 128v10z" />
    <glyph glyph-name="seven" unicode="7" horiz-adv-x="432" 
d="M411 680q-33 -62 -64.5 -145t-59 -174.5t-50 -184.5t-38.5 -176h-90v54q15 70 36 148.5t47.5 157t58 155t67.5 143.5h-287v84h380v-62z" />
    <glyph glyph-name="eight" unicode="8" horiz-adv-x="496" 
d="M330 396q23 -9 45.5 -26.5t40.5 -41.5t29.5 -54t11.5 -63q0 -60 -12.5 -102.5t-38 -69t-65 -38.5t-93.5 -12q-109 0 -159 50t-50 168q0 35 10 66.5t27 56.5t39.5 42.5t47.5 25.5q-49 13 -77.5 55.5t-28.5 105.5q0 45 9 80.5t31 61t58.5 39t92.5 13.5q52 0 88.5 -13
t59 -37.5t32.5 -59t10 -77.5q0 -66 -28.5 -110t-79.5 -60zM245 368q-23 -5 -44 -18t-37 -33t-25.5 -46t-9.5 -56q0 -81 28.5 -114.5t88.5 -33.5q63 0 90 34t27 112q0 32 -10 58.5t-26.5 46t-38 32.5t-43.5 18zM248 421q60 12 81.5 49t21.5 100q0 47 -22 77.5t-80 30.5
t-80 -30.5t-22 -77.5q0 -62 21 -99t80 -50z" />
    <glyph glyph-name="nine" unicode="9" horiz-adv-x="498" 
d="M39 506q0 56 9 101.5t32.5 77.5t63.5 49.5t103 17.5q77 0 119 -26.5t62 -75t24 -116.5t4 -150q0 -81 -4.5 -153t-25.5 -126t-64.5 -85t-121.5 -31q-53 0 -96 23t-74 82v60h74q14 -45 40 -64t58 -19q42 0 66.5 20t37 55t16 81.5t3.5 100.5q-45 -35 -82.5 -49t-71.5 -14
q-88 0 -130 52.5t-42 166.5v22zM363 429q0 56 -3 100.5t-14.5 75t-34.5 47t-63 16.5q-34 0 -56 -10.5t-35 -31.5t-18.5 -53t-5.5 -75v-10q0 -41 7 -69.5t21 -46t35.5 -25t50.5 -7.5q32 0 63.5 15t52.5 41v33z" />
    <glyph glyph-name="colon" unicode=":" horiz-adv-x="187" 
d="M132 0h-76v104h76v-104zM132 445h-76v104h76v-104z" />
    <glyph glyph-name="semicolon" unicode=";" horiz-adv-x="185" 
d="M133 445h-77v104h77v-104zM134 68q0 -29 -4.5 -55.5t-11 -47.5t-14 -36.5t-13.5 -22.5h-32v198h75v-36z" />
    <glyph glyph-name="less" unicode="&#x3c;" horiz-adv-x="432" 
d="M386 541l-263 -186l263 -185v-72l-343 234v46l343 235v-72z" />
    <glyph glyph-name="equal" unicode="=" horiz-adv-x="534" 
d="M491 234h-438v63h438v-63zM491 448h-438v63h438v-63z" />
    <glyph glyph-name="greater" unicode="&#x3e;" horiz-adv-x="437" 
d="M390 332l-343 -234v72l264 185l-264 186v72l343 -235v-46z" />
    <glyph glyph-name="question" unicode="?" horiz-adv-x="416" 
d="M25 600v55q28 60 72 88t115 28q49 0 83 -13.5t55 -36t30.5 -52.5t9.5 -62q0 -41 -12.5 -71t-32 -53.5t-41.5 -43t-41.5 -38.5t-32 -40t-12.5 -47q0 -42 6 -85h-68q-10 23 -14.5 46t-4.5 44q0 35 12 60.5t30 46.5t39 39t39 38t30 43.5t12 56.5t-20 57t-69 24
q-51 0 -75.5 -21.5t-37.5 -62.5h-72zM226 0h-77v104h77v-104z" />
    <glyph glyph-name="at" unicode="@" horiz-adv-x="569" 
d="M523 105h-46q-4 8 -6.5 17.5t-3.5 19.5q-31 -21 -54 -30.5t-46 -9.5q-56 0 -87.5 13.5t-48 39t-20.5 62t-4 81.5q0 54 3.5 96t19.5 71.5t48.5 45t90.5 15.5q11 0 19.5 -1t18 -3.5t23 -7t34.5 -12.5q-2 36 -10.5 62t-27 43t-48.5 25t-75 8q-66 0 -105.5 -14t-60.5 -50
t-27.5 -98.5t-6.5 -159.5q0 -117 5 -191t25.5 -116t62.5 -57.5t117 -15.5q63 0 104.5 20t66.5 49h38v-50q-35 -35 -85.5 -57.5t-122.5 -22.5q-99 0 -154 22t-81.5 73.5t-31.5 136.5t-5 211q0 108 7.5 180.5t34.5 116.5t78.5 63t140.5 19q63 0 104.5 -12t66.5 -37.5t36 -65.5
t13 -95v-384zM461 450q-15 7 -25.5 11t-20 6t-19 2.5t-22.5 0.5q-36 0 -56.5 -9.5t-31 -28t-13.5 -47t-3 -65.5q0 -40 2.5 -71t13.5 -52.5t33 -32.5t60 -11q10 0 17.5 1t16.5 4t20 9t28 16v267z" />
    <glyph glyph-name="A" unicode="A" horiz-adv-x="484" 
d="M463 72v-72h-86l-35 145h-205l-32 -145h-84v72l162 670h113zM149 224h181l-92 391z" />
    <glyph glyph-name="B" unicode="B" horiz-adv-x="493" 
d="M427 517q0 -35 -13 -65.5t-41 -41.5q20 -5 37 -19t29 -34.5t18.5 -45t6.5 -49.5v-48q0 -48 -8.5 -87.5t-31 -67.5t-61 -43.5t-99.5 -15.5h-217v742h195q56 0 92 -12.5t56.5 -36t28.5 -58.5t8 -80v-38zM140 360v-278h119q35 0 57 10t34.5 28.5t17 45t4.5 60.5v7
q0 65 -24.5 96t-66.5 31h-141zM140 659v-222h135q34 0 49 25t15 61v15q0 62 -20 91.5t-80 29.5h-99z" />
    <glyph glyph-name="C" unicode="C" horiz-adv-x="492" 
d="M467 586h-80q-23 47 -54 64.5t-63 17.5q-75 0 -106 -49.5t-31 -154.5v-176q0 -43 6.5 -80t21.5 -64.5t40 -43t62 -15.5q22 0 36 1t30 4t37.5 9.5t57.5 17.5l36 11v-63l-46 -23q-28 -14 -49 -24t-38.5 -16t-33 -9t-33.5 -3q-58 0 -100 19.5t-69 55.5t-39.5 86.5
t-12.5 113.5v222q0 129 57 198t178 69q54 0 105 -22.5t88 -85.5v-60z" />
    <glyph glyph-name="D" unicode="D" horiz-adv-x="518" 
d="M479 282q0 -71 -7.5 -123.5t-28 -88t-56 -53t-91.5 -17.5h-249v742h249q51 0 86 -20.5t56.5 -56t31 -82.5t9.5 -101v-200zM141 659v-575h132q33 0 54.5 11t34 35t17.5 62.5t5 94.5v193q0 88 -25 133.5t-90 45.5h-128z" />
    <glyph glyph-name="E" unicode="E" horiz-adv-x="432" 
d="M394 658h-253v-224h246v-85h-246v-266h255v-83h-349v742h347v-84z" />
    <glyph glyph-name="F" unicode="F" horiz-adv-x="415" 
d="M400 658h-258v-237h238v-84h-238v-337h-95v742h353v-84z" />
    <glyph glyph-name="G" unicode="G" horiz-adv-x="510" 
d="M470 586h-80q-23 46 -56 64t-64 18q-78 0 -107.5 -50.5t-29.5 -153.5v-176q0 -43 6 -80.5t21 -65t39.5 -43.5t60.5 -16q26 0 53 8.5t77 31.5v210l-107 15v54h193v-328q-48 -25 -80.5 -41.5t-56.5 -26t-42.5 -13t-39.5 -3.5q-58 0 -99 19.5t-67.5 55.5t-39 86.5
t-12.5 113.5v222q0 129 57 198t178 69q27 0 54 -5t52.5 -17.5t48.5 -33.5t41 -52v-60z" />
    <glyph glyph-name="H" unicode="H" horiz-adv-x="506" 
d="M459 0h-93v343h-224v-343h-95v742h95v-316h224v316h93v-742z" />
    <glyph glyph-name="I" unicode="I" horiz-adv-x="197" 
d="M145 0h-93v742h93v-742z" />
    <glyph glyph-name="J" unicode="J" horiz-adv-x="364" 
d="M317 197q0 -61 -7.5 -101t-24.5 -63.5t-45.5 -33t-70.5 -9.5q-32 0 -62.5 5.5t-65.5 24.5l-31 16v65l38 -13q10 -4 26 -6.5t39 -2.5q36 0 58 5.5t34 21.5t15.5 43t3.5 71v522h93v-545z" />
    <glyph glyph-name="K" unicode="K" horiz-adv-x="482" 
d="M449 682l-152 -262l165 -349v-71h-87l-158 363h-76v-363h-94v742h94v-304h75l159 304h74v-60z" />
    <glyph glyph-name="L" unicode="L" horiz-adv-x="385" 
d="M142 83h229v-83h-324v742h95v-659z" />
    <glyph glyph-name="M" unicode="M" horiz-adv-x="711" 
d="M666 0h-85v597l-174 -582h-96l-182 581v-596h-84v742h130l185 -599l180 599h126v-742z" />
    <glyph glyph-name="N" unicode="N" horiz-adv-x="548" 
d="M501 0h-89l-283 542v-542h-83v742h88l285 -555v555h82v-742z" />
    <glyph glyph-name="O" unicode="O" horiz-adv-x="524" 
d="M485 302q0 -63 -7 -120t-30 -99.5t-67 -67.5t-119 -25t-119 25t-67 67.5t-30 99.5t-7 120v138q0 64 7 121t30 99.5t67 67t119 24.5t119 -24.5t67 -67t30 -99.5t7 -121v-138zM389 427q0 60 -4 105t-17 75.5t-38 46t-68 15.5t-68 -15.5t-38 -46t-17 -75.5t-4 -105v-112
q0 -59 4 -104.5t17 -76.5t38 -46.5t68 -15.5t68 15.5t38 46.5t17 76.5t4 104.5v112z" />
    <glyph glyph-name="P" unicode="P" horiz-adv-x="476" 
d="M456 485q0 -46 -10.5 -84t-34.5 -65.5t-63 -42.5t-97 -15h-110v-278h-94v742h204q103 0 154 -42.5t51 -141.5v-73zM141 661v-304h72q43 0 72.5 7t46.5 23.5t24.5 43.5t7.5 67v17q0 40 -5.5 68t-19.5 45t-38 25t-60 8h-100z" />
    <glyph glyph-name="Q" unicode="Q" horiz-adv-x="524" 
d="M485 302q0 -60 -6 -114t-26 -95t-58 -67t-102 -31v-87q0 -30 10 -45t37 -15h47v-67h-78q-23 0 -38 8.5t-24 22.5t-12.5 33t-3.5 40v110q-64 4 -102 30t-58 67.5t-26 95.5t-6 114v138q0 64 7 121t30 99.5t67 67t119 24.5t119 -24.5t67 -67t30 -99.5t7 -121v-138zM389 427
q0 59 -4 104.5t-17 76t-38 46t-68 15.5t-68.5 -15.5t-38.5 -46t-16.5 -76t-3.5 -104.5v-112q0 -59 3.5 -104.5t16.5 -76.5t38.5 -46.5t68.5 -15.5t68 15.5t38 46.5t17 76.5t4 104.5v112z" />
    <glyph glyph-name="R" unicode="R" horiz-adv-x="488" 
d="M459 447q0 -60 -20.5 -102t-68.5 -63l89 -208v-74h-79l-99 264h-140v-264h-94v742h238q51 0 85 -14t53.5 -39.5t27.5 -62t8 -82.5v-97zM141 660v-318h79q50 0 80 6t45.5 25t20 53t4.5 90q0 76 -23 110t-88 34h-118z" />
    <glyph glyph-name="S" unicode="S" horiz-adv-x="461" 
d="M425 587h-75q-6 37 -35 57t-72 20q-19 0 -38.5 -2t-35.5 -11.5t-26.5 -29t-10.5 -53.5q0 -41 22 -65.5t55.5 -42.5t72.5 -35.5t72.5 -45t55.5 -70t22 -110.5q0 -42 -13.5 -80t-40 -66.5t-66 -45.5t-92.5 -17q-41 0 -73.5 11.5t-57 30.5t-39.5 44.5t-21 54.5v56h73
q11 -48 40 -74t85 -26q32 0 54.5 9t36.5 25.5t20 38.5t6 49q0 39 -14 64t-40 42q-30 21 -61 36t-59 29.5t-52.5 30t-42 37t-28 51.5t-10.5 73q0 88 47.5 134t157.5 46q68 0 118.5 -28t64.5 -77v-60z" />
    <glyph glyph-name="T" unicode="T" horiz-adv-x="434" 
d="M420 658h-156v-658h-94v658h-156v84h406v-84z" />
    <glyph glyph-name="U" unicode="U" horiz-adv-x="512" 
d="M468 236q0 -57 -11 -102.5t-35.5 -77.5t-65.5 -49.5t-101 -17.5q-111 0 -161.5 63t-50.5 184v506h94v-481q0 -51 5.5 -87t19.5 -58.5t36.5 -32.5t57.5 -10q34 0 57 10t37 32.5t19.5 57t5.5 84.5v485h93v-506z" />
    <glyph glyph-name="V" unicode="V" horiz-adv-x="484" 
d="M463 670l-162 -670h-113l-167 670v72h86l139 -613l133 613h84v-72z" />
    <glyph glyph-name="W" unicode="W" horiz-adv-x="777" 
d="M756 671l-141 -671h-113l-114 613l-115 -613h-114l-138 671v71h88l111 -619l113 619h114l112 -619l113 619h84v-71z" />
    <glyph glyph-name="X" unicode="X" horiz-adv-x="506" 
d="M475 664l-162 -284l163 -311v-69h-78l-149 293l-155 -293h-65v77l171 302l-155 289v74h74l143 -281l147 281h66v-78z" />
    <glyph glyph-name="Y" unicode="Y" horiz-adv-x="481" 
d="M462 680l-175 -400v-280h-93v278l-175 402v62h82l141 -366l141 366h79v-62z" />
    <glyph glyph-name="Z" unicode="Z" horiz-adv-x="452" 
d="M412 679l-277 -596h289v-83h-399v65l279 593h-261v84h369v-63z" />
    <glyph glyph-name="bracketleft" unicode="[" horiz-adv-x="307" 
d="M273 773h-136v-845h136v-58h-201v961h201v-58z" />
    <glyph glyph-name="backslash" unicode="\" horiz-adv-x="319" 
d="M301 0v-25h-53l-231 741v26h52z" />
    <glyph glyph-name="bracketright" unicode="]" horiz-adv-x="304" 
d="M236 -130h-202v58h136v845h-136v58h202v-961z" />
    <glyph glyph-name="asciicircum" unicode="^" horiz-adv-x="415" 
d="M386 394h-67l-114 282l-112 -282h-63l142 352h67z" />
    <glyph glyph-name="underscore" unicode="_" horiz-adv-x="425" 
d="M426 -165h-426v53h426v-53z" />
    <glyph glyph-name="grave" unicode="`" horiz-adv-x="308" 
d="M275 642l-213 30v56l213 -51v-35z" />
    <glyph glyph-name="a" unicode="a" horiz-adv-x="465" 
d="M419 66q0 -15 12 -15h8v-51h-37q-33 0 -48.5 18t-17.5 47q-38 -24 -61.5 -38t-41 -21t-31 -9t-30.5 -2q-77 0 -111.5 52t-34.5 139q0 74 33 110.5t108 36.5h162q0 41 -4 69t-15.5 45t-33 24t-55.5 7q-33 0 -63.5 -7.5t-73.5 -20.5l-30 -9v60l28 14q27 13 48.5 22.5
t40 15.5t36 8.5t36.5 2.5q49 0 82.5 -13.5t54.5 -42.5t30 -75.5t9 -113.5v-253zM192 275q-42 0 -60 -21.5t-18 -67.5q0 -115 74 -115q13 0 25 1.5t27 6.5t35.5 15t52.5 27v154h-136z" />
    <glyph glyph-name="b" unicode="b" horiz-adv-x="472" 
d="M137 524q46 22 68 31t40 9q69 0 107.5 -18.5t58 -54t24 -87t4.5 -117.5q0 -54 -3.5 -106.5t-22 -94.5t-57 -67.5t-108.5 -25.5q-14 0 -26 0.5t-27.5 3t-36 6.5t-50.5 11l-62 14v652l20 116h71v-272zM137 87l24 -5q21 -5 33 -8t19 -2q48 0 75 12t40.5 37.5t16.5 65t3 95.5
q0 61 -4 100.5t-17.5 62.5t-39.5 32t-71 9q-4 0 -9 -0.5t-13 -3t-21.5 -7t-35.5 -11.5v-377z" />
    <glyph glyph-name="c" unicode="c" horiz-adv-x="445" 
d="M413 429h-71q-13 34 -40.5 46t-60.5 12q-35 0 -57.5 -11.5t-35.5 -34t-18 -55.5t-5 -75v-35q0 -46 5 -83t17.5 -63t35 -40t57.5 -14q13 0 24 0.5t25.5 3.5t36 9t54.5 16l30 9v-61l-19 -10q-35 -18 -58 -28.5t-39.5 -16t-29.5 -7t-26 -1.5q-60 0 -98.5 20t-61 56
t-31.5 85.5t-9 108.5v70q0 113 47.5 173.5t155.5 60.5q57 0 102 -17.5t70 -62.5v-55z" />
    <glyph glyph-name="d" unicode="d" horiz-adv-x="472" 
d="M427 66q0 -15 12 -15h8v-51h-68q-17 0 -25 9.5t-10 24.5q-29 -14 -48 -21.5t-33 -11.5t-26 -5t-27 -1q-61 0 -96 25.5t-53 66.5t-22.5 93.5t-4.5 106.5q0 66 4.5 117.5t24 87t58 54t107.5 18.5q8 0 15.5 -1t19 -5t28.5 -12t45 -22v156l20 116h71v-730zM336 464
l-34.5 11.5t-22 6.5t-14.5 3t-13 1q-43 0 -68.5 -9.5t-38.5 -32.5t-16.5 -62t-3.5 -97q0 -52 3 -91t15 -64.5t37 -38.5t69 -13q11 0 30.5 5t56.5 21v360z" />
    <glyph glyph-name="e" unicode="e" horiz-adv-x="461" 
d="M424 259h-297q0 -29 3 -61t14.5 -59t34 -45t61.5 -18q13 0 24 0.5t25.5 3.5t36 9t54.5 16l30 9v-61l-19 -10q-35 -18 -58 -28.5t-39.5 -16t-29.5 -7t-26 -1.5q-61 0 -100 21t-61 58t-30.5 86t-8.5 105v70q0 114 46.5 174t150.5 60q57 0 93.5 -18t58 -50.5t29.5 -77.5
t8 -99v-60zM336 335q0 78 -21.5 118.5t-80.5 40.5q-54 0 -79.5 -36.5t-25.5 -116.5v-23h207v17z" />
    <glyph glyph-name="f" unicode="f" horiz-adv-x="289" 
d="M272 722h-81q-21 0 -29 -15t-8 -46v-107h116v-68h-116v-486h-91v486h-47v68h47v116q0 27 4 50t14.5 40t29 26.5t46.5 9.5h115v-74z" />
    <glyph glyph-name="g" unicode="g" horiz-adv-x="472" 
d="M235 25q-71 0 -111 17t-60 49.5t-25 80t-5 108.5q0 52 4 103t23 91.5t57.5 65t106.5 24.5q13 0 25.5 -1t28 -3t36 -6t50.5 -11l62 -14v-478q0 -52 -7.5 -100.5t-29 -86t-60 -60.5t-100.5 -23q-14 0 -26.5 1.5t-29 7t-40 16t-57.5 28.5l-19 10v61l30 -9q33 -10 54.5 -16
t36 -9t25.5 -3.5t24 -0.5q37 0 58.5 15.5t33 41t14.5 57t3 63.5v16q-32 -13 -51 -20t-29.5 -10.5t-14.5 -4t-7 -0.5zM312 475q-27 5 -40 6.5t-18 3.5q-45 0 -70.5 -12t-38.5 -37t-16.5 -63t-3.5 -90q0 -55 4 -90.5t18 -56.5t42 -29t75 -8q3 0 7.5 0.5t12.5 2t20 5t32 9.5
v354z" />
    <glyph glyph-name="h" unicode="h" horiz-adv-x="480" 
d="M137 528q31 13 49 20t28.5 10.5t15.5 4.5t9 1q58 0 97 -11t62 -35.5t32.5 -65.5t9.5 -101v-351h-91v351q0 37 -4.5 63t-18 42t-37.5 23t-64 7q-8 0 -15 -0.5t-16.5 -2t-23 -5.5t-33.5 -10v-468h-91v680l20 116h71v-268z" />
    <glyph glyph-name="i" unicode="i" horiz-adv-x="190" 
d="M140 68q0 -17 12 -17h10v-51h-79q-34 0 -34 38v516h91v-486zM140 706h-90v91h90v-91z" />
    <glyph glyph-name="j" unicode="j" horiz-adv-x="188" 
d="M141 706h-91v91h91v-91zM141 -93q0 -27 -4 -50t-14.5 -40t-29 -26.5t-46.5 -9.5h-81v74h47q21 0 29 15t8 46v638h91v-647z" />
    <glyph glyph-name="k" unicode="k" horiz-adv-x="456" 
d="M421 508l-121 -190l133 -262v-56h-83l-127 275h-85v-275h-91v680l20 116h71v-449h86l126 207h71v-46z" />
    <glyph glyph-name="l" unicode="l" horiz-adv-x="185" 
d="M137 68q0 -17 12 -17h10v-51h-79q-34 0 -34 38v642l20 116h71v-728z" />
    <glyph glyph-name="m" unicode="m" horiz-adv-x="719" 
d="M680 0h-91v399q0 24 -4 41t-15.5 27t-32 14.5t-53.5 4.5q-10 0 -29 -3.5t-54 -16.5q9 -30 9 -66v-400h-91v399q0 49 -20.5 68t-75.5 19q-14 0 -30.5 -2.5t-56.5 -15.5v-468h-91v554h75l5 -31q35 15 55.5 23t32.5 12t17 5t10 1q51 0 84.5 -13.5t53.5 -38.5q34 16 57 26.5
t39 16t25.5 7.5t15.5 2q57 0 89.5 -14t49.5 -37t21.5 -53t4.5 -61v-399z" />
    <glyph glyph-name="n" unicode="n" 
d="M440 0h-91v351q0 37 -3 63t-15.5 42t-38 23t-70.5 7q-7 0 -13.5 -0.5t-16 -2t-23 -5.5t-33.5 -10v-468h-91v554h75l5 -31q35 15 55.5 23t32 12t16.5 5t9 1q70 0 110.5 -14.5t61 -42t25.5 -67t5 -89.5v-351z" />
    <glyph glyph-name="o" unicode="o" 
d="M441 257q0 -61 -7 -110.5t-28 -84t-61 -53.5t-106 -19t-105.5 19t-60.5 53.5t-28 84t-7 110.5v40q0 61 7 110.5t28 84t60.5 53.5t105.5 19t106 -19t61 -53.5t28 -84t7 -110.5v-40zM349 315q0 41 -4.5 73t-16.5 53.5t-33.5 33t-55.5 11.5q-36 0 -58 -12.5t-33.5 -37.5
t-15 -62.5t-3.5 -86.5v-20q0 -49 3.5 -86.5t15 -62.5t33.5 -38t58 -13t58 13t33.5 38t15 62.5t3.5 86.5v48z" />
    <glyph glyph-name="p" unicode="p" horiz-adv-x="473" 
d="M122 554q2 -8 3 -17.5t2 -22.5q26 14 43 23t30.5 14t25.5 6.5t29 1.5q68 0 105.5 -25.5t55 -66.5t21 -93.5t3.5 -106.5q0 -66 -4.5 -117.5t-22.5 -87t-54 -54t-100 -18.5q-15 0 -25.5 1.5t-23 5.5t-29.5 11.5t-43 20.5v-248h-91v773h75zM138 99q21 -10 34.5 -16
t23.5 -9.5t18.5 -4.5t19.5 -1q38 0 61 9t35 32t15.5 61.5t3.5 98.5q0 53 -3 92t-15.5 64.5t-37 38t-67.5 12.5q-10 0 -17 -1t-16 -3.5t-21.5 -7t-33.5 -11.5v-354z" />
    <glyph glyph-name="q" unicode="q" horiz-adv-x="475" 
d="M427 -219h-91v252q-23 -11 -39.5 -19t-28.5 -12.5t-21.5 -6.5t-18.5 -2q-69 0 -107.5 18.5t-58 54t-24 87t-4.5 117.5q0 54 3.5 106.5t22 94.5t57 67.5t108.5 25.5q13 0 25.5 -1t28 -3t36 -6t50.5 -11l62 -14v-748zM312 475q-27 5 -40 6.5t-18 3.5q-45 0 -71 -12.5
t-39 -38t-16 -65.5t-3 -94q0 -61 3.5 -100.5t17 -62.5t40 -32t71.5 -9q4 0 9 0.5t13 3t21.5 6.5t35.5 12v377z" />
    <glyph glyph-name="r" unicode="r" horiz-adv-x="378" 
d="M354 467h-59q-6 7 -18 10.5t-49 3.5q-18 0 -39.5 -5t-52.5 -15v-461h-91v554h75l5 -38q36 15 60.5 24t44.5 13t38 5t42 1q12 0 23 -1t21 -3v-88z" />
    <glyph glyph-name="s" unicode="s" horiz-adv-x="441" 
d="M387 429h-72q-8 34 -34.5 51.5t-60.5 17.5q-18 0 -35.5 -3t-30.5 -10.5t-21 -22t-8 -36.5q0 -33 21 -52.5t52.5 -33t68 -26t68 -33t52.5 -52.5t21 -85q0 -68 -48 -111t-154 -43q-28 0 -54.5 7.5t-49.5 21t-40.5 33t-27.5 43.5v52h71q10 -40 39 -61.5t67 -21.5
q23 0 43.5 3.5t36.5 13t25 27t9 46.5q0 27 -14 45t-34.5 30t-43 19.5t-40.5 14.5q-36 14 -64 29.5t-47.5 34.5t-30 42.5t-10.5 53.5q0 67 42 104t138 37q57 0 100 -21t66 -62v-52z" />
    <glyph glyph-name="t" unicode="t" horiz-adv-x="314" 
d="M188 554h109v-68h-109v-486h-91v486h-81v68h84l27 171h61v-171z" />
    <glyph glyph-name="u" unicode="u" horiz-adv-x="469" 
d="M430 157q0 -90 -50 -128.5t-147 -38.5t-145.5 38.5t-48.5 128.5v397h90v-389q0 -53 27.5 -73t78.5 -20t78.5 20t27.5 73v389h89v-397z" />
    <glyph glyph-name="v" unicode="v" horiz-adv-x="464" 
d="M438 499l-152 -499h-106l-155 499v55h81l128 -456l125 456h79v-55z" />
    <glyph glyph-name="w" unicode="w" horiz-adv-x="730" 
d="M705 500l-130 -500h-105l-106 456l-104 -456h-106l-129 500v54h82l103 -460l103 460h107l103 -460l104 460h78v-54z" />
    <glyph glyph-name="x" unicode="x" horiz-adv-x="450" 
d="M424 492l-142 -208l144 -229v-55h-73l-133 218l-130 -218h-64v62l148 221l-133 213v58h71l120 -208l128 208h64v-62z" />
    <glyph glyph-name="y" unicode="y" horiz-adv-x="480" 
d="M454 499l-241 -718h-90l70 213l-168 505v55h87l131 -439l132 439h79v-55z" />
    <glyph glyph-name="z" unicode="z" horiz-adv-x="416" 
d="M376 494l-239 -416h252v-78h-365v61l240 416h-226v77h338v-60z" />
    <glyph glyph-name="braceleft" unicode="{" horiz-adv-x="319" 
d="M280 772h-51q-14 0 -26 -5.5t-21 -20t-14.5 -38.5t-5.5 -60v-184q0 -46 -10 -71.5t-32 -36.5q25 -13 33.5 -39t8.5 -77v-195q0 -37 5.5 -59.5t14.5 -35t21 -17t26 -4.5h51v-59h-56q-22 0 -44.5 7t-40.5 24t-29.5 45.5t-11.5 72.5v201q0 54 -5.5 79t-23.5 25h-36v65h36
q20 0 24.5 26t4.5 77v198q0 40 11 67.5t29 43.5t40.5 23t45.5 7h56v-59z" />
    <glyph glyph-name="bar" unicode="|" horiz-adv-x="341" 
d="M203 -173h-65v968h65v-968z" />
    <glyph glyph-name="braceright" unicode="}" horiz-adv-x="325" 
d="M221 492q0 -51 4.5 -77t24.5 -26h36v-65h-36q-18 0 -23.5 -25t-5.5 -79v-201q0 -44 -11.5 -72.5t-29.5 -45.5t-40.5 -24t-44.5 -7h-56v59h51q14 0 26 4.5t21 17t14.5 35t5.5 59.5v195q0 51 8.5 77t33.5 39q-22 11 -32 36.5t-10 71.5v184q0 36 -5.5 60t-14.5 38.5t-21 20
t-26 5.5h-51v59h56q23 0 45.5 -7t40.5 -23t29 -43.5t11 -67.5v-198z" />
    <glyph glyph-name="asciitilde" unicode="~" horiz-adv-x="441" 
d="M398 359q-23 -22 -47.5 -32.5t-49.5 -10.5q-24 0 -44 6t-38.5 13t-37 13t-39.5 6q-12 0 -21.5 -1.5t-20.5 -6t-24.5 -13t-31.5 -21.5v50q18 20 43 32t51 12q25 0 46.5 -6t41 -13t37.5 -13t38 -6q12 0 22 1.5t21 6t24 12.5t30 20v-49z" />
    <glyph glyph-name="exclamdown" unicode="&#xa1;" horiz-adv-x="244" 
d="M63 0zM77.0078 409.014h76.9951l13.999 -548.967h-104.993zM77.0078 625h75.9951v-103.994h-75.9951v103.994z" />
    <glyph glyph-name="cent" unicode="&#xa2;" horiz-adv-x="440" 
d="M262 652q42 -2 79.5 -20t65.5 -58v-55h-71q-18 32 -45.5 44.5t-56.5 12.5q-34 0 -56 -11.5t-35 -34t-18.5 -55t-5.5 -75.5v-35q0 -45 5 -82t17.5 -63.5t35 -40.5t57.5 -14q15 0 28.5 1.5t30 6t37 12t48.5 18.5l25 10v-71l-25 -16q-35 -23 -63.5 -32t-52.5 -12v-82h-56v81
q-52 4 -85.5 25.5t-53.5 56.5t-28 82.5t-8 103.5v70q0 106 41 165.5t134 66.5v91h56v-90z" />
    <glyph glyph-name="sterling" unicode="&#xa3;" horiz-adv-x="478" 
d="M430 593h-69q-17 42 -42 59.5t-58 17.5q-26 0 -44.5 -8.5t-29.5 -22.5t-16 -32.5t-5 -39.5q0 -56 15.5 -100t34.5 -87h149v-49h-129q14 -35 23.5 -74.5t9.5 -88.5q0 -23 -6 -50q19 -14 33.5 -24t28.5 -16t29 -9t35 -3h47v-66h-27q-44 0 -84.5 11t-83.5 47
q-17 -29 -45 -48.5t-72 -19.5q-50 0 -76 28t-26 76q0 40 24.5 64.5t62.5 24.5q24 0 44.5 -5t39.5 -13q-1 42 -12 83t-29 83h-99v49h76q-18 37 -33 82.5t-15 113.5q0 38 10 70.5t31 56t54 37t80 13.5q56 0 98.5 -21t75.5 -80v-59zM187 105q-15 11 -32.5 18t-39.5 7
q-38 0 -38 -41q0 -17 10 -27t36 -10q29 0 43.5 15t20.5 38z" />
    <glyph glyph-name="currency" unicode="&#xa4;" horiz-adv-x="472" 
d="M436 716l-51 -105q32 -35 42 -90t10 -127v-40q0 -74 -10.5 -129.5t-44.5 -90.5l54 -109v-25h-53l-52 106q-19 -9 -42 -14t-54 -5q-30 0 -54 5t-43 14l-51 -106h-53v25l53 110q-33 34 -43 90t-10 129v40q0 72 9.5 127t41.5 90l-51 105v26h53l49 -102q19 10 43 15.5t56 5.5
t56 -5.5t42 -15.5l50 102h53v-26zM367 365q0 55 -3 98t-16 72.5t-39.5 44.5t-73.5 15q-44 0 -70 -13t-39.5 -39.5t-17.5 -66t-4 -91.5v-20q0 -53 4 -92.5t17.5 -66t39.5 -40t70 -13.5t70 13.5t40 40t18 66t4 92.5z" />
    <glyph glyph-name="yen" unicode="&#xa5;" horiz-adv-x="469" 
d="M435 698l-147 -305h147v-51h-162v-118h162v-50h-162v-174h-78v174h-161v50h161v118h-161v51h145l-145 305v44h58l142 -314l143 314h58v-44z" />
    <glyph glyph-name="brokenbar" unicode="&#xa6;" horiz-adv-x="341" 
d="M203 -173h-65v426h65v-426zM203 418h-65v377h65v-377z" />
    <glyph glyph-name="section" unicode="&#xa7;" horiz-adv-x="434" 
d="M388 610h-57q-12 44 -36 59t-67 15q-57 0 -78 -24t-21 -61t19.5 -58.5t49.5 -36t64 -27t64 -33t49.5 -53t19.5 -87.5q0 -39 -12 -72t-38 -57q20 -18 30 -47.5t10 -66.5q0 -38 -11 -73t-34 -61t-58.5 -41.5t-85.5 -15.5q-26 0 -51 8.5t-46.5 24t-38 37.5t-24.5 49v51h64
q6 -45 35 -69.5t66 -24.5q55 0 81.5 32.5t26.5 80.5q0 40 -20 63.5t-49.5 38.5t-64 27.5t-64 31.5t-49.5 50t-20 84q0 89 66 122q-22 19 -38.5 51t-16.5 74q0 75 41 113t135 38q70 0 107.5 -24t51.5 -68v-50zM319 302q0 36 -14.5 57t-36.5 34t-48.5 22t-51.5 21
q-25 -9 -37 -29.5t-12 -49.5q0 -36 17 -56t43 -33t55.5 -23t55.5 -27q15 15 22 36.5t7 47.5z" />
    <glyph glyph-name="dieresis" unicode="&#xa8;" horiz-adv-x="351" 
d="M302 636h-70v114h70v-114zM117 636h-70v114h70v-114z" />
    <glyph glyph-name="ordfeminine" unicode="&#xaa;" horiz-adv-x="379" 
d="M321 347q0 -11 5.5 -14.5t12.5 -3.5v-30h-20q-29 0 -40 15t-13 47q-32 -22 -52 -35t-33 -20t-21.5 -9t-16.5 -2q-55 0 -80 38t-25 101q0 52 23.5 79t77.5 27h122q0 36 -2.5 60t-10.5 38.5t-23.5 20.5t-42.5 6q-23 0 -53 -4.5t-70 -17.5v36q48 24 80 33.5t50 9.5
q44 0 70 -10.5t40 -34t18 -60.5t4 -89v-181zM159 505q-33 0 -47.5 -18t-14.5 -53q0 -83 54 -83q10 0 17.5 1t19 5.5t28.5 13t45 23.5v111h-102z" />
    <glyph glyph-name="guillemotleft" unicode="&#xab;" horiz-adv-x="431" 
d="M278 315l129 -170l-36 -36l-162 206l162 207l36 -35zM94 315l130 -170l-37 -36l-163 206l163 207l37 -35z" />
    <glyph glyph-name="logicalnot" unicode="&#xac;" horiz-adv-x="493" 
d="M454 0h-64v331h-354v64h418v-395z" />
    <glyph glyph-name="macron" unicode="&#xaf;" horiz-adv-x="355" 
d="M306 675h-259v48h259v-48z" />
    <glyph glyph-name="degree" unicode="&#xb0;" horiz-adv-x="276" 
d="M137 742q27 0 46 -9t31 -24t17.5 -35.5t5.5 -44.5q0 -23 -5.5 -43.5t-17.5 -36t-31 -24.5t-46 -9q-53 0 -76 33t-23 80q0 24 5.5 44.5t17.5 35.5t30.5 24t45.5 9zM137 699q-30 0 -43 -20.5t-13 -49.5t13 -49.5t43 -20.5q31 0 44 20.5t13 49.5t-12.5 49.5t-44.5 20.5z" />
    <glyph glyph-name="plusminus" unicode="&#xb1;" horiz-adv-x="493" 
d="M454 331h-178v-178h-64v178h-176v64h176v177h64v-177h178v-64zM456 11h-418v64h418v-64z" />
    <glyph glyph-name="twosuperior" unicode="&#xb2;" horiz-adv-x="315" 
d="M45 663v37q26 34 52 43t59 9q63 0 87.5 -34.5t24.5 -88.5q0 -38 -15 -76.5t-38 -75t-51 -69t-53 -56.5h162v-52h-231v48q19 20 48 53t56 71.5t46.5 79t19.5 75.5q0 71 -56 71q-19 0 -34.5 -6t-31.5 -29h-45z" />
    <glyph glyph-name="threesuperior" unicode="&#xb3;" horiz-adv-x="328" 
d="M53 663v37q26 34 52.5 43t58.5 9q30 0 51 -8.5t34 -23t19 -34.5t6 -42q0 -35 -14.5 -65t-41.5 -41q32 -11 49.5 -40.5t17.5 -61.5q0 -29 -7.5 -55t-23.5 -45.5t-41 -30.5t-59 -11q-35 0 -65 18.5t-47 48.5v37h47q10 -24 28 -36.5t40 -12.5q36 0 54 24.5t18 62.5
q0 29 -17.5 52.5t-46.5 23.5h-40v45h39q28 0 42.5 24t14.5 55q0 25 -13 44.5t-47 19.5q-17 0 -32 -7t-30 -30h-46z" />
    <glyph glyph-name="acute" unicode="&#xb4;" horiz-adv-x="308" 
d="M254 672l-212 -30v35l212 51v-56z" />
    <glyph glyph-name="uni00B5" unicode="&#xb5;" horiz-adv-x="461" 
d="M47 0zM408 141q0 -29 -7.5 -56t-25.5 -48t-47.5 -33.5t-74.5 -12.5q-35 0 -72 13.5t-62 33.5v-257h-72v773h72v-457q25 -20 58.5 -33.5t65.5 -13.5q52 0 73.5 25.5t21.5 60.5v418h70v-413z" />
    <glyph glyph-name="paragraph" unicode="&#xb6;" horiz-adv-x="457" 
d="M416 720l-30 -39v-820h-65v824h-121v-770q0 -23 -8.5 -38.5t-29.5 -15.5h-71v54h31q7 0 9.5 3.5t2.5 14.5v571q-51 9 -73 40.5t-22 76.5q0 24 6.5 46t20 38.5t34.5 26.5t50 10h266v-22z" />
    <glyph glyph-name="periodcentered" unicode="&#xb7;" horiz-adv-x="173" 
d="M124 323h-77v104h77v-104z" />
    <glyph glyph-name="cedilla" unicode="&#xb8;" horiz-adv-x="199" 
d="M94 -70q24 -4 42 -20t18 -51q0 -42 -28 -59.5t-79 -18.5v35q35 1 49.5 11.5t14.5 34.5q0 23 -15 33.5t-38 11.5l11 93h32z" />
    <glyph glyph-name="onesuperior" unicode="&#xb9;" horiz-adv-x="192" 
d="M149 300h-58v391l-49 -12v51l69 16h38v-446z" />
    <glyph glyph-name="ordmasculine" unicode="&#xba;" horiz-adv-x="382" 
d="M340 490q0 -45 -5 -81.5t-21 -63t-46 -40.5t-79 -14q-48 0 -77 14t-45 40.5t-21 63t-5 81.5v33q0 45 5 82t21 63t45 40t77 14q49 0 79 -14t46 -40t21 -63t5 -82v-33zM278 514q0 83 -18 120.5t-71 37.5q-29 0 -46 -10t-26 -29.5t-12 -49t-3 -68.5v-16q0 -39 3 -68.5
t12 -49.5t26 -30t46 -10t46.5 10t27 30t12.5 49.5t3 68.5v15z" />
    <glyph glyph-name="guillemotright" unicode="&#xbb;" horiz-adv-x="430" 
d="M223 315l-162 -206l-37 36l128 170l-128 172l37 35zM406 315l-161 -206l-37 36l127 170l-127 172l37 35z" />
    <glyph glyph-name="onequarter" unicode="&#xbc;" horiz-adv-x="704" 
d="M42 0zM559 710l-386 -758h-44v38l387 758h43v-38zM149 300h-58v391l-49 -12v51l69 16h38v-446zM637 138h26v-45h-26v-120h-55v120h-166v41l164 284h57v-280zM471 138h111v194z" />
    <glyph glyph-name="onehalf" unicode="&#xbd;" horiz-adv-x="775" 
d="M42 0zM560 710l-386 -758h-44v38l387 758h43v-38zM149 300h-58v391l-49 -12v51l69 16h38v-446zM505 336v37q26 34 52 43t59 9q63 0 87.5 -34.5t24.5 -88.5q0 -38 -15 -76.5t-38 -75t-51 -69t-53 -56.5h162v-52h-231v48q19 20 48 53t56 71.5t46.5 79t19.5 75.5
q0 71 -56 71q-19 0 -34.5 -6t-31.5 -29h-45z" />
    <glyph glyph-name="threequarters" unicode="&#xbe;" horiz-adv-x="757" 
d="M42 0zM601 710l-386 -758h-44v38l387 758h43v-38zM690 138h26v-45h-26v-120h-55v120h-166v41l164 284h57v-280zM524 138h111v194zM53 663v37q26 34 52.5 43t58.5 9q30 0 51 -8.5t34 -23t19 -34.5t6 -42q0 -35 -14.5 -65t-41.5 -41q32 -11 49.5 -40.5t17.5 -61.5
q0 -29 -7.5 -55t-23.5 -45.5t-41 -30.5t-59 -11q-35 0 -65 18.5t-47 48.5v37h47q10 -24 28 -36.5t40 -12.5q36 0 54 24.5t18 62.5q0 29 -17.5 52.5t-46.5 23.5h-40v45h39q28 0 42.5 24t14.5 55q0 25 -13 44.5t-47 19.5q-17 0 -32 -7t-30 -30h-46z" />
    <glyph glyph-name="questiondown" unicode="&#xbf;" horiz-adv-x="462" 
d="M45 0zM410.002 31.0371v-54.9971q-27.999 -59.9961 -71.9961 -87.9951q-43.9971 -27.998 -114.993 -27.998q-48.9971 0 -82.9951 13.499q-33.9971 13.499 -54.9961 35.998t-30.498 52.4971q-9.5 29.998 -9.5 61.9961q0 40.9971 12.5 70.9961
q12.499 29.998 31.998 53.4961q19.498 23.499 41.4971 42.9971q21.999 19.499 41.4971 38.498q19.499 18.999 31.998 39.998q12.5 20.998 12.5 46.9971q0 41.9971 -6 84.9941h67.9961q9.99902 -22.998 14.499 -45.9971q4.5 -22.998 4.5 -43.9971q0 -34.998 -12 -60.4961
q-11.999 -25.499 -29.998 -46.4971q-17.999 -20.999 -38.9971 -38.998q-20.999 -17.999 -38.998 -37.998q-17.999 -19.998 -29.998 -43.4971q-11.999 -23.498 -11.999 -56.4961t19.998 -56.9971q19.999 -23.998 68.9961 -23.998q50.9971 0 75.4951 21.498
q24.499 21.499 37.498 62.4971h71.9961zM209.014 631h76.9951v-103.994h-76.9951v103.994z" />
    <glyph glyph-name="Agrave" unicode="&#xc0;" horiz-adv-x="484" 
d="M21 0zM463 72v-72h-86l-35 145h-205l-32 -145h-84v72l162 670h113zM149 224h181l-92 391zM331 830l-213 30v56l213 -51v-35z" />
    <glyph glyph-name="Aacute" unicode="&#xc1;" horiz-adv-x="484" 
d="M21 0zM463 72v-72h-86l-35 145h-205l-32 -145h-84v72l162 670h113zM149 224h181l-92 391zM379 860l-212 -30v35l212 51v-56z" />
    <glyph glyph-name="Acircumflex" unicode="&#xc2;" horiz-adv-x="484" 
d="M21 0zM463 72v-72h-86l-35 145h-205l-32 -145h-84v72l162 670h113zM149 224h181l-92 391zM374 822l-135 42l-135 -42v35l135 59l135 -59v-35z" />
    <glyph glyph-name="Atilde" unicode="&#xc3;" horiz-adv-x="484" 
d="M21 0zM463 72v-72h-86l-35 145h-205l-32 -145h-84v72l162 670h113zM149 224h181l-92 391zM374 868q-14 -18 -34.5 -25t-40.5 -7q-19 0 -33 4t-26.5 9t-25 9t-28.5 4q-20 0 -36.5 -3.5t-44.5 -15.5v35q14 17 34.5 24t41.5 7q18 0 32 -4t26.5 -9t25.5 -9t29 -4q23 0 39.5 4
t40.5 16v-35z" />
    <glyph glyph-name="Adieresis" unicode="&#xc4;" horiz-adv-x="484" 
d="M21 0zM463 72v-72h-86l-35 145h-205l-32 -145h-84v72l162 670h113zM149 224h181l-92 391zM367 824h-70v114h70v-114zM182 824h-70v114h70v-114z" />
    <glyph glyph-name="Aring" unicode="&#xc5;" horiz-adv-x="484" 
d="M21 0zM463 72v-72h-86l-35 145h-205l-32 -145h-84v72l162 670h113zM149 224h181l-92 391zM240 957q47 0 67.5 -25t20.5 -70t-20.5 -70t-67.5 -25q-48 0 -69 25t-21 70t21 70t69 25zM240 925q-32 0 -45.5 -16.5t-13.5 -46.5t13.5 -46.5t45.5 -16.5q31 0 44 16.5t13 46.5
t-13 46.5t-44 16.5z" />
    <glyph glyph-name="AE" unicode="&#xc6;" horiz-adv-x="702" 
d="M663 658h-252v-224h246v-85h-246v-266h255v-83h-349v145h-182l-40 -145h-77v63l207 679h438v-84zM278 658l-121 -434h160v434h-39z" />
    <glyph glyph-name="Ccedilla" unicode="&#xc7;" horiz-adv-x="492" 
d="M467 586h-80q-23 47 -54 64.5t-63 17.5q-75 0 -106 -49.5t-31 -154.5v-176q0 -43 6.5 -80t21.5 -64.5t40 -43t62 -15.5q22 0 36 1t30 4t37.5 9.5t57.5 17.5l36 11v-63l-46 -23q-27 -14 -46.5 -23.5t-36 -15.5t-31 -9.5t-30.5 -3.5l-6 -60q24 -4 42 -20t18 -51
q0 -42 -28 -59.5t-79 -18.5v35q35 1 49.5 11.5t14.5 34.5q0 23 -15 33.5t-38 11.5l10 84q-52 4 -89.5 25t-62 56.5t-36 84t-11.5 108.5v222q0 129 57 198t178 69q54 0 105 -22.5t88 -85.5v-60z" />
    <glyph glyph-name="Egrave" unicode="&#xc8;" horiz-adv-x="432" 
d="M47 0zM394 658h-253v-224h246v-85h-246v-266h255v-83h-349v742h347v-84zM311 830l-213 30v56l213 -51v-35z" />
    <glyph glyph-name="Eacute" unicode="&#xc9;" horiz-adv-x="432" 
d="M47 0zM394 658h-253v-224h246v-85h-246v-266h255v-83h-349v742h347v-84zM358 860l-212 -30v35l212 51v-56z" />
    <glyph glyph-name="Ecircumflex" unicode="&#xca;" horiz-adv-x="432" 
d="M47 0zM394 658h-253v-224h246v-85h-246v-266h255v-83h-349v742h347v-84zM351 822l-135 42l-135 -42v35l135 59l135 -59v-35z" />
    <glyph glyph-name="Edieresis" unicode="&#xcb;" horiz-adv-x="432" 
d="M47 0zM394 658h-253v-224h246v-85h-246v-266h255v-83h-349v742h347v-84zM345 824h-70v114h70v-114zM160 824h-70v114h70v-114z" />
    <glyph glyph-name="Igrave" unicode="&#xcc;" horiz-adv-x="197" 
d="M0 0zM145 0h-93v742h93v-742zM191 830l-213 30v56l213 -51v-35z" />
    <glyph glyph-name="Iacute" unicode="&#xcd;" horiz-adv-x="197" 
d="M28 0zM145 0h-93v742h93v-742zM240 860l-212 -30v35l212 51v-56z" />
    <glyph glyph-name="Icircumflex" unicode="&#xce;" horiz-adv-x="197" 
d="M0 0zM145 0h-93v742h93v-742zM234 822l-135 42l-135 -42v35l135 59l135 -59v-35z" />
    <glyph glyph-name="Idieresis" unicode="&#xcf;" horiz-adv-x="197" 
d="M0 0zM145 0h-93v742h93v-742zM227 824h-70v114h70v-114zM42 824h-70v114h70v-114z" />
    <glyph glyph-name="Eth" unicode="&#xd0;" horiz-adv-x="520" 
d="M477 282q0 -71 -7.5 -123.5t-28 -88t-56 -53t-91.5 -17.5h-249v349h-37v85h37v308h249q51 0 86 -20.5t56.5 -56t31 -82.5t9.5 -101v-200zM139 659v-225h131v-85h-131v-265h132q33 0 54.5 11t34 35t17.5 62.5t5 94.5v193q0 88 -25 133.5t-90 45.5h-128z" />
    <glyph glyph-name="Ntilde" unicode="&#xd1;" horiz-adv-x="548" 
d="M46 0zM501 0h-89l-283 542v-542h-83v742h88l285 -555v555h82v-742zM405 868q-14 -18 -34.5 -25t-40.5 -7q-19 0 -33 4t-26.5 9t-25 9t-28.5 4q-20 0 -36.5 -3.5t-44.5 -15.5v35q14 17 34.5 24t41.5 7q18 0 32 -4t26.5 -9t25.5 -9t29 -4q23 0 39.5 4t40.5 16v-35z" />
    <glyph glyph-name="Ograve" unicode="&#xd2;" horiz-adv-x="524" 
d="M39 0zM485 302q0 -63 -7 -120t-30 -99.5t-67 -67.5t-119 -25t-119 25t-67 67.5t-30 99.5t-7 120v138q0 64 7 121t30 99.5t67 67t119 24.5t119 -24.5t67 -67t30 -99.5t7 -121v-138zM389 427q0 60 -4 105t-17 75.5t-38 46t-68 15.5t-68 -15.5t-38 -46t-17 -75.5t-4 -105
v-112q0 -59 4 -104.5t17 -76.5t38 -46.5t68 -15.5t68 15.5t38 46.5t17 76.5t4 104.5v112zM356 830l-213 30v56l213 -51v-35z" />
    <glyph glyph-name="Oacute" unicode="&#xd3;" horiz-adv-x="524" 
d="M39 0zM485 302q0 -63 -7 -120t-30 -99.5t-67 -67.5t-119 -25t-119 25t-67 67.5t-30 99.5t-7 120v138q0 64 7 121t30 99.5t67 67t119 24.5t119 -24.5t67 -67t30 -99.5t7 -121v-138zM389 427q0 60 -4 105t-17 75.5t-38 46t-68 15.5t-68 -15.5t-38 -46t-17 -75.5t-4 -105
v-112q0 -59 4 -104.5t17 -76.5t38 -46.5t68 -15.5t68 15.5t38 46.5t17 76.5t4 104.5v112zM401 860l-212 -30v35l212 51v-56z" />
    <glyph glyph-name="Ocircumflex" unicode="&#xd4;" horiz-adv-x="524" 
d="M39 0zM485 302q0 -63 -7 -120t-30 -99.5t-67 -67.5t-119 -25t-119 25t-67 67.5t-30 99.5t-7 120v138q0 64 7 121t30 99.5t67 67t119 24.5t119 -24.5t67 -67t30 -99.5t7 -121v-138zM389 427q0 60 -4 105t-17 75.5t-38 46t-68 15.5t-68 -15.5t-38 -46t-17 -75.5t-4 -105
v-112q0 -59 4 -104.5t17 -76.5t38 -46.5t68 -15.5t68 15.5t38 46.5t17 76.5t4 104.5v112zM397 822l-135 42l-135 -42v35l135 59l135 -59v-35z" />
    <glyph glyph-name="Otilde" unicode="&#xd5;" horiz-adv-x="524" 
d="M39 0zM485 302q0 -63 -7 -120t-30 -99.5t-67 -67.5t-119 -25t-119 25t-67 67.5t-30 99.5t-7 120v138q0 64 7 121t30 99.5t67 67t119 24.5t119 -24.5t67 -67t30 -99.5t7 -121v-138zM389 427q0 60 -4 105t-17 75.5t-38 46t-68 15.5t-68 -15.5t-38 -46t-17 -75.5t-4 -105
v-112q0 -59 4 -104.5t17 -76.5t38 -46.5t68 -15.5t68 15.5t38 46.5t17 76.5t4 104.5v112zM396 868q-14 -18 -34.5 -25t-40.5 -7q-19 0 -33 4t-26.5 9t-25 9t-28.5 4q-20 0 -36.5 -3.5t-44.5 -15.5v35q14 17 34.5 24t41.5 7q18 0 32 -4t26.5 -9t25.5 -9t29 -4q23 0 39.5 4
t40.5 16v-35z" />
    <glyph glyph-name="Odieresis" unicode="&#xd6;" horiz-adv-x="524" 
d="M39 0zM485 302q0 -63 -7 -120t-30 -99.5t-67 -67.5t-119 -25t-119 25t-67 67.5t-30 99.5t-7 120v138q0 64 7 121t30 99.5t67 67t119 24.5t119 -24.5t67 -67t30 -99.5t7 -121v-138zM389 427q0 60 -4 105t-17 75.5t-38 46t-68 15.5t-68 -15.5t-38 -46t-17 -75.5t-4 -105
v-112q0 -59 4 -104.5t17 -76.5t38 -46.5t68 -15.5t68 15.5t38 46.5t17 76.5t4 104.5v112zM387 824h-70v114h70v-114zM202 824h-70v114h70v-114z" />
    <glyph glyph-name="multiply" unicode="&#xd7;" horiz-adv-x="451" 
d="M273 363l126 -126l-45 -46l-127 126l-125 -126l-46 46l126 126l-126 126l46 45l125 -125l126 125l45 -45z" />
    <glyph glyph-name="Oslash" unicode="&#xd8;" horiz-adv-x="524" 
d="M452 781l-34 -81q21 -21 34.5 -49t20.5 -61.5t9.5 -71.5t2.5 -78v-138q0 -63 -7 -120t-30 -99.5t-67 -67.5t-119 -25q-40 0 -70.5 7t-53.5 20l-29 -72h-36v16l33 81q-22 21 -35 49t-20 61.5t-9.5 71.5t-2.5 78v138q0 64 7 121t30 99.5t67 67t119 24.5q40 0 70.5 -7
t53.5 -21l30 73h36v-16zM135 315q0 -53 2.5 -94t12.5 -72l200 488q-29 32 -88 32q-43 0 -68 -15.5t-38 -46t-17 -75.5t-4 -105v-112zM174 104q28 -32 88 -32q43 0 68 15.5t38 46.5t17 76.5t4 104.5v112q0 52 -3 93t-12 71z" />
    <glyph glyph-name="Ugrave" unicode="&#xd9;" horiz-adv-x="512" 
d="M43 0zM468 236q0 -57 -11 -102.5t-35.5 -77.5t-65.5 -49.5t-101 -17.5q-111 0 -161.5 63t-50.5 184v506h94v-481q0 -51 5.5 -87t19.5 -58.5t36.5 -32.5t57.5 -10q34 0 57 10t37 32.5t19.5 57t5.5 84.5v485h93v-506zM350 830l-213 30v56l213 -51v-35z" />
    <glyph glyph-name="Uacute" unicode="&#xda;" horiz-adv-x="512" 
d="M43 0zM468 236q0 -57 -11 -102.5t-35.5 -77.5t-65.5 -49.5t-101 -17.5q-111 0 -161.5 63t-50.5 184v506h94v-481q0 -51 5.5 -87t19.5 -58.5t36.5 -32.5t57.5 -10q34 0 57 10t37 32.5t19.5 57t5.5 84.5v485h93v-506zM397 860l-212 -30v35l212 51v-56z" />
    <glyph glyph-name="Ucircumflex" unicode="&#xdb;" horiz-adv-x="512" 
d="M43 0zM468 236q0 -57 -11 -102.5t-35.5 -77.5t-65.5 -49.5t-101 -17.5q-111 0 -161.5 63t-50.5 184v506h94v-481q0 -51 5.5 -87t19.5 -58.5t36.5 -32.5t57.5 -10q34 0 57 10t37 32.5t19.5 57t5.5 84.5v485h93v-506zM391 822l-135 42l-135 -42v35l135 59l135 -59v-35z" />
    <glyph glyph-name="Udieresis" unicode="&#xdc;" horiz-adv-x="512" 
d="M43 0zM468 236q0 -57 -11 -102.5t-35.5 -77.5t-65.5 -49.5t-101 -17.5q-111 0 -161.5 63t-50.5 184v506h94v-481q0 -51 5.5 -87t19.5 -58.5t36.5 -32.5t57.5 -10q34 0 57 10t37 32.5t19.5 57t5.5 84.5v485h93v-506zM387 824h-70v114h70v-114zM202 824h-70v114h70v-114z
" />
    <glyph glyph-name="Yacute" unicode="&#xdd;" horiz-adv-x="481" 
d="M19 0zM462 680l-175 -400v-280h-93v278l-175 402v62h82l141 -366l141 366h79v-62zM380 860l-212 -30v35l212 51v-56z" />
    <glyph glyph-name="Thorn" unicode="&#xde;" horiz-adv-x="473" 
d="M141 602h110q103 0 154 -42t51 -140v-73q0 -46 -10.5 -84t-34.5 -65t-63 -42t-97 -15h-110v-141h-94v742h94v-140zM141 521v-300h72q43 0 72.5 7t46.5 23t24.5 42.5t7.5 66.5v17q0 40 -5.5 67.5t-20 44.5t-38 24.5t-59.5 7.5h-100z" />
    <glyph glyph-name="germandbls" unicode="&#xdf;" horiz-adv-x="480" 
d="M194 722q-34 0 -45.5 -13.5t-11.5 -47.5v-661h-91v664q0 29 4 53t14.5 41.5t29 27.5t46.5 10h173q34 0 55.5 -10t34 -30.5t17 -51.5t4.5 -72q0 -87 -20 -135t-68 -62q52 -10 82 -59t30 -130t-10 -129.5t-35 -74.5t-68 -34t-109 -8v71q40 0 65.5 6.5t40 25.5t20 54.5
t5.5 93.5q0 75 -28.5 109.5t-78.5 34.5h-24v70h23q24 0 41 7t28 23.5t16 43.5t5 67q0 36 -3.5 58.5t-10 35.5t-17 17.5t-24.5 4.5h-90z" />
    <glyph glyph-name="agrave" unicode="&#xe0;" horiz-adv-x="465" 
d="M26 0zM419 66q0 -15 12 -15h8v-51h-37q-33 0 -48.5 18t-17.5 47q-38 -24 -61.5 -38t-41 -21t-31 -9t-30.5 -2q-77 0 -111.5 52t-34.5 139q0 74 33 110.5t108 36.5h162q0 41 -4 69t-15.5 45t-33 24t-55.5 7q-33 0 -63.5 -7.5t-73.5 -20.5l-30 -9v60l28 14q27 13 48.5 22.5
t40 15.5t36 8.5t36.5 2.5q49 0 82.5 -13.5t54.5 -42.5t30 -75.5t9 -113.5v-253zM192 275q-42 0 -60 -21.5t-18 -67.5q0 -115 74 -115q13 0 25 1.5t27 6.5t35.5 15t52.5 27v154h-136zM331 642l-213 30v56l213 -51v-35z" />
    <glyph glyph-name="aacute" unicode="&#xe1;" horiz-adv-x="465" 
d="M26 0zM419 66q0 -15 12 -15h8v-51h-37q-33 0 -48.5 18t-17.5 47q-38 -24 -61.5 -38t-41 -21t-31 -9t-30.5 -2q-77 0 -111.5 52t-34.5 139q0 74 33 110.5t108 36.5h162q0 41 -4 69t-15.5 45t-33 24t-55.5 7q-33 0 -63.5 -7.5t-73.5 -20.5l-30 -9v60l28 14q27 13 48.5 22.5
t40 15.5t36 8.5t36.5 2.5q49 0 82.5 -13.5t54.5 -42.5t30 -75.5t9 -113.5v-253zM192 275q-42 0 -60 -21.5t-18 -67.5q0 -115 74 -115q13 0 25 1.5t27 6.5t35.5 15t52.5 27v154h-136zM378 672l-212 -30v35l212 51v-56z" />
    <glyph glyph-name="acircumflex" unicode="&#xe2;" horiz-adv-x="465" 
d="M26 0zM419 66q0 -15 12 -15h8v-51h-37q-33 0 -48.5 18t-17.5 47q-38 -24 -61.5 -38t-41 -21t-31 -9t-30.5 -2q-77 0 -111.5 52t-34.5 139q0 74 33 110.5t108 36.5h162q0 41 -4 69t-15.5 45t-33 24t-55.5 7q-33 0 -63.5 -7.5t-73.5 -20.5l-30 -9v60l28 14q27 13 48.5 22.5
t40 15.5t36 8.5t36.5 2.5q49 0 82.5 -13.5t54.5 -42.5t30 -75.5t9 -113.5v-253zM192 275q-42 0 -60 -21.5t-18 -67.5q0 -115 74 -115q13 0 25 1.5t27 6.5t35.5 15t52.5 27v154h-136zM371 634l-135 42l-135 -42v35l135 59l135 -59v-35z" />
    <glyph glyph-name="atilde" unicode="&#xe3;" horiz-adv-x="465" 
d="M26 0zM419 66q0 -15 12 -15h8v-51h-37q-33 0 -48.5 18t-17.5 47q-38 -24 -61.5 -38t-41 -21t-31 -9t-30.5 -2q-77 0 -111.5 52t-34.5 139q0 74 33 110.5t108 36.5h162q0 41 -4 69t-15.5 45t-33 24t-55.5 7q-33 0 -63.5 -7.5t-73.5 -20.5l-30 -9v60l28 14q27 13 48.5 22.5
t40 15.5t36 8.5t36.5 2.5q49 0 82.5 -13.5t54.5 -42.5t30 -75.5t9 -113.5v-253zM192 275q-42 0 -60 -21.5t-18 -67.5q0 -115 74 -115q13 0 25 1.5t27 6.5t35.5 15t52.5 27v154h-136zM370 680q-14 -18 -34.5 -25t-40.5 -7q-19 0 -33 4t-26.5 9t-25 9t-28.5 4
q-20 0 -36.5 -3.5t-44.5 -15.5v35q14 17 34.5 24t41.5 7q18 0 32 -4t26.5 -9t25.5 -9t29 -4q23 0 39.5 4t40.5 16v-35z" />
    <glyph glyph-name="adieresis" unicode="&#xe4;" horiz-adv-x="465" 
d="M26 0zM419 66q0 -15 12 -15h8v-51h-37q-33 0 -48.5 18t-17.5 47q-38 -24 -61.5 -38t-41 -21t-31 -9t-30.5 -2q-77 0 -111.5 52t-34.5 139q0 74 33 110.5t108 36.5h162q0 41 -4 69t-15.5 45t-33 24t-55.5 7q-33 0 -63.5 -7.5t-73.5 -20.5l-30 -9v60l28 14q27 13 48.5 22.5
t40 15.5t36 8.5t36.5 2.5q49 0 82.5 -13.5t54.5 -42.5t30 -75.5t9 -113.5v-253zM192 275q-42 0 -60 -21.5t-18 -67.5q0 -115 74 -115q13 0 25 1.5t27 6.5t35.5 15t52.5 27v154h-136zM364 636h-70v114h70v-114zM179 636h-70v114h70v-114z" />
    <glyph glyph-name="aring" unicode="&#xe5;" horiz-adv-x="465" 
d="M26 0zM419 66q0 -15 12 -15h8v-51h-37q-33 0 -48.5 18t-17.5 47q-38 -24 -61.5 -38t-41 -21t-31 -9t-30.5 -2q-77 0 -111.5 52t-34.5 139q0 74 33 110.5t108 36.5h162q0 41 -4 69t-15.5 45t-33 24t-55.5 7q-33 0 -63.5 -7.5t-73.5 -20.5l-30 -9v60l28 14q27 13 48.5 22.5
t40 15.5t36 8.5t36.5 2.5q49 0 82.5 -13.5t54.5 -42.5t30 -75.5t9 -113.5v-253zM192 275q-42 0 -60 -21.5t-18 -67.5q0 -115 74 -115q13 0 25 1.5t27 6.5t35.5 15t52.5 27v154h-136zM235 769q47 0 67.5 -25t20.5 -70t-20.5 -70t-67.5 -25q-48 0 -69 25t-21 70t21 70t69 25z
M235 737q-32 0 -45.5 -16.5t-13.5 -46.5t13.5 -46.5t45.5 -16.5q31 0 44 16.5t13 46.5t-13 46.5t-44 16.5z" />
    <glyph glyph-name="ae" unicode="&#xe6;" horiz-adv-x="753" 
d="M715 259h-296q0 -28 3.5 -60t15 -59.5t33.5 -45.5t60 -18q13 0 24 0.5t25.5 3.5t36 9t54.5 16l30 9v-61l-19 -10q-35 -18 -58 -28.5t-39.5 -16t-29.5 -7t-26 -1.5q-52 0 -96 20.5t-70 71.5q-39 -26 -66 -42.5t-48 -26.5t-38.5 -14t-38.5 -4q-77 0 -111.5 52t-34.5 139
q0 74 33 110.5t108 36.5h162q-1 32 -3.5 58.5t-13 46t-32 30t-59.5 10.5q-33 0 -63.5 -7.5t-73.5 -20.5l-30 -9v60l28 14q27 13 48.5 22.5t40 15.5t36 8.5t36.5 2.5q45 0 83 -22.5t56 -68.5q17 45 56 68t88 23q57 0 93.5 -18t58 -50.5t29.5 -77.5t8 -99v-60zM192 275
q-42 0 -60 -21.5t-18 -67.5q0 -115 74 -115q15 0 27.5 1.5t29 7t38.5 16t56 28.5q-5 26 -8 54.5t-3 58.5v38h-136zM627 335q0 78 -21.5 118.5t-80.5 40.5q-31 0 -51.5 -13t-32.5 -34.5t-16.5 -49t-4.5 -56.5v-23h207v17z" />
    <glyph glyph-name="ccedilla" unicode="&#xe7;" horiz-adv-x="445" 
d="M413 429h-71q-13 34 -40.5 46t-60.5 12q-35 0 -57.5 -11.5t-35.5 -34t-18 -55.5t-5 -75v-35q0 -46 5 -83t17.5 -63t35 -40t57.5 -14q13 0 24 0.5t25.5 3.5t36 9t54.5 16l30 9v-61l-19 -10q-32 -17 -54 -27t-38.5 -15.5t-28.5 -8t-24 -2.5l-6 -60q24 -4 42 -20t18 -51
q0 -42 -28 -59.5t-79 -18.5v35q35 1 49.5 11.5t14.5 34.5q0 23 -15 33.5t-38 11.5l10 84q-52 4 -86 25.5t-54 57t-28 83t-8 103.5v70q0 113 47.5 173.5t155.5 60.5q57 0 102 -17.5t70 -62.5v-55z" />
    <glyph glyph-name="egrave" unicode="&#xe8;" horiz-adv-x="461" 
d="M38 0zM424 259h-297q0 -29 3 -61t14.5 -59t34 -45t61.5 -18q13 0 24 0.5t25.5 3.5t36 9t54.5 16l30 9v-61l-19 -10q-35 -18 -58 -28.5t-39.5 -16t-29.5 -7t-26 -1.5q-61 0 -100 21t-61 58t-30.5 86t-8.5 105v70q0 114 46.5 174t150.5 60q57 0 93.5 -18t58 -50.5
t29.5 -77.5t8 -99v-60zM336 335q0 78 -21.5 118.5t-80.5 40.5q-54 0 -79.5 -36.5t-25.5 -116.5v-23h207v17zM326 642l-213 30v56l213 -51v-35z" />
    <glyph glyph-name="eacute" unicode="&#xe9;" horiz-adv-x="461" 
d="M38 0zM424 259h-297q0 -29 3 -61t14.5 -59t34 -45t61.5 -18q13 0 24 0.5t25.5 3.5t36 9t54.5 16l30 9v-61l-19 -10q-35 -18 -58 -28.5t-39.5 -16t-29.5 -7t-26 -1.5q-61 0 -100 21t-61 58t-30.5 86t-8.5 105v70q0 114 46.5 174t150.5 60q57 0 93.5 -18t58 -50.5
t29.5 -77.5t8 -99v-60zM336 335q0 78 -21.5 118.5t-80.5 40.5q-54 0 -79.5 -36.5t-25.5 -116.5v-23h207v17zM373 672l-212 -30v35l212 51v-56z" />
    <glyph glyph-name="ecircumflex" unicode="&#xea;" horiz-adv-x="461" 
d="M38 0zM424 259h-297q0 -29 3 -61t14.5 -59t34 -45t61.5 -18q13 0 24 0.5t25.5 3.5t36 9t54.5 16l30 9v-61l-19 -10q-35 -18 -58 -28.5t-39.5 -16t-29.5 -7t-26 -1.5q-61 0 -100 21t-61 58t-30.5 86t-8.5 105v70q0 114 46.5 174t150.5 60q57 0 93.5 -18t58 -50.5
t29.5 -77.5t8 -99v-60zM336 335q0 78 -21.5 118.5t-80.5 40.5q-54 0 -79.5 -36.5t-25.5 -116.5v-23h207v17zM366 634l-135 42l-135 -42v35l135 59l135 -59v-35z" />
    <glyph glyph-name="edieresis" unicode="&#xeb;" horiz-adv-x="461" 
d="M38 0zM424 259h-297q0 -29 3 -61t14.5 -59t34 -45t61.5 -18q13 0 24 0.5t25.5 3.5t36 9t54.5 16l30 9v-61l-19 -10q-35 -18 -58 -28.5t-39.5 -16t-29.5 -7t-26 -1.5q-61 0 -100 21t-61 58t-30.5 86t-8.5 105v70q0 114 46.5 174t150.5 60q57 0 93.5 -18t58 -50.5
t29.5 -77.5t8 -99v-60zM336 335q0 78 -21.5 118.5t-80.5 40.5q-54 0 -79.5 -36.5t-25.5 -116.5v-23h207v17zM359 636h-70v114h70v-114zM174 636h-70v114h70v-114z" />
    <glyph glyph-name="igrave" unicode="&#xec;" horiz-adv-x="201" 
d="M0 0zM194 642l-213 30v56l213 -51v-35zM138 68q0 -17 12 -17h10v-51h-79q-34 0 -34 38v516h91v-486z" />
    <glyph glyph-name="iacute" unicode="&#xed;" horiz-adv-x="201" 
d="M23 0zM235 672l-212 -30v35l212 51v-56zM138 68q0 -17 12 -17h10v-51h-79q-34 0 -34 38v516h91v-486z" />
    <glyph glyph-name="icircumflex" unicode="&#xee;" horiz-adv-x="201" 
d="M0 0zM138 68q0 -17 12 -17h10v-51h-79q-34 0 -34 38v516h91v-486zM229 634l-135 42l-135 -42v35l135 59l135 -59v-35z" />
    <glyph glyph-name="idieresis" unicode="&#xef;" horiz-adv-x="201" 
d="M0 0zM222 636h-70v114h70v-114zM37 636h-70v114h70v-114zM138 68q0 -17 12 -17h10v-51h-79q-34 0 -34 38v516h91v-486z" />
    <glyph glyph-name="eth" unicode="&#xf0;" horiz-adv-x="476" 
d="M420 760l-51 -45q21 -28 33.5 -62.5t19.5 -74t9.5 -84t2.5 -91.5v-148q0 -61 -8.5 -110t-31 -83t-61.5 -52t-100 -18q-57 0 -95 16t-61.5 46.5t-33.5 75t-10 100.5v33q0 63 8 112t29.5 82.5t59 50.5t95.5 17q13 0 24 -1t25 -5.5t32.5 -12.5t47.5 -21q-3 49 -14 94.5
t-34 79.5l-111 -99l-30 35l107 96q-20 14 -44.5 20t-50.5 11v53l46 21q32 -5 61.5 -15.5t53.5 -30.5l52 46zM343 262q0 39 -0.5 64.5t-1.5 42.5t-3 26.5t-4 17.5q-36 19 -54 25t-36 6q-36 0 -59.5 -11t-37 -33.5t-19 -55.5t-5.5 -78v-29q0 -81 23.5 -122.5t86.5 -41.5
q66 0 88 45.5t22 132.5v11z" />
    <glyph glyph-name="ntilde" unicode="&#xf1;" 
d="M45 0zM440 0h-91v351q0 37 -3 63t-15.5 42t-38 23t-70.5 7q-7 0 -13.5 -0.5t-16 -2t-23 -5.5t-33.5 -10v-468h-91v554h75l5 -31q35 15 55.5 23t32 12t16.5 5t9 1q70 0 110.5 -14.5t61 -42t25.5 -67t5 -89.5v-351zM364 680q-14 -18 -34.5 -25t-40.5 -7q-19 0 -33 4
t-26.5 9t-25 9t-28.5 4q-20 0 -36.5 -3.5t-44.5 -15.5v35q14 17 34.5 24t41.5 7q18 0 32 -4t26.5 -9t25.5 -9t29 -4q23 0 39.5 4t40.5 16v-35z" />
    <glyph glyph-name="ograve" unicode="&#xf2;" 
d="M38 0zM441 257q0 -61 -7 -110.5t-28 -84t-61 -53.5t-106 -19t-105.5 19t-60.5 53.5t-28 84t-7 110.5v40q0 61 7 110.5t28 84t60.5 53.5t105.5 19t106 -19t61 -53.5t28 -84t7 -110.5v-40zM349 315q0 41 -4.5 73t-16.5 53.5t-33.5 33t-55.5 11.5q-36 0 -58 -12.5
t-33.5 -37.5t-15 -62.5t-3.5 -86.5v-20q0 -49 3.5 -86.5t15 -62.5t33.5 -38t58 -13t58 13t33.5 38t15 62.5t3.5 86.5v48zM330 642l-213 30v56l213 -51v-35z" />
    <glyph glyph-name="oacute" unicode="&#xf3;" 
d="M38 0zM441 257q0 -61 -7 -110.5t-28 -84t-61 -53.5t-106 -19t-105.5 19t-60.5 53.5t-28 84t-7 110.5v40q0 61 7 110.5t28 84t60.5 53.5t105.5 19t106 -19t61 -53.5t28 -84t7 -110.5v-40zM349 315q0 41 -4.5 73t-16.5 53.5t-33.5 33t-55.5 11.5q-36 0 -58 -12.5
t-33.5 -37.5t-15 -62.5t-3.5 -86.5v-20q0 -49 3.5 -86.5t15 -62.5t33.5 -38t58 -13t58 13t33.5 38t15 62.5t3.5 86.5v48zM379 672l-212 -30v35l212 51v-56z" />
    <glyph glyph-name="ocircumflex" unicode="&#xf4;" 
d="M38 0zM441 257q0 -61 -7 -110.5t-28 -84t-61 -53.5t-106 -19t-105.5 19t-60.5 53.5t-28 84t-7 110.5v40q0 61 7 110.5t28 84t60.5 53.5t105.5 19t106 -19t61 -53.5t28 -84t7 -110.5v-40zM349 315q0 41 -4.5 73t-16.5 53.5t-33.5 33t-55.5 11.5q-36 0 -58 -12.5
t-33.5 -37.5t-15 -62.5t-3.5 -86.5v-20q0 -49 3.5 -86.5t15 -62.5t33.5 -38t58 -13t58 13t33.5 38t15 62.5t3.5 86.5v48zM374 634l-135 42l-135 -42v35l135 59l135 -59v-35z" />
    <glyph glyph-name="otilde" unicode="&#xf5;" 
d="M38 0zM441 257q0 -61 -7 -110.5t-28 -84t-61 -53.5t-106 -19t-105.5 19t-60.5 53.5t-28 84t-7 110.5v40q0 61 7 110.5t28 84t60.5 53.5t105.5 19t106 -19t61 -53.5t28 -84t7 -110.5v-40zM349 315q0 41 -4.5 73t-16.5 53.5t-33.5 33t-55.5 11.5q-36 0 -58 -12.5
t-33.5 -37.5t-15 -62.5t-3.5 -86.5v-20q0 -49 3.5 -86.5t15 -62.5t33.5 -38t58 -13t58 13t33.5 38t15 62.5t3.5 86.5v48zM373 680q-14 -18 -34.5 -25t-40.5 -7q-19 0 -33 4t-26.5 9t-25 9t-28.5 4q-20 0 -36.5 -3.5t-44.5 -15.5v35q14 17 34.5 24t41.5 7q18 0 32 -4t26.5 -9
t25.5 -9t29 -4q23 0 39.5 4t40.5 16v-35z" />
    <glyph glyph-name="odieresis" unicode="&#xf6;" 
d="M38 0zM441 257q0 -61 -7 -110.5t-28 -84t-61 -53.5t-106 -19t-105.5 19t-60.5 53.5t-28 84t-7 110.5v40q0 61 7 110.5t28 84t60.5 53.5t105.5 19t106 -19t61 -53.5t28 -84t7 -110.5v-40zM349 315q0 41 -4.5 73t-16.5 53.5t-33.5 33t-55.5 11.5q-36 0 -58 -12.5
t-33.5 -37.5t-15 -62.5t-3.5 -86.5v-20q0 -49 3.5 -86.5t15 -62.5t33.5 -38t58 -13t58 13t33.5 38t15 62.5t3.5 86.5v48zM364 636h-70v114h70v-114zM179 636h-70v114h70v-114z" />
    <glyph glyph-name="divide" unicode="&#xf7;" horiz-adv-x="505" 
d="M462 331h-419v64h419v-64zM292 105h-77v104h77v-104zM292 520h-77v104h77v-104z" />
    <glyph glyph-name="oslash" unicode="&#xf8;" 
d="M400 568l-21 -45q38 -33 50 -90.5t12 -135.5v-40q0 -61 -7 -110.5t-28 -84t-61 -53.5t-106 -19q-33 0 -59 5t-46 14l-18 -39h-37v16l21 44q-39 33 -50.5 91t-11.5 136v40q0 61 7 110.5t28 84t60.5 53.5t105.5 19q33 0 59.5 -5t46.5 -14l19 39h36v-16zM129 267
q0 -47 3 -82t13 -61l163 342q-26 20 -69 20q-36 0 -58 -12.5t-33.5 -37.5t-15 -62.5t-3.5 -86.5v-20zM171 86q23 -19 68 -19q36 0 58 13t33.5 38t15 62.5t3.5 86.5v48q0 35 -3.5 64t-11.5 50z" />
    <glyph glyph-name="ugrave" unicode="&#xf9;" horiz-adv-x="469" 
d="M39 0zM430 157q0 -90 -50 -128.5t-147 -38.5t-145.5 38.5t-48.5 128.5v397h90v-389q0 -53 27.5 -73t78.5 -20t78.5 20t27.5 73v389h89v-397zM329 642l-213 30v56l213 -51v-35z" />
    <glyph glyph-name="uacute" unicode="&#xfa;" horiz-adv-x="469" 
d="M39 0zM430 157q0 -90 -50 -128.5t-147 -38.5t-145.5 38.5t-48.5 128.5v397h90v-389q0 -53 27.5 -73t78.5 -20t78.5 20t27.5 73v389h89v-397zM376 672l-212 -30v35l212 51v-56z" />
    <glyph glyph-name="ucircumflex" unicode="&#xfb;" horiz-adv-x="469" 
d="M39 0zM430 157q0 -90 -50 -128.5t-147 -38.5t-145.5 38.5t-48.5 128.5v397h90v-389q0 -53 27.5 -73t78.5 -20t78.5 20t27.5 73v389h89v-397zM369 634l-135 42l-135 -42v35l135 59l135 -59v-35z" />
    <glyph glyph-name="udieresis" unicode="&#xfc;" horiz-adv-x="469" 
d="M39 0zM430 157q0 -90 -50 -128.5t-147 -38.5t-145.5 38.5t-48.5 128.5v397h90v-389q0 -53 27.5 -73t78.5 -20t78.5 20t27.5 73v389h89v-397zM362 636h-70v114h70v-114zM177 636h-70v114h70v-114z" />
    <glyph glyph-name="yacute" unicode="&#xfd;" horiz-adv-x="480" 
d="M25 0zM454 499l-241 -718h-90l70 213l-168 505v55h87l131 -439l132 439h79v-55zM379 672l-212 -30v35l212 51v-56z" />
    <glyph glyph-name="thorn" unicode="&#xfe;" horiz-adv-x="472" 
d="M137 524q28 14 45.5 22t28.5 12t18.5 5t15.5 1q70 0 109 -21.5t58 -59t23 -88.5t4 -109v-19q0 -66 -4.5 -118t-24 -87t-58.5 -53.5t-107 -18.5q-6 0 -12.5 1t-17.5 4.5t-29 11.5t-49 22v-248h-91v899l20 116h71v-272zM137 90q25 -8 40.5 -12.5t24 -6.5t12.5 -2.5t7 -0.5
q43 0 68.5 9.5t38.5 33.5t16.5 64t3.5 101q0 58 -2.5 98t-14.5 65t-37.5 36t-72.5 11q-6 0 -12 -0.5t-14.5 -2.5t-22 -6.5t-35.5 -12.5v-374z" />
    <glyph glyph-name="ydieresis" unicode="&#xff;" horiz-adv-x="480" 
d="M25 0zM454 499l-241 -718h-90l70 213l-168 505v55h87l131 -439l132 439h79v-55zM366 636h-70v114h70v-114zM181 636h-70v114h70v-114z" />
    <glyph glyph-name="Amacron" unicode="&#x100;" horiz-adv-x="484" 
d="M21 0zM463 72v-72h-86l-35 145h-205l-32 -145h-84v72l162 670h113zM149 224h181l-92 391zM369 863h-259v48h259v-48z" />
    <glyph glyph-name="amacron" unicode="&#x101;" horiz-adv-x="465" 
d="M26 0zM419 66q0 -15 12 -15h8v-51h-37q-33 0 -48.5 18t-17.5 47q-38 -24 -61.5 -38t-41 -21t-31 -9t-30.5 -2q-77 0 -111.5 52t-34.5 139q0 74 33 110.5t108 36.5h162q0 41 -4 69t-15.5 45t-33 24t-55.5 7q-33 0 -63.5 -7.5t-73.5 -20.5l-30 -9v60l28 14q27 13 48.5 22.5
t40 15.5t36 8.5t36.5 2.5q49 0 82.5 -13.5t54.5 -42.5t30 -75.5t9 -113.5v-253zM192 275q-42 0 -60 -21.5t-18 -67.5q0 -115 74 -115q13 0 25 1.5t27 6.5t35.5 15t52.5 27v154h-136zM365 675h-259v48h259v-48z" />
    <glyph glyph-name="Abreve" unicode="&#x102;" horiz-adv-x="484" 
d="M21 0zM463 72v-72h-86l-35 145h-205l-32 -145h-84v72l162 670h113zM149 224h181l-92 391zM372 893q-18 -30 -49.5 -51t-82.5 -21t-82.5 21t-50.5 51v30h41q12 -28 34 -45t58 -17q35 0 57 17t34 45h41v-30z" />
    <glyph glyph-name="abreve" unicode="&#x103;" horiz-adv-x="465" 
d="M26 0zM419 66q0 -15 12 -15h8v-51h-37q-33 0 -48.5 18t-17.5 47q-38 -24 -61.5 -38t-41 -21t-31 -9t-30.5 -2q-77 0 -111.5 52t-34.5 139q0 74 33 110.5t108 36.5h162q0 41 -4 69t-15.5 45t-33 24t-55.5 7q-33 0 -63.5 -7.5t-73.5 -20.5l-30 -9v60l28 14q27 13 48.5 22.5
t40 15.5t36 8.5t36.5 2.5q49 0 82.5 -13.5t54.5 -42.5t30 -75.5t9 -113.5v-253zM192 275q-42 0 -60 -21.5t-18 -67.5q0 -115 74 -115q13 0 25 1.5t27 6.5t35.5 15t52.5 27v154h-136zM368 705q-18 -30 -49.5 -51t-82.5 -21t-82.5 21t-50.5 51v30h41q12 -28 34 -45t58 -17
q35 0 57 17t34 45h41v-30z" />
    <glyph glyph-name="Aogonek" unicode="&#x104;" horiz-adv-x="478" 
d="M463 72v-72q-17 -32 -24 -49.5t-7 -31.5q0 -42 19.5 -59.5t59.5 -17.5h72v-61h-76q-22 0 -43 6.5t-37.5 20t-26.5 35.5t-10 52t10 56t25 49h-48l-35 145h-205l-32 -145h-84v72l162 670h113zM149 224h181l-92 391z" />
    <glyph glyph-name="aogonek" unicode="&#x105;" horiz-adv-x="449" 
d="M419 66q0 -15 12 -15h8v-51q-18 -32 -25 -49.5t-7 -31.5q0 -42 19.5 -59.5t59.5 -17.5h72v-61h-76q-22 0 -43 6.5t-37.5 20t-26.5 35.5t-10 52t10 56t25 49q-32 1 -47 18.5t-17 46.5q-38 -24 -61.5 -38t-41 -21t-31 -9t-30.5 -2q-77 0 -111.5 52t-34.5 139q0 74 33 110.5
t108 36.5h162q0 41 -4 69t-15.5 45t-33 24t-55.5 7q-33 0 -63.5 -7.5t-73.5 -20.5l-30 -9v60l28 14q27 13 48.5 22.5t40 15.5t36 8.5t36.5 2.5q49 0 82.5 -13.5t54.5 -42.5t30 -75.5t9 -113.5v-253zM192 275q-42 0 -60 -21.5t-18 -67.5q0 -115 74 -115q13 0 25 1.5t27 6.5
t35.5 15t52.5 27v154h-136z" />
    <glyph glyph-name="Cacute" unicode="&#x106;" horiz-adv-x="492" 
d="M39 0zM467 586h-80q-23 47 -54 64.5t-63 17.5q-75 0 -106 -49.5t-31 -154.5v-176q0 -43 6.5 -80t21.5 -64.5t40 -43t62 -15.5q22 0 36 1t30 4t37.5 9.5t57.5 17.5l36 11v-63l-46 -23q-28 -14 -49 -24t-38.5 -16t-33 -9t-33.5 -3q-58 0 -100 19.5t-69 55.5t-39.5 86.5
t-12.5 113.5v222q0 129 57 198t178 69q54 0 105 -22.5t88 -85.5v-60zM402 860l-212 -30v35l212 51v-56z" />
    <glyph glyph-name="cacute" unicode="&#x107;" horiz-adv-x="445" 
d="M38 0zM413 429h-71q-13 34 -40.5 46t-60.5 12q-35 0 -57.5 -11.5t-35.5 -34t-18 -55.5t-5 -75v-35q0 -46 5 -83t17.5 -63t35 -40t57.5 -14q13 0 24 0.5t25.5 3.5t36 9t54.5 16l30 9v-61l-19 -10q-35 -18 -58 -28.5t-39.5 -16t-29.5 -7t-26 -1.5q-60 0 -98.5 20t-61 56
t-31.5 85.5t-9 108.5v70q0 113 47.5 173.5t155.5 60.5q57 0 102 -17.5t70 -62.5v-55zM373 672l-212 -30v35l212 51v-56z" />
    <glyph glyph-name="Ccircumflex" unicode="&#x108;" horiz-adv-x="492" 
d="M39 0zM467 586h-80q-23 47 -54 64.5t-63 17.5q-75 0 -106 -49.5t-31 -154.5v-176q0 -43 6.5 -80t21.5 -64.5t40 -43t62 -15.5q22 0 36 1t30 4t37.5 9.5t57.5 17.5l36 11v-63l-46 -23q-28 -14 -49 -24t-38.5 -16t-33 -9t-33.5 -3q-58 0 -100 19.5t-69 55.5t-39.5 86.5
t-12.5 113.5v222q0 129 57 198t178 69q54 0 105 -22.5t88 -85.5v-60zM395 822l-135 42l-135 -42v35l135 59l135 -59v-35z" />
    <glyph glyph-name="ccircumflex" unicode="&#x109;" horiz-adv-x="445" 
d="M38 0zM413 429h-71q-13 34 -40.5 46t-60.5 12q-35 0 -57.5 -11.5t-35.5 -34t-18 -55.5t-5 -75v-35q0 -46 5 -83t17.5 -63t35 -40t57.5 -14q13 0 24 0.5t25.5 3.5t36 9t54.5 16l30 9v-61l-19 -10q-35 -18 -58 -28.5t-39.5 -16t-29.5 -7t-26 -1.5q-60 0 -98.5 20t-61 56
t-31.5 85.5t-9 108.5v70q0 113 47.5 173.5t155.5 60.5q57 0 102 -17.5t70 -62.5v-55zM366 634l-135 42l-135 -42v35l135 59l135 -59v-35z" />
    <glyph glyph-name="Cdotaccent" unicode="&#x10a;" horiz-adv-x="492" 
d="M39 0zM467 586h-80q-23 47 -54 64.5t-63 17.5q-75 0 -106 -49.5t-31 -154.5v-176q0 -43 6.5 -80t21.5 -64.5t40 -43t62 -15.5q22 0 36 1t30 4t37.5 9.5t57.5 17.5l36 11v-63l-46 -23q-28 -14 -49 -24t-38.5 -16t-33 -9t-33.5 -3q-58 0 -100 19.5t-69 55.5t-39.5 86.5
t-12.5 113.5v222q0 129 57 198t178 69q54 0 105 -22.5t88 -85.5v-60zM296 824h-70v114h70v-114z" />
    <glyph glyph-name="cdotaccent" unicode="&#x10b;" horiz-adv-x="445" 
d="M38 0zM413 429h-71q-13 34 -40.5 46t-60.5 12q-35 0 -57.5 -11.5t-35.5 -34t-18 -55.5t-5 -75v-35q0 -46 5 -83t17.5 -63t35 -40t57.5 -14q13 0 24 0.5t25.5 3.5t36 9t54.5 16l30 9v-61l-19 -10q-35 -18 -58 -28.5t-39.5 -16t-29.5 -7t-26 -1.5q-60 0 -98.5 20t-61 56
t-31.5 85.5t-9 108.5v70q0 113 47.5 173.5t155.5 60.5q57 0 102 -17.5t70 -62.5v-55zM269 636h-70v114h70v-114z" />
    <glyph glyph-name="Ccaron" unicode="&#x10c;" horiz-adv-x="492" 
d="M39 0zM467 586h-80q-23 47 -54 64.5t-63 17.5q-75 0 -106 -49.5t-31 -154.5v-176q0 -43 6.5 -80t21.5 -64.5t40 -43t62 -15.5q22 0 36 1t30 4t37.5 9.5t57.5 17.5l36 11v-63l-46 -23q-28 -14 -49 -24t-38.5 -16t-33 -9t-33.5 -3q-58 0 -100 19.5t-69 55.5t-39.5 86.5
t-12.5 113.5v222q0 129 57 198t178 69q54 0 105 -22.5t88 -85.5v-60zM395 876l-135 -59l-135 59v35l135 -41l135 41v-35z" />
    <glyph glyph-name="ccaron" unicode="&#x10d;" horiz-adv-x="445" 
d="M38 0zM413 429h-71q-13 34 -40.5 46t-60.5 12q-35 0 -57.5 -11.5t-35.5 -34t-18 -55.5t-5 -75v-35q0 -46 5 -83t17.5 -63t35 -40t57.5 -14q13 0 24 0.5t25.5 3.5t36 9t54.5 16l30 9v-61l-19 -10q-35 -18 -58 -28.5t-39.5 -16t-29.5 -7t-26 -1.5q-60 0 -98.5 20t-61 56
t-31.5 85.5t-9 108.5v70q0 113 47.5 173.5t155.5 60.5q57 0 102 -17.5t70 -62.5v-55zM366 688l-135 -59l-135 59v35l135 -41l135 41v-35z" />
    <glyph glyph-name="Dcaron" unicode="&#x10e;" horiz-adv-x="518" 
d="M47 0zM479 282q0 -71 -7.5 -123.5t-28 -88t-56 -53t-91.5 -17.5h-249v742h249q51 0 86 -20.5t56.5 -56t31 -82.5t9.5 -101v-200zM141 659v-575h132q33 0 54.5 11t34 35t17.5 62.5t5 94.5v193q0 88 -25 133.5t-90 45.5h-128zM387 876l-135 -59l-135 59v35l135 -41l135 41
v-35z" />
    <glyph glyph-name="dcaron" unicode="&#x10f;" horiz-adv-x="539" 
d="M34 0zM427 66q0 -15 12 -15h8v-51h-68q-17 0 -25 9.5t-10 24.5q-29 -14 -48 -21.5t-33 -11.5t-26 -5t-27 -1q-61 0 -96 25.5t-53 66.5t-22.5 93.5t-4.5 106.5q0 66 4.5 117.5t24 87t58 54t107.5 18.5q8 0 15.5 -1t19 -5t28.5 -12t45 -22v156l20 116h71v-730zM336 464
l-34.5 11.5t-22 6.5t-14.5 3t-13 1q-43 0 -68.5 -9.5t-38.5 -32.5t-16.5 -62t-3.5 -97q0 -52 3 -91t15 -64.5t37 -38.5t69 -13q11 0 30.5 5t56.5 21v360zM549 761q0 -24 -4 -45t-10 -38.5t-12.5 -29.5t-12.5 -18h-29v166h68v-35z" />
    <glyph glyph-name="Dcroat" unicode="&#x110;" horiz-adv-x="520" 
d="M8 0zM477 282q0 -71 -7.5 -123.5t-28 -88t-56 -53t-91.5 -17.5h-249v349h-37v85h37v308h249q51 0 86 -20.5t56.5 -56t31 -82.5t9.5 -101v-200zM139 659v-225h131v-85h-131v-265h132q33 0 54.5 11t34 35t17.5 62.5t5 94.5v193q0 88 -25 133.5t-90 45.5h-128z" />
    <glyph glyph-name="dcroat" unicode="&#x111;" horiz-adv-x="472" 
d="M471 675h-44v-609q0 -15 12 -15h8v-51h-68q-17 0 -25 9.5t-10 24.5q-29 -14 -48 -21.5t-33 -11.5t-26 -5t-27 -1q-61 0 -96 25.5t-53 66.5t-22.5 93.5t-4.5 106.5q0 66 4.5 117.5t24 87t58 54t107.5 18.5q8 0 15.5 -1t19 -5t28.5 -12t45 -22v151h-207v48h214l13 73h71
v-73h44v-48zM336 464l-34.5 11.5t-22 6.5t-14.5 3t-13 1q-43 0 -68.5 -9.5t-38.5 -32.5t-16.5 -62t-3.5 -97q0 -52 3 -91t15 -64.5t37 -38.5t69 -13q11 0 30.5 5t56.5 21v360z" />
    <glyph glyph-name="Emacron" unicode="&#x112;" horiz-adv-x="432" 
d="M47 0zM394 658h-253v-224h246v-85h-246v-266h255v-83h-349v742h347v-84zM345 863h-259v48h259v-48z" />
    <glyph glyph-name="emacron" unicode="&#x113;" horiz-adv-x="461" 
d="M38 0zM424 259h-297q0 -29 3 -61t14.5 -59t34 -45t61.5 -18q13 0 24 0.5t25.5 3.5t36 9t54.5 16l30 9v-61l-19 -10q-35 -18 -58 -28.5t-39.5 -16t-29.5 -7t-26 -1.5q-61 0 -100 21t-61 58t-30.5 86t-8.5 105v70q0 114 46.5 174t150.5 60q57 0 93.5 -18t58 -50.5
t29.5 -77.5t8 -99v-60zM336 335q0 78 -21.5 118.5t-80.5 40.5q-54 0 -79.5 -36.5t-25.5 -116.5v-23h207v17zM361 675h-259v48h259v-48z" />
    <glyph glyph-name="Ebreve" unicode="&#x114;" horiz-adv-x="432" 
d="M47 0zM394 658h-253v-224h246v-85h-246v-266h255v-83h-349v742h347v-84zM349 893q-18 -30 -49.5 -51t-82.5 -21t-82.5 21t-50.5 51v30h41q12 -28 34 -45t58 -17q35 0 57 17t34 45h41v-30z" />
    <glyph glyph-name="ebreve" unicode="&#x115;" horiz-adv-x="461" 
d="M38 0zM424 259h-297q0 -29 3 -61t14.5 -59t34 -45t61.5 -18q13 0 24 0.5t25.5 3.5t36 9t54.5 16l30 9v-61l-19 -10q-35 -18 -58 -28.5t-39.5 -16t-29.5 -7t-26 -1.5q-61 0 -100 21t-61 58t-30.5 86t-8.5 105v70q0 114 46.5 174t150.5 60q57 0 93.5 -18t58 -50.5
t29.5 -77.5t8 -99v-60zM336 335q0 78 -21.5 118.5t-80.5 40.5q-54 0 -79.5 -36.5t-25.5 -116.5v-23h207v17zM364 705q-18 -30 -49.5 -51t-82.5 -21t-82.5 21t-50.5 51v30h41q12 -28 34 -45t58 -17q35 0 57 17t34 45h41v-30z" />
    <glyph glyph-name="Edotaccent" unicode="&#x116;" horiz-adv-x="432" 
d="M47 0zM394 658h-253v-224h246v-85h-246v-266h255v-83h-349v742h347v-84zM254 824h-70v114h70v-114z" />
    <glyph glyph-name="edotaccent" unicode="&#x117;" horiz-adv-x="461" 
d="M38 0zM424 259h-297q0 -29 3 -61t14.5 -59t34 -45t61.5 -18q13 0 24 0.5t25.5 3.5t36 9t54.5 16l30 9v-61l-19 -10q-35 -18 -58 -28.5t-39.5 -16t-29.5 -7t-26 -1.5q-61 0 -100 21t-61 58t-30.5 86t-8.5 105v70q0 114 46.5 174t150.5 60q57 0 93.5 -18t58 -50.5
t29.5 -77.5t8 -99v-60zM336 335q0 78 -21.5 118.5t-80.5 40.5q-54 0 -79.5 -36.5t-25.5 -116.5v-23h207v17zM267 636h-70v114h70v-114z" />
    <glyph glyph-name="Eogonek" unicode="&#x118;" horiz-adv-x="425" 
d="M394 658h-253v-224h246v-85h-246v-266h255v-83q-17 -31 -24 -47.5t-7 -30.5q0 -44 18.5 -62t60.5 -18h72v-61h-76q-22 0 -43 6.5t-37.5 20t-26.5 35.5t-10 52t10 56t25 49h-311v742h347v-84z" />
    <glyph glyph-name="eogonek" unicode="&#x119;" horiz-adv-x="454" 
d="M424 259h-297q0 -29 3 -61t14.5 -59t34 -45t61.5 -18q13 0 24 0.5t25.5 3.5t36 9t54.5 16l30 9v-61l-16 -9q-17 -33 -27.5 -54t-16.5 -34.5t-8 -21.5t-2 -15q0 -42 19.5 -59.5t59.5 -17.5h72v-61h-76q-22 0 -43 6.5t-37.5 20t-26.5 35.5t-10 52t11 58.5t33 64.5
q-20 -9 -35 -14.5t-27 -8.5t-22 -4t-20 -1q-61 0 -100 21t-61 58t-30.5 86t-8.5 105v70q0 114 46.5 174t150.5 60q57 0 93.5 -18t58 -50.5t29.5 -77.5t8 -99v-60zM336 335q0 78 -21.5 118.5t-80.5 40.5q-54 0 -79.5 -36.5t-25.5 -116.5v-23h207v17z" />
    <glyph glyph-name="Ecaron" unicode="&#x11a;" horiz-adv-x="432" 
d="M47 0zM394 658h-253v-224h246v-85h-246v-266h255v-83h-349v742h347v-84zM351 876l-135 -59l-135 59v35l135 -41l135 41v-35z" />
    <glyph glyph-name="ecaron" unicode="&#x11b;" horiz-adv-x="461" 
d="M38 0zM424 259h-297q0 -29 3 -61t14.5 -59t34 -45t61.5 -18q13 0 24 0.5t25.5 3.5t36 9t54.5 16l30 9v-61l-19 -10q-35 -18 -58 -28.5t-39.5 -16t-29.5 -7t-26 -1.5q-61 0 -100 21t-61 58t-30.5 86t-8.5 105v70q0 114 46.5 174t150.5 60q57 0 93.5 -18t58 -50.5
t29.5 -77.5t8 -99v-60zM336 335q0 78 -21.5 118.5t-80.5 40.5q-54 0 -79.5 -36.5t-25.5 -116.5v-23h207v17zM366 688l-135 -59l-135 59v35l135 -41l135 41v-35z" />
    <glyph glyph-name="Gcircumflex" unicode="&#x11c;" horiz-adv-x="510" 
d="M39 0zM470 586h-80q-23 46 -56 64t-64 18q-78 0 -107.5 -50.5t-29.5 -153.5v-176q0 -43 6 -80.5t21 -65t39.5 -43.5t60.5 -16q26 0 53 8.5t77 31.5v210l-107 15v54h193v-328q-48 -25 -80.5 -41.5t-56.5 -26t-42.5 -13t-39.5 -3.5q-58 0 -99 19.5t-67.5 55.5t-39 86.5
t-12.5 113.5v222q0 129 57 198t178 69q27 0 54 -5t52.5 -17.5t48.5 -33.5t41 -52v-60zM399 822l-135 42l-135 -42v35l135 59l135 -59v-35z" />
    <glyph glyph-name="gcircumflex" unicode="&#x11d;" horiz-adv-x="472" 
d="M34 0zM235 25q-71 0 -111 17t-60 49.5t-25 80t-5 108.5q0 52 4 103t23 91.5t57.5 65t106.5 24.5q13 0 25.5 -1t28 -3t36 -6t50.5 -11l62 -14v-478q0 -52 -7.5 -100.5t-29 -86t-60 -60.5t-100.5 -23q-14 0 -26.5 1.5t-29 7t-40 16t-57.5 28.5l-19 10v61l30 -9
q33 -10 54.5 -16t36 -9t25.5 -3.5t24 -0.5q37 0 58.5 15.5t33 41t14.5 57t3 63.5v16q-32 -13 -51 -20t-29.5 -10.5t-14.5 -4t-7 -0.5zM312 475q-27 5 -40 6.5t-18 3.5q-45 0 -70.5 -12t-38.5 -37t-16.5 -63t-3.5 -90q0 -55 4 -90.5t18 -56.5t42 -29t75 -8q3 0 7.5 0.5
t12.5 2t20 5t32 9.5v354zM371 634l-135 42l-135 -42v35l135 59l135 -59v-35z" />
    <glyph glyph-name="Gbreve" unicode="&#x11e;" horiz-adv-x="510" 
d="M39 0zM470 586h-80q-23 46 -56 64t-64 18q-78 0 -107.5 -50.5t-29.5 -153.5v-176q0 -43 6 -80.5t21 -65t39.5 -43.5t60.5 -16q26 0 53 8.5t77 31.5v210l-107 15v54h193v-328q-48 -25 -80.5 -41.5t-56.5 -26t-42.5 -13t-39.5 -3.5q-58 0 -99 19.5t-67.5 55.5t-39 86.5
t-12.5 113.5v222q0 129 57 198t178 69q27 0 54 -5t52.5 -17.5t48.5 -33.5t41 -52v-60zM396 893q-18 -30 -49.5 -51t-82.5 -21t-82.5 21t-50.5 51v30h41q12 -28 34 -45t58 -17q35 0 57 17t34 45h41v-30z" />
    <glyph glyph-name="gbreve" unicode="&#x11f;" horiz-adv-x="472" 
d="M34 0zM235 25q-71 0 -111 17t-60 49.5t-25 80t-5 108.5q0 52 4 103t23 91.5t57.5 65t106.5 24.5q13 0 25.5 -1t28 -3t36 -6t50.5 -11l62 -14v-478q0 -52 -7.5 -100.5t-29 -86t-60 -60.5t-100.5 -23q-14 0 -26.5 1.5t-29 7t-40 16t-57.5 28.5l-19 10v61l30 -9
q33 -10 54.5 -16t36 -9t25.5 -3.5t24 -0.5q37 0 58.5 15.5t33 41t14.5 57t3 63.5v16q-32 -13 -51 -20t-29.5 -10.5t-14.5 -4t-7 -0.5zM312 475q-27 5 -40 6.5t-18 3.5q-45 0 -70.5 -12t-38.5 -37t-16.5 -63t-3.5 -90q0 -55 4 -90.5t18 -56.5t42 -29t75 -8q3 0 7.5 0.5
t12.5 2t20 5t32 9.5v354zM368 705q-18 -30 -49.5 -51t-82.5 -21t-82.5 21t-50.5 51v30h41q12 -28 34 -45t58 -17q35 0 57 17t34 45h41v-30z" />
    <glyph glyph-name="Gdotaccent" unicode="&#x120;" horiz-adv-x="510" 
d="M39 0zM470 586h-80q-23 46 -56 64t-64 18q-78 0 -107.5 -50.5t-29.5 -153.5v-176q0 -43 6 -80.5t21 -65t39.5 -43.5t60.5 -16q26 0 53 8.5t77 31.5v210l-107 15v54h193v-328q-48 -25 -80.5 -41.5t-56.5 -26t-42.5 -13t-39.5 -3.5q-58 0 -99 19.5t-67.5 55.5t-39 86.5
t-12.5 113.5v222q0 129 57 198t178 69q27 0 54 -5t52.5 -17.5t48.5 -33.5t41 -52v-60zM298 824h-70v114h70v-114z" />
    <glyph glyph-name="gdotaccent" unicode="&#x121;" horiz-adv-x="472" 
d="M34 0zM235 25q-71 0 -111 17t-60 49.5t-25 80t-5 108.5q0 52 4 103t23 91.5t57.5 65t106.5 24.5q13 0 25.5 -1t28 -3t36 -6t50.5 -11l62 -14v-478q0 -52 -7.5 -100.5t-29 -86t-60 -60.5t-100.5 -23q-14 0 -26.5 1.5t-29 7t-40 16t-57.5 28.5l-19 10v61l30 -9
q33 -10 54.5 -16t36 -9t25.5 -3.5t24 -0.5q37 0 58.5 15.5t33 41t14.5 57t3 63.5v16q-32 -13 -51 -20t-29.5 -10.5t-14.5 -4t-7 -0.5zM312 475q-27 5 -40 6.5t-18 3.5q-45 0 -70.5 -12t-38.5 -37t-16.5 -63t-3.5 -90q0 -55 4 -90.5t18 -56.5t42 -29t75 -8q3 0 7.5 0.5
t12.5 2t20 5t32 9.5v354zM277 636h-70v114h70v-114z" />
    <glyph glyph-name="Gcommaaccent" unicode="&#x122;" horiz-adv-x="510" 
d="M39 0zM470 586h-80q-23 46 -56 64t-64 18q-78 0 -107.5 -50.5t-29.5 -153.5v-176q0 -43 6 -80.5t21 -65t39.5 -43.5t60.5 -16q26 0 53 8.5t77 31.5v210l-107 15v54h193v-328q-48 -25 -80.5 -41.5t-56.5 -26t-42.5 -13t-39.5 -3.5q-58 0 -99 19.5t-67.5 55.5t-39 86.5
t-12.5 113.5v222q0 129 57 198t178 69q27 0 54 -5t52.5 -17.5t48.5 -33.5t41 -52v-60zM310 -88q0 -24 -4 -45t-10 -38.5t-12.5 -29.5t-12.5 -18h-29v166h68v-35z" />
    <glyph glyph-name="gcommaaccent" unicode="&#x123;" horiz-adv-x="472" 
d="M34 0zM235 25q-71 0 -111 17t-60 49.5t-25 80t-5 108.5q0 52 4 103t23 91.5t57.5 65t106.5 24.5q13 0 25.5 -1t28 -3t36 -6t50.5 -11l62 -14v-478q0 -52 -7.5 -100.5t-29 -86t-60 -60.5t-100.5 -23q-14 0 -26.5 1.5t-29 7t-40 16t-57.5 28.5l-19 10v61l30 -9
q33 -10 54.5 -16t36 -9t25.5 -3.5t24 -0.5q37 0 58.5 15.5t33 41t14.5 57t3 63.5v16q-32 -13 -51 -20t-29.5 -10.5t-14.5 -4t-7 -0.5zM312 475q-27 5 -40 6.5t-18 3.5q-45 0 -70.5 -12t-38.5 -37t-16.5 -63t-3.5 -90q0 -55 4 -90.5t18 -56.5t42 -29t75 -8q3 0 7.5 0.5
t12.5 2t20 5t32 9.5v354zM290 761q0 -24 -4 -45t-10 -38.5t-12.5 -29.5t-12.5 -18h-29v166h68v-35z" />
    <glyph glyph-name="Hcircumflex" unicode="&#x124;" horiz-adv-x="506" 
d="M47 0zM459 0h-93v343h-224v-343h-95v742h95v-316h224v316h93v-742zM387 822l-135 42l-135 -42v35l135 59l135 -59v-35z" />
    <glyph glyph-name="hcircumflex" unicode="&#x125;" 
d="M0 0zM137 528q31 13 49 20t28.5 10.5t15.5 4.5t9 1q58 0 97 -11t62 -35.5t32.5 -65.5t9.5 -101v-351h-91v351q0 37 -4.5 63t-18 42t-37.5 23t-64 7q-8 0 -15 -0.5t-16.5 -2t-23 -5.5t-33.5 -10v-468h-91v680l20 116h71v-268zM229 822l-135 42l-135 -42v35l135 59l135 -59
v-35z" />
    <glyph glyph-name="Hbar" unicode="&#x126;" horiz-adv-x="506" 
d="M459 0h-93v343h-224v-343h-95v742h95v-130h224v130h93v-742zM366 426v125h-224v-125h224z" />
    <glyph glyph-name="hbar" unicode="&#x127;" horiz-adv-x="477" 
d="M342 675h-208v-147q31 13 49 20t28.5 10.5t15.5 4.5t9 1q58 0 97 -11t62 -35.5t32.5 -65.5t9.5 -101v-351h-91v351q0 37 -4.5 63t-18 42t-37.5 23t-64 7q-8 0 -15 -0.5t-16.5 -2t-23 -5.5t-33.5 -10v-468h-91v675h-43v48h50l13 73h71v-73h208v-48z" />
    <glyph glyph-name="Itilde" unicode="&#x128;" horiz-adv-x="197" 
d="M0 0zM145 0h-93v742h93v-742zM234 868q-14 -18 -34.5 -25t-40.5 -7q-19 0 -33 4t-26.5 9t-25 9t-28.5 4q-20 0 -36.5 -3.5t-44.5 -15.5v35q14 17 34.5 24t41.5 7q18 0 32 -4t26.5 -9t25.5 -9t29 -4q23 0 39.5 4t40.5 16v-35z" />
    <glyph glyph-name="itilde" unicode="&#x129;" horiz-adv-x="201" 
d="M0 0zM229 680q-14 -18 -34.5 -25t-40.5 -7q-19 0 -33 4t-26.5 9t-25 9t-28.5 4q-20 0 -36.5 -3.5t-44.5 -15.5v35q14 17 34.5 24t41.5 7q18 0 32 -4t26.5 -9t25.5 -9t29 -4q23 0 39.5 4t40.5 16v-35zM138 68q0 -17 12 -17h10v-51h-79q-34 0 -34 38v516h91v-486z" />
    <glyph glyph-name="uni012A" unicode="&#x12a;" horiz-adv-x="197" 
d="M0 0zM145 0h-93v742h93v-742zM229 863h-259v48h259v-48z" />
    <glyph glyph-name="imacron" unicode="&#x12b;" horiz-adv-x="201" 
d="M0 0zM224 675h-259v48h259v-48zM138 68q0 -17 12 -17h10v-51h-79q-34 0 -34 38v516h91v-486z" />
    <glyph glyph-name="Ibreve" unicode="&#x12c;" horiz-adv-x="197" 
d="M0 0zM145 0h-93v742h93v-742zM232 893q-18 -30 -49.5 -51t-82.5 -21t-82.5 21t-50.5 51v30h41q12 -28 34 -45t58 -17q35 0 57 17t34 45h41v-30z" />
    <glyph glyph-name="uni012D" unicode="&#x12d;" horiz-adv-x="201" 
d="M0 0zM227 705q-18 -30 -49.5 -51t-82.5 -21t-82.5 21t-50.5 51v30h41q12 -28 34 -45t58 -17q35 0 57 17t34 45h41v-30zM138 68q0 -17 12 -17h10v-51h-79q-34 0 -34 38v516h91v-486z" />
    <glyph glyph-name="Iogonek" unicode="&#x12e;" horiz-adv-x="197" 
d="M52 742h93v-742h-55q-17 -31 -24 -47.5t-7 -30.5q0 -44 18.5 -62t60.5 -18h72v-61h-76q-22 0 -43 6.5t-37.5 20t-26.5 35.5t-10 52t10 56t25 49v742z" />
    <glyph glyph-name="iogonek" unicode="&#x12f;" horiz-adv-x="190" 
d="M140 68q0 -17 12 -17h10v-51q-17 -31 -24.5 -47.5t-7.5 -30.5q0 -44 18.5 -62t60.5 -18h72v-61h-76q-22 0 -43 6.5t-37.5 20t-26.5 35.5t-10 52t10 56t25 49h-40q-34 0 -34 38v516h91v-486zM140 706h-90v91h90v-91z" />
    <glyph glyph-name="Idotaccent" unicode="&#x130;" horiz-adv-x="197" 
d="M52 0zM145 0h-93v742h93v-742zM133 824h-70v114h70v-114z" />
    <glyph glyph-name="dotlessi" unicode="&#x131;" horiz-adv-x="201" 
d="M138 68q0 -17 12 -17h10v-51h-79q-34 0 -34 38v516h91v-486z" />
    <glyph glyph-name="IJ" unicode="&#x132;" horiz-adv-x="566" 
d="M52 0zM145 0h-93v742h93v-742zM519 197q0 -61 -7.5 -101t-24.5 -63.5t-45.5 -33t-70.5 -9.5q-32 0 -62.5 5.5t-65.5 24.5l-31 16v65l38 -13q10 -4 26 -6.5t39 -2.5q36 0 58 5.5t34 21.5t15.5 43t3.5 71v522h93v-545z" />
    <glyph glyph-name="ij" unicode="&#x133;" horiz-adv-x="384" 
d="M49 0zM140 68q0 -17 12 -17h10v-51h-79q-34 0 -34 38v516h91v-486zM140 706h-90v91h90v-91zM337 706h-91v91h91v-91zM337 -93q0 -27 -4 -50t-14.5 -40t-29 -26.5t-46.5 -9.5h-81v74h47q21 0 29 15t8 46v638h91v-647z" />
    <glyph glyph-name="Jcircumflex" unicode="&#x134;" horiz-adv-x="364" 
d="M10 0zM317 197q0 -61 -7.5 -101t-24.5 -63.5t-45.5 -33t-70.5 -9.5q-32 0 -62.5 5.5t-65.5 24.5l-31 16v65l38 -13q10 -4 26 -6.5t39 -2.5q36 0 58 5.5t34 21.5t15.5 43t3.5 71v522h93v-545zM350 822l-135 42l-135 -42v35l135 59l135 -59v-35z" />
    <glyph glyph-name="jcircumflex" unicode="&#x135;" horiz-adv-x="188" 
d="M141 -93q0 -27 -4 -50t-14.5 -40t-29 -26.5t-46.5 -9.5h-81v74h47q21 0 29 15t8 46v638h91v-647zM228 634l-135 42l-135 -42v35l135 59l135 -59v-35z" />
    <glyph glyph-name="Kcommaaccent" unicode="&#x136;" horiz-adv-x="482" 
d="M47 0zM449 682l-152 -262l165 -349v-71h-87l-158 363h-76v-363h-94v742h94v-304h75l159 304h74v-60zM283 -88q0 -24 -4 -45t-10 -38.5t-12.5 -29.5t-12.5 -18h-29v166h68v-35z" />
    <glyph glyph-name="kcommaaccent" unicode="&#x137;" horiz-adv-x="456" 
d="M47 0zM421 508l-121 -190l133 -262v-56h-83l-127 275h-85v-275h-91v680l20 116h71v-449h86l126 207h71v-46zM277 -88q0 -24 -4 -45t-10 -38.5t-12.5 -29.5t-12.5 -18h-29v166h68v-35z" />
    <glyph glyph-name="Lacute" unicode="&#x139;" horiz-adv-x="385" 
d="M20 0zM142 83h229v-83h-324v742h95v-659zM232 860l-212 -30v35l212 51v-56z" />
    <glyph glyph-name="lacute" unicode="&#x13a;" horiz-adv-x="185" 
d="M17 0zM137 68q0 -17 12 -17h10v-51h-79q-34 0 -34 38v642l20 116h71v-728zM229 860l-212 -30v35l212 51v-56z" />
    <glyph glyph-name="Lcommaaccent" unicode="&#x13b;" horiz-adv-x="385" 
d="M47 0zM142 83h229v-83h-324v742h95v-659zM229 -88q0 -24 -4 -45t-10 -38.5t-12.5 -29.5t-12.5 -18h-29v166h68v-35z" />
    <glyph glyph-name="lcommaaccent" unicode="&#x13c;" horiz-adv-x="185" 
d="M46 0zM137 68q0 -17 12 -17h10v-51h-79q-34 0 -34 38v642l20 116h71v-728zM136 -88q0 -24 -4 -45t-10 -38.5t-12.5 -29.5t-12.5 -18h-29v166h68v-35z" />
    <glyph glyph-name="Lcaron" unicode="&#x13d;" horiz-adv-x="385" 
d="M47 0zM142 83h229v-83h-324v742h95v-659zM336 707q0 -24 -4 -45t-10 -38.5t-12.5 -29.5t-12.5 -18h-29v166h68v-35z" />
    <glyph glyph-name="lcaron" unicode="&#x13e;" horiz-adv-x="254" 
d="M46 0zM137 68q0 -17 12 -17h10v-51h-79q-34 0 -34 38v642l20 116h71v-728zM265 761q0 -24 -4 -45t-10 -38.5t-12.5 -29.5t-12.5 -18h-29v166h68v-35z" />
    <glyph glyph-name="Ldot" unicode="&#x13f;" horiz-adv-x="385" 
d="M47 0zM142 83h229v-83h-324v742h95v-659zM303.148 360.584h-59.7051v80.3613h59.7051v-80.3613z" />
    <glyph glyph-name="ldot" unicode="&#x140;" horiz-adv-x="258" 
d="M46 0zM137 68q0 -17 12 -17h10v-51h-79q-34 0 -34 38v642l20 116h71v-728zM256.148 360.584h-59.7051v80.3613h59.7051v-80.3613z" />
    <glyph glyph-name="Lslash" unicode="&#x141;" horiz-adv-x="385" 
d="M142 390l145 63v-54l-145 -63v-253h229v-83h-324v742h95v-352z" />
    <glyph glyph-name="lslash" unicode="&#x142;" horiz-adv-x="193" 
d="M142 467l48 21v-53l-48 -21v-346q0 -17 12 -17h10v-51h-79q-34 0 -34 38v341l-40 -18v53l40 18v248l20 116h71v-329z" />
    <glyph glyph-name="Nacute" unicode="&#x143;" horiz-adv-x="548" 
d="M46 0zM501 0h-89l-283 542v-542h-83v742h88l285 -555v555h82v-742zM413 860l-212 -30v35l212 51v-56z" />
    <glyph glyph-name="nacute" unicode="&#x144;" 
d="M45 0zM440 0h-91v351q0 37 -3 63t-15.5 42t-38 23t-70.5 7q-7 0 -13.5 -0.5t-16 -2t-23 -5.5t-33.5 -10v-468h-91v554h75l5 -31q35 15 55.5 23t32 12t16.5 5t9 1q70 0 110.5 -14.5t61 -42t25.5 -67t5 -89.5v-351zM367 672l-212 -30v35l212 51v-56z" />
    <glyph glyph-name="Ncommaaccent" unicode="&#x145;" horiz-adv-x="548" 
d="M46 0zM501 0h-89l-283 542v-542h-83v742h88l285 -555v555h82v-742zM303 -88q0 -24 -4 -45t-10 -38.5t-12.5 -29.5t-12.5 -18h-29v166h68v-35z" />
    <glyph glyph-name="ncommaaccent" unicode="&#x146;" 
d="M45 0zM440 0h-91v351q0 37 -3 63t-15.5 42t-38 23t-70.5 7q-7 0 -13.5 -0.5t-16 -2t-23 -5.5t-33.5 -10v-468h-91v554h75l5 -31q35 15 55.5 23t32 12t16.5 5t9 1q70 0 110.5 -14.5t61 -42t25.5 -67t5 -89.5v-351zM274 -88q0 -24 -4 -45t-10 -38.5t-12.5 -29.5t-12.5 -18
h-29v166h68v-35z" />
    <glyph glyph-name="Ncaron" unicode="&#x147;" horiz-adv-x="548" 
d="M46 0zM501 0h-89l-283 542v-542h-83v742h88l285 -555v555h82v-742zM406 876l-135 -59l-135 59v35l135 -41l135 41v-35z" />
    <glyph glyph-name="ncaron" unicode="&#x148;" 
d="M45 0zM440 0h-91v351q0 37 -3 63t-15.5 42t-38 23t-70.5 7q-7 0 -13.5 -0.5t-16 -2t-23 -5.5t-33.5 -10v-468h-91v554h75l5 -31q35 15 55.5 23t32 12t16.5 5t9 1q70 0 110.5 -14.5t61 -42t25.5 -67t5 -89.5v-351zM365 688l-135 -59l-135 59v35l135 -41l135 41v-35z" />
    <glyph glyph-name="Eng" unicode="&#x14a;" horiz-adv-x="548" 
d="M501 -102q0 -24 -3.5 -45t-12 -37t-22 -25.5t-33.5 -9.5h-175v74h118q21 0 29 18.5t8 49.5v80l-281 539v-542h-83v742h88l285 -555v555h82v-844z" />
    <glyph glyph-name="eng" unicode="&#x14b;" 
d="M440 -102q0 -24 -3.5 -45t-12 -37t-22 -25.5t-33.5 -9.5h-153v74h96q20 0 28.5 19t8.5 50v396q0 40 -1.5 71t-13.5 52t-39 32t-78 11q-5 0 -10.5 -0.5t-14.5 -2t-22.5 -5.5t-33.5 -10v-468h-91v554h75l5 -31q35 15 55.5 23t32 12t16.5 5t9 1q70 0 110.5 -15t61 -44.5
t25.5 -73.5t5 -102v-431z" />
    <glyph glyph-name="Omacron" unicode="&#x14c;" horiz-adv-x="524" 
d="M39 0zM485 302q0 -63 -7 -120t-30 -99.5t-67 -67.5t-119 -25t-119 25t-67 67.5t-30 99.5t-7 120v138q0 64 7 121t30 99.5t67 67t119 24.5t119 -24.5t67 -67t30 -99.5t7 -121v-138zM389 427q0 60 -4 105t-17 75.5t-38 46t-68 15.5t-68 -15.5t-38 -46t-17 -75.5t-4 -105
v-112q0 -59 4 -104.5t17 -76.5t38 -46.5t68 -15.5t68 15.5t38 46.5t17 76.5t4 104.5v112zM391 863h-259v48h259v-48z" />
    <glyph glyph-name="omacron" unicode="&#x14d;" 
d="M38 0zM441 257q0 -61 -7 -110.5t-28 -84t-61 -53.5t-106 -19t-105.5 19t-60.5 53.5t-28 84t-7 110.5v40q0 61 7 110.5t28 84t60.5 53.5t105.5 19t106 -19t61 -53.5t28 -84t7 -110.5v-40zM349 315q0 41 -4.5 73t-16.5 53.5t-33.5 33t-55.5 11.5q-36 0 -58 -12.5
t-33.5 -37.5t-15 -62.5t-3.5 -86.5v-20q0 -49 3.5 -86.5t15 -62.5t33.5 -38t58 -13t58 13t33.5 38t15 62.5t3.5 86.5v48zM369 675h-259v48h259v-48z" />
    <glyph glyph-name="Obreve" unicode="&#x14e;" horiz-adv-x="524" 
d="M39 0zM485 302q0 -63 -7 -120t-30 -99.5t-67 -67.5t-119 -25t-119 25t-67 67.5t-30 99.5t-7 120v138q0 64 7 121t30 99.5t67 67t119 24.5t119 -24.5t67 -67t30 -99.5t7 -121v-138zM389 427q0 60 -4 105t-17 75.5t-38 46t-68 15.5t-68 -15.5t-38 -46t-17 -75.5t-4 -105
v-112q0 -59 4 -104.5t17 -76.5t38 -46.5t68 -15.5t68 15.5t38 46.5t17 76.5t4 104.5v112zM395 893q-18 -30 -49.5 -51t-82.5 -21t-82.5 21t-50.5 51v30h41q12 -28 34 -45t58 -17q35 0 57 17t34 45h41v-30z" />
    <glyph glyph-name="obreve" unicode="&#x14f;" 
d="M38 0zM441 257q0 -61 -7 -110.5t-28 -84t-61 -53.5t-106 -19t-105.5 19t-60.5 53.5t-28 84t-7 110.5v40q0 61 7 110.5t28 84t60.5 53.5t105.5 19t106 -19t61 -53.5t28 -84t7 -110.5v-40zM349 315q0 41 -4.5 73t-16.5 53.5t-33.5 33t-55.5 11.5q-36 0 -58 -12.5
t-33.5 -37.5t-15 -62.5t-3.5 -86.5v-20q0 -49 3.5 -86.5t15 -62.5t33.5 -38t58 -13t58 13t33.5 38t15 62.5t3.5 86.5v48zM372 705q-18 -30 -49.5 -51t-82.5 -21t-82.5 21t-50.5 51v30h41q12 -28 34 -45t58 -17q35 0 57 17t34 45h41v-30z" />
    <glyph glyph-name="Ohungarumlaut" unicode="&#x150;" horiz-adv-x="524" 
d="M39 0zM485 302q0 -63 -7 -120t-30 -99.5t-67 -67.5t-119 -25t-119 25t-67 67.5t-30 99.5t-7 120v138q0 64 7 121t30 99.5t67 67t119 24.5t119 -24.5t67 -67t30 -99.5t7 -121v-138zM389 427q0 60 -4 105t-17 75.5t-38 46t-68 15.5t-68 -15.5t-38 -46t-17 -75.5t-4 -105
v-112q0 -59 4 -104.5t17 -76.5t38 -46.5t68 -15.5t68 15.5t38 46.5t17 76.5t4 104.5v112zM167 813h-44l101 118h50zM294 813h-45l101 118h50z" />
    <glyph glyph-name="ohungarumlaut" unicode="&#x151;" 
d="M38 0zM441 257q0 -61 -7 -110.5t-28 -84t-61 -53.5t-106 -19t-105.5 19t-60.5 53.5t-28 84t-7 110.5v40q0 61 7 110.5t28 84t60.5 53.5t105.5 19t106 -19t61 -53.5t28 -84t7 -110.5v-40zM349 315q0 41 -4.5 73t-16.5 53.5t-33.5 33t-55.5 11.5q-36 0 -58 -12.5
t-33.5 -37.5t-15 -62.5t-3.5 -86.5v-20q0 -49 3.5 -86.5t15 -62.5t33.5 -38t58 -13t58 13t33.5 38t15 62.5t3.5 86.5v48zM144 625h-44l101 118h50zM271 625h-45l101 118h50z" />
    <glyph glyph-name="OE" unicode="&#x152;" horiz-adv-x="760" 
d="M721 658h-237v-224h231v-85h-231v-266h240v-83h-324v61q-43 -71 -138 -71q-75 0 -119 24.5t-67 67t-30 99.5t-7 121v138q0 64 7 121t30 99.5t67 67t119 24.5q54 0 86.5 -17.5t52.5 -48.5v56h320v-84zM389 439q0 57 -4.5 100.5t-18 72t-38.5 43t-66 14.5q-43 0 -68 -15.5
t-38 -46t-17 -75.5t-4 -105v-112q0 -59 4 -104.5t17 -76.5t38 -46.5t68 -15.5t68 15.5t38 46.5t17 76.5t4 104.5v124z" />
    <glyph glyph-name="oe" unicode="&#x153;" horiz-adv-x="772" 
d="M735 259h-297q0 -29 3 -61t14.5 -59t34 -45t61.5 -18q13 0 24 0.5t25.5 3.5t36 9t54.5 16l30 9v-61l-19 -10q-35 -18 -58 -28.5t-39.5 -16t-29.5 -7t-26 -1.5q-61 0 -97.5 23.5t-53.5 55.5q-18 -32 -56 -55.5t-103 -23.5q-66 0 -105.5 19t-60.5 53.5t-28 84t-7 110.5v40
q0 61 7 110.5t28 84t60.5 53.5t105.5 19q68 0 105 -24t53 -57q20 40 56 60.5t93 20.5t93.5 -18t58 -50.5t29.5 -77.5t8 -99v-60zM349 315q0 41 -4.5 73t-16.5 53.5t-33.5 33t-55.5 11.5q-36 0 -58 -12.5t-33.5 -37.5t-15 -62.5t-3.5 -86.5v-20q0 -49 3.5 -86.5t15 -62.5
t33.5 -38t58 -13t58 13t33.5 38t15 62.5t3.5 86.5v48zM647 335q0 78 -21.5 118.5t-80.5 40.5q-54 0 -79.5 -36.5t-25.5 -116.5v-23h207v17z" />
    <glyph glyph-name="Racute" unicode="&#x154;" horiz-adv-x="488" 
d="M47 0zM459 447q0 -60 -20.5 -102t-68.5 -63l89 -208v-74h-79l-99 264h-140v-264h-94v742h238q51 0 85 -14t53.5 -39.5t27.5 -62t8 -82.5v-97zM141 660v-318h79q50 0 80 6t45.5 25t20 53t4.5 90q0 76 -23 110t-88 34h-118zM383 860l-212 -30v35l212 51v-56z" />
    <glyph glyph-name="racute" unicode="&#x155;" horiz-adv-x="378" 
d="M45 0zM354 467h-59q-6 7 -18 10.5t-49 3.5q-18 0 -39.5 -5t-52.5 -15v-461h-91v554h75l5 -38q36 15 60.5 24t44.5 13t38 5t42 1q12 0 23 -1t21 -3v-88zM331 672l-212 -30v35l212 51v-56z" />
    <glyph glyph-name="Rcommaaccent" unicode="&#x156;" horiz-adv-x="488" 
d="M47 0zM459 447q0 -60 -20.5 -102t-68.5 -63l89 -208v-74h-79l-99 264h-140v-264h-94v742h238q51 0 85 -14t53.5 -39.5t27.5 -62t8 -82.5v-97zM141 660v-318h79q50 0 80 6t45.5 25t20 53t4.5 90q0 76 -23 110t-88 34h-118zM284 -88q0 -24 -4 -45t-10 -38.5t-12.5 -29.5
t-12.5 -18h-29v166h68v-35z" />
    <glyph glyph-name="rcommaaccent" unicode="&#x157;" horiz-adv-x="378" 
d="M45 0zM354 467h-59q-6 7 -18 10.5t-49 3.5q-18 0 -39.5 -5t-52.5 -15v-461h-91v554h75l5 -38q36 15 60.5 24t44.5 13t38 5t42 1q12 0 23 -1t21 -3v-88zM126 -88q0 -24 -4 -45t-10 -38.5t-12.5 -29.5t-12.5 -18h-29v166h68v-35z" />
    <glyph glyph-name="Rcaron" unicode="&#x158;" horiz-adv-x="488" 
d="M47 0zM459 447q0 -60 -20.5 -102t-68.5 -63l89 -208v-74h-79l-99 264h-140v-264h-94v742h238q51 0 85 -14t53.5 -39.5t27.5 -62t8 -82.5v-97zM141 660v-318h79q50 0 80 6t45.5 25t20 53t4.5 90q0 76 -23 110t-88 34h-118zM365 876l-135 -59l-135 59v35l135 -41l135 41
v-35z" />
    <glyph glyph-name="rcaron" unicode="&#x159;" horiz-adv-x="378" 
d="M45 0zM354 467h-59q-6 7 -18 10.5t-49 3.5q-18 0 -39.5 -5t-52.5 -15v-461h-91v554h75l5 -38q36 15 60.5 24t44.5 13t38 5t42 1q12 0 23 -1t21 -3v-88zM324 688l-135 -59l-135 59v35l135 -41l135 41v-35z" />
    <glyph glyph-name="Sacute" unicode="&#x15a;" horiz-adv-x="461" 
d="M29 0zM425 587h-75q-6 37 -35 57t-72 20q-19 0 -38.5 -2t-35.5 -11.5t-26.5 -29t-10.5 -53.5q0 -41 22 -65.5t55.5 -42.5t72.5 -35.5t72.5 -45t55.5 -70t22 -110.5q0 -42 -13.5 -80t-40 -66.5t-66 -45.5t-92.5 -17q-41 0 -73.5 11.5t-57 30.5t-39.5 44.5t-21 54.5v56h73
q11 -48 40 -74t85 -26q32 0 54.5 9t36.5 25.5t20 38.5t6 49q0 39 -14 64t-40 42q-30 21 -61 36t-59 29.5t-52.5 30t-42 37t-28 51.5t-10.5 73q0 88 47.5 134t157.5 46q68 0 118.5 -28t64.5 -77v-60zM380 860l-212 -30v35l212 51v-56z" />
    <glyph glyph-name="sacute" unicode="&#x15b;" horiz-adv-x="441" 
d="M34 0zM387 429h-72q-8 34 -34.5 51.5t-60.5 17.5q-18 0 -35.5 -3t-30.5 -10.5t-21 -22t-8 -36.5q0 -33 21 -52.5t52.5 -33t68 -26t68 -33t52.5 -52.5t21 -85q0 -68 -48 -111t-154 -43q-28 0 -54.5 7.5t-49.5 21t-40.5 33t-27.5 43.5v52h71q10 -40 39 -61.5t67 -21.5
q23 0 43.5 3.5t36.5 13t25 27t9 46.5q0 27 -14 45t-34.5 30t-43 19.5t-40.5 14.5q-36 14 -64 29.5t-47.5 34.5t-30 42.5t-10.5 53.5q0 67 42 104t138 37q57 0 100 -21t66 -62v-52zM360 672l-212 -30v35l212 51v-56z" />
    <glyph glyph-name="Scircumflex" unicode="&#x15c;" horiz-adv-x="461" 
d="M29 0zM425 587h-75q-6 37 -35 57t-72 20q-19 0 -38.5 -2t-35.5 -11.5t-26.5 -29t-10.5 -53.5q0 -41 22 -65.5t55.5 -42.5t72.5 -35.5t72.5 -45t55.5 -70t22 -110.5q0 -42 -13.5 -80t-40 -66.5t-66 -45.5t-92.5 -17q-41 0 -73.5 11.5t-57 30.5t-39.5 44.5t-21 54.5v56h73
q11 -48 40 -74t85 -26q32 0 54.5 9t36.5 25.5t20 38.5t6 49q0 39 -14 64t-40 42q-30 21 -61 36t-59 29.5t-52.5 30t-42 37t-28 51.5t-10.5 73q0 88 47.5 134t157.5 46q68 0 118.5 -28t64.5 -77v-60zM372 822l-135 42l-135 -42v35l135 59l135 -59v-35z" />
    <glyph glyph-name="scircumflex" unicode="&#x15d;" horiz-adv-x="441" 
d="M34 0zM387 429h-72q-8 34 -34.5 51.5t-60.5 17.5q-18 0 -35.5 -3t-30.5 -10.5t-21 -22t-8 -36.5q0 -33 21 -52.5t52.5 -33t68 -26t68 -33t52.5 -52.5t21 -85q0 -68 -48 -111t-154 -43q-28 0 -54.5 7.5t-49.5 21t-40.5 33t-27.5 43.5v52h71q10 -40 39 -61.5t67 -21.5
q23 0 43.5 3.5t36.5 13t25 27t9 46.5q0 27 -14 45t-34.5 30t-43 19.5t-40.5 14.5q-36 14 -64 29.5t-47.5 34.5t-30 42.5t-10.5 53.5q0 67 42 104t138 37q57 0 100 -21t66 -62v-52zM357 634l-135 42l-135 -42v35l135 59l135 -59v-35z" />
    <glyph glyph-name="Scedilla" unicode="&#x15e;" horiz-adv-x="461" 
d="M29 0zM425 587h-75q-6 37 -35 57t-72 20q-19 0 -38.5 -2t-35.5 -11.5t-26.5 -29t-10.5 -53.5q0 -41 22 -65.5t55.5 -42.5t72.5 -35.5t72.5 -45t55.5 -70t22 -110.5q0 -42 -13.5 -80t-40 -66.5t-66 -45.5t-92.5 -17q-41 0 -73.5 11.5t-57 30.5t-39.5 44.5t-21 54.5v56h73
q11 -48 40 -74t85 -26q32 0 54.5 9t36.5 25.5t20 38.5t6 49q0 39 -14 64t-40 42q-30 21 -61 36t-59 29.5t-52.5 30t-42 37t-28 51.5t-10.5 73q0 88 47.5 134t157.5 46q68 0 118.5 -28t64.5 -77v-60zM229 -70q24 -4 42 -20t18 -51q0 -42 -28 -59.5t-79 -18.5v35
q35 1 49.5 11.5t14.5 34.5q0 23 -15 33.5t-38 11.5l11 93h32z" />
    <glyph glyph-name="scedilla" unicode="&#x15f;" horiz-adv-x="441" 
d="M34 0zM387 429h-72q-8 34 -34.5 51.5t-60.5 17.5q-18 0 -35.5 -3t-30.5 -10.5t-21 -22t-8 -36.5q0 -33 21 -52.5t52.5 -33t68 -26t68 -33t52.5 -52.5t21 -85q0 -68 -48 -111t-154 -43q-28 0 -54.5 7.5t-49.5 21t-40.5 33t-27.5 43.5v52h71q10 -40 39 -61.5t67 -21.5
q23 0 43.5 3.5t36.5 13t25 27t9 46.5q0 27 -14 45t-34.5 30t-43 19.5t-40.5 14.5q-36 14 -64 29.5t-47.5 34.5t-30 42.5t-10.5 53.5q0 67 42 104t138 37q57 0 100 -21t66 -62v-52zM217 -70q24 -4 42 -20t18 -51q0 -42 -28 -59.5t-79 -18.5v35q35 1 49.5 11.5t14.5 34.5
q0 23 -15 33.5t-38 11.5l11 93h32z" />
    <glyph glyph-name="Scaron" unicode="&#x160;" horiz-adv-x="461" 
d="M29 0zM425 587h-75q-6 37 -35 57t-72 20q-19 0 -38.5 -2t-35.5 -11.5t-26.5 -29t-10.5 -53.5q0 -41 22 -65.5t55.5 -42.5t72.5 -35.5t72.5 -45t55.5 -70t22 -110.5q0 -42 -13.5 -80t-40 -66.5t-66 -45.5t-92.5 -17q-41 0 -73.5 11.5t-57 30.5t-39.5 44.5t-21 54.5v56h73
q11 -48 40 -74t85 -26q32 0 54.5 9t36.5 25.5t20 38.5t6 49q0 39 -14 64t-40 42q-30 21 -61 36t-59 29.5t-52.5 30t-42 37t-28 51.5t-10.5 73q0 88 47.5 134t157.5 46q68 0 118.5 -28t64.5 -77v-60zM371 876l-135 -59l-135 59v35l135 -41l135 41v-35z" />
    <glyph glyph-name="scaron" unicode="&#x161;" horiz-adv-x="441" 
d="M34 0zM387 429h-72q-8 34 -34.5 51.5t-60.5 17.5q-18 0 -35.5 -3t-30.5 -10.5t-21 -22t-8 -36.5q0 -33 21 -52.5t52.5 -33t68 -26t68 -33t52.5 -52.5t21 -85q0 -68 -48 -111t-154 -43q-28 0 -54.5 7.5t-49.5 21t-40.5 33t-27.5 43.5v52h71q10 -40 39 -61.5t67 -21.5
q23 0 43.5 3.5t36.5 13t25 27t9 46.5q0 27 -14 45t-34.5 30t-43 19.5t-40.5 14.5q-36 14 -64 29.5t-47.5 34.5t-30 42.5t-10.5 53.5q0 67 42 104t138 37q57 0 100 -21t66 -62v-52zM357 688l-135 -59l-135 59v35l135 -41l135 41v-35z" />
    <glyph glyph-name="Tcommaaccent" unicode="&#x162;" horiz-adv-x="434" 
d="M14 0zM420 658h-156v-658h-94v658h-156v84h406v-84zM252 -88q0 -24 -4 -45t-10 -38.5t-12.5 -29.5t-12.5 -18h-29v166h68v-35z" />
    <glyph glyph-name="tcommaaccent" unicode="&#x163;" horiz-adv-x="314" 
d="M16 0zM188 554h109v-68h-109v-486h-91v486h-81v68h84l27 171h61v-171zM178 -88q0 -24 -4 -45t-10 -38.5t-12.5 -29.5t-12.5 -18h-29v166h68v-35z" />
    <glyph glyph-name="Tcaron" unicode="&#x164;" horiz-adv-x="434" 
d="M14 0zM420 658h-156v-658h-94v658h-156v84h406v-84zM352 876l-135 -59l-135 59v35l135 -41l135 41v-35z" />
    <glyph glyph-name="tcaron" unicode="&#x165;" horiz-adv-x="332" 
d="M16 0zM188 554h109v-68h-109v-486h-91v486h-81v68h84l27 171h61v-171zM341 761q0 -24 -4 -45t-10 -38.5t-12.5 -29.5t-12.5 -18h-29v166h68v-35z" />
    <glyph glyph-name="Tbar" unicode="&#x166;" horiz-adv-x="434" 
d="M420 658h-156v-173h137v-66h-137v-419h-94v419h-135v66h135v173h-156v84h406v-84z" />
    <glyph glyph-name="tbar" unicode="&#x167;" horiz-adv-x="314" 
d="M296 302h-108v-302h-91v302h-79v58h79v126h-81v68h84l27 171h61v-171h109v-68h-109v-126h108v-58z" />
    <glyph glyph-name="Utilde" unicode="&#x168;" horiz-adv-x="512" 
d="M43 0zM468 236q0 -57 -11 -102.5t-35.5 -77.5t-65.5 -49.5t-101 -17.5q-111 0 -161.5 63t-50.5 184v506h94v-481q0 -51 5.5 -87t19.5 -58.5t36.5 -32.5t57.5 -10q34 0 57 10t37 32.5t19.5 57t5.5 84.5v485h93v-506zM390 868q-14 -18 -34.5 -25t-40.5 -7q-19 0 -33 4
t-26.5 9t-25 9t-28.5 4q-20 0 -36.5 -3.5t-44.5 -15.5v35q14 17 34.5 24t41.5 7q18 0 32 -4t26.5 -9t25.5 -9t29 -4q23 0 39.5 4t40.5 16v-35z" />
    <glyph glyph-name="utilde" unicode="&#x169;" horiz-adv-x="469" 
d="M39 0zM430 157q0 -90 -50 -128.5t-147 -38.5t-145.5 38.5t-48.5 128.5v397h90v-389q0 -53 27.5 -73t78.5 -20t78.5 20t27.5 73v389h89v-397zM369 680q-14 -18 -34.5 -25t-40.5 -7q-19 0 -33 4t-26.5 9t-25 9t-28.5 4q-20 0 -36.5 -3.5t-44.5 -15.5v35q14 17 34.5 24
t41.5 7q18 0 32 -4t26.5 -9t25.5 -9t29 -4q23 0 39.5 4t40.5 16v-35z" />
    <glyph glyph-name="Umacron" unicode="&#x16a;" horiz-adv-x="512" 
d="M43 0zM468 236q0 -57 -11 -102.5t-35.5 -77.5t-65.5 -49.5t-101 -17.5q-111 0 -161.5 63t-50.5 184v506h94v-481q0 -51 5.5 -87t19.5 -58.5t36.5 -32.5t57.5 -10q34 0 57 10t37 32.5t19.5 57t5.5 84.5v485h93v-506zM385 863h-259v48h259v-48z" />
    <glyph glyph-name="umacron" unicode="&#x16b;" horiz-adv-x="469" 
d="M39 0zM430 157q0 -90 -50 -128.5t-147 -38.5t-145.5 38.5t-48.5 128.5v397h90v-389q0 -53 27.5 -73t78.5 -20t78.5 20t27.5 73v389h89v-397zM363 675h-259v48h259v-48z" />
    <glyph glyph-name="Ubreve" unicode="&#x16c;" horiz-adv-x="512" 
d="M43 0zM468 236q0 -57 -11 -102.5t-35.5 -77.5t-65.5 -49.5t-101 -17.5q-111 0 -161.5 63t-50.5 184v506h94v-481q0 -51 5.5 -87t19.5 -58.5t36.5 -32.5t57.5 -10q34 0 57 10t37 32.5t19.5 57t5.5 84.5v485h93v-506zM388 893q-18 -30 -49.5 -51t-82.5 -21t-82.5 21
t-50.5 51v30h41q12 -28 34 -45t58 -17q35 0 57 17t34 45h41v-30z" />
    <glyph glyph-name="ubreve" unicode="&#x16d;" horiz-adv-x="469" 
d="M39 0zM430 157q0 -90 -50 -128.5t-147 -38.5t-145.5 38.5t-48.5 128.5v397h90v-389q0 -53 27.5 -73t78.5 -20t78.5 20t27.5 73v389h89v-397zM367 705q-18 -30 -49.5 -51t-82.5 -21t-82.5 21t-50.5 51v30h41q12 -28 34 -45t58 -17q35 0 57 17t34 45h41v-30z" />
    <glyph glyph-name="Uring" unicode="&#x16e;" horiz-adv-x="512" 
d="M43 0zM468 236q0 -57 -11 -102.5t-35.5 -77.5t-65.5 -49.5t-101 -17.5q-111 0 -161.5 63t-50.5 184v506h94v-481q0 -51 5.5 -87t19.5 -58.5t36.5 -32.5t57.5 -10q34 0 57 10t37 32.5t19.5 57t5.5 84.5v485h93v-506zM256 957q47 0 67.5 -25t20.5 -70t-20.5 -70t-67.5 -25
q-48 0 -69 25t-21 70t21 70t69 25zM256 925q-32 0 -45.5 -16.5t-13.5 -46.5t13.5 -46.5t45.5 -16.5q31 0 44 16.5t13 46.5t-13 46.5t-44 16.5z" />
    <glyph glyph-name="uring" unicode="&#x16f;" horiz-adv-x="469" 
d="M39 0zM430 157q0 -90 -50 -128.5t-147 -38.5t-145.5 38.5t-48.5 128.5v397h90v-389q0 -53 27.5 -73t78.5 -20t78.5 20t27.5 73v389h89v-397zM235 769q47 0 67.5 -25t20.5 -70t-20.5 -70t-67.5 -25q-48 0 -69 25t-21 70t21 70t69 25zM235 737q-32 0 -45.5 -16.5
t-13.5 -46.5t13.5 -46.5t45.5 -16.5q31 0 44 16.5t13 46.5t-13 46.5t-44 16.5z" />
    <glyph glyph-name="Uhungarumlaut" unicode="&#x170;" horiz-adv-x="512" 
d="M43 0zM468 236q0 -57 -11 -102.5t-35.5 -77.5t-65.5 -49.5t-101 -17.5q-111 0 -161.5 63t-50.5 184v506h94v-481q0 -51 5.5 -87t19.5 -58.5t36.5 -32.5t57.5 -10q34 0 57 10t37 32.5t19.5 57t5.5 84.5v485h93v-506zM179 813h-44l101 118h50zM306 813h-45l101 118h50z" />
    <glyph glyph-name="uhungarumlaut" unicode="&#x171;" horiz-adv-x="469" 
d="M39 0zM430 157q0 -90 -50 -128.5t-147 -38.5t-145.5 38.5t-48.5 128.5v397h90v-389q0 -53 27.5 -73t78.5 -20t78.5 20t27.5 73v389h89v-397zM158 625h-44l101 118h50zM285 625h-45l101 118h50z" />
    <glyph glyph-name="Uogonek" unicode="&#x172;" horiz-adv-x="512" 
d="M468 236q0 -91 -28.5 -151.5t-98.5 -83.5q-17 -32 -24 -50t-7 -32q0 -42 19.5 -59.5t59.5 -17.5h72v-61h-76q-22 0 -43 6.5t-37.5 20t-26.5 35.5t-10 52q0 28 8 52t21 45q-20 -3 -42 -3q-111 0 -161.5 63t-50.5 184v506h94v-481q0 -51 5.5 -87t19.5 -58.5t36.5 -32.5
t57.5 -10q34 0 57 10t37 32.5t19.5 57t5.5 84.5v485h93v-506v0z" />
    <glyph glyph-name="uogonek" unicode="&#x173;" horiz-adv-x="469" 
d="M430 157q0 -67 -27.5 -105t-81.5 -52q-17 -32 -24 -49.5t-7 -31.5q0 -42 19.5 -59.5t59.5 -17.5h72v-61h-76q-22 0 -43 6.5t-37.5 20t-26.5 35.5t-10 52q0 28 8 52t22 46q-21 -3 -45 -3q-97 0 -145.5 38.5t-48.5 128.5v397h90v-389q0 -53 27.5 -73t78.5 -20t78.5 20
t27.5 73v389h89v-397z" />
    <glyph glyph-name="Wcircumflex" unicode="&#x174;" horiz-adv-x="777" 
d="M21 0zM756 671l-141 -671h-113l-114 613l-115 -613h-114l-138 671v71h88l111 -619l113 619h114l112 -619l113 619h84v-71zM524 822l-135 42l-135 -42v35l135 59l135 -59v-35z" />
    <glyph glyph-name="wcircumflex" unicode="&#x175;" horiz-adv-x="730" 
d="M25 0zM705 500l-130 -500h-105l-106 456l-104 -456h-106l-129 500v54h82l103 -460l103 460h107l103 -460l104 460h78v-54zM500 634l-135 42l-135 -42v35l135 59l135 -59v-35z" />
    <glyph glyph-name="Ycircumflex" unicode="&#x176;" horiz-adv-x="481" 
d="M19 0zM462 680l-175 -400v-280h-93v278l-175 402v62h82l141 -366l141 366h79v-62zM376 822l-135 42l-135 -42v35l135 59l135 -59v-35z" />
    <glyph glyph-name="ycircumflex" unicode="&#x177;" horiz-adv-x="480" 
d="M25 0zM454 499l-241 -718h-90l70 213l-168 505v55h87l131 -439l132 439h79v-55zM375 634l-135 42l-135 -42v35l135 59l135 -59v-35z" />
    <glyph glyph-name="Ydieresis" unicode="&#x178;" horiz-adv-x="481" 
d="M19 0zM462 680l-175 -400v-280h-93v278l-175 402v62h82l141 -366l141 366h79v-62zM368 824h-70v114h70v-114zM183 824h-70v114h70v-114z" />
    <glyph glyph-name="Zacute" unicode="&#x179;" horiz-adv-x="452" 
d="M25 0zM412 679l-277 -596h289v-83h-399v65l279 593h-261v84h369v-63zM369 860l-212 -30v35l212 51v-56z" />
    <glyph glyph-name="zacute" unicode="&#x17a;" horiz-adv-x="416" 
d="M24 0zM376 494l-239 -416h252v-78h-365v61l240 416h-226v77h338v-60zM351 672l-212 -30v35l212 51v-56z" />
    <glyph glyph-name="Zdotaccent" unicode="&#x17b;" horiz-adv-x="452" 
d="M25 0zM412 679l-277 -596h289v-83h-399v65l279 593h-261v84h369v-63zM262 824h-70v114h70v-114z" />
    <glyph glyph-name="zdotaccent" unicode="&#x17c;" horiz-adv-x="416" 
d="M24 0zM376 494l-239 -416h252v-78h-365v61l240 416h-226v77h338v-60zM243 636h-70v114h70v-114z" />
    <glyph glyph-name="Zcaron" unicode="&#x17d;" horiz-adv-x="452" 
d="M25 0zM412 679l-277 -596h289v-83h-399v65l279 593h-261v84h369v-63zM362 876l-135 -59l-135 59v35l135 -41l135 41v-35z" />
    <glyph glyph-name="zcaron" unicode="&#x17e;" horiz-adv-x="416" 
d="M24 0zM376 494l-239 -416h252v-78h-365v61l240 416h-226v77h338v-60zM344 688l-135 -59l-135 59v35l135 -41l135 41v-35z" />
    <glyph glyph-name="florin" unicode="&#x192;" horiz-adv-x="331" 
d="M310 331h-99v-363q0 -24 -3.5 -45t-12 -37t-22 -25.5t-33.5 -9.5h-120v74h63q20 0 28.5 18.5t8.5 49.5v338h-100v64h100v230q0 24 3.5 45t11.5 37t22 25.5t34 9.5h119v-74h-62q-21 0 -29 -19t-8 -50v-204h99v-64z" />
    <glyph glyph-name="Scommaaccent" unicode="&#x218;" horiz-adv-x="461" 
d="M29 0zM425 587h-75q-6 37 -35 57t-72 20q-19 0 -38.5 -2t-35.5 -11.5t-26.5 -29t-10.5 -53.5q0 -41 22 -65.5t55.5 -42.5t72.5 -35.5t72.5 -45t55.5 -70t22 -110.5q0 -42 -13.5 -80t-40 -66.5t-66 -45.5t-92.5 -17q-41 0 -73.5 11.5t-57 30.5t-39.5 44.5t-21 54.5v56h73
q11 -48 40 -74t85 -26q32 0 54.5 9t36.5 25.5t20 38.5t6 49q0 39 -14 64t-40 42q-30 21 -61 36t-59 29.5t-52.5 30t-42 37t-28 51.5t-10.5 73q0 88 47.5 134t157.5 46q68 0 118.5 -28t64.5 -77v-60zM258 -88q0 -24 -4 -45t-10 -38.5t-12.5 -29.5t-12.5 -18h-29v166h68v-35z
" />
    <glyph glyph-name="scommaaccent" unicode="&#x219;" horiz-adv-x="441" 
d="M34 0zM387 429h-72q-8 34 -34.5 51.5t-60.5 17.5q-18 0 -35.5 -3t-30.5 -10.5t-21 -22t-8 -36.5q0 -33 21 -52.5t52.5 -33t68 -26t68 -33t52.5 -52.5t21 -85q0 -68 -48 -111t-154 -43q-28 0 -54.5 7.5t-49.5 21t-40.5 33t-27.5 43.5v52h71q10 -40 39 -61.5t67 -21.5
q23 0 43.5 3.5t36.5 13t25 27t9 46.5q0 27 -14 45t-34.5 30t-43 19.5t-40.5 14.5q-36 14 -64 29.5t-47.5 34.5t-30 42.5t-10.5 53.5q0 67 42 104t138 37q57 0 100 -21t66 -62v-52zM249 -88q0 -24 -4 -45t-10 -38.5t-12.5 -29.5t-12.5 -18h-29v166h68v-35z" />
    <glyph glyph-name="uni021A" unicode="&#x21a;" horiz-adv-x="428" 
d="M11 0zM417 658h-156v-658h-94v658h-156v84h406v-84zM248 -88q0 -24 -4 -45t-10 -38.5t-12.5 -29.5t-12.5 -18h-29v166h68v-35z" />
    <glyph glyph-name="uni021B" unicode="&#x21b;" horiz-adv-x="317" 
d="M16 0zM188 554h109v-68h-109v-486h-91v486h-81v68h84l27 171h61v-171zM177 -88q0 -24 -4 -45t-10 -38.5t-12.5 -29.5t-12.5 -18h-29v166h68v-35z" />
    <glyph glyph-name="circumflex" unicode="&#x2c6;" horiz-adv-x="366" 
d="M317 634l-135 42l-135 -42v35l135 59l135 -59v-35z" />
    <glyph glyph-name="caron" unicode="&#x2c7;" horiz-adv-x="366" 
d="M317 688l-135 -59l-135 59v35l135 -41l135 41v-35z" />
    <glyph glyph-name="breve" unicode="&#x2d8;" horiz-adv-x="360" 
d="M312 705q-18 -30 -49.5 -51t-82.5 -21t-82.5 21t-50.5 51v30h41q12 -28 34 -45t58 -17q35 0 57 17t34 45h41v-30z" />
    <glyph glyph-name="dotaccent" unicode="&#x2d9;" horiz-adv-x="156" 
d="M112 636h-70v114h70v-114z" />
    <glyph glyph-name="ring" unicode="&#x2da;" horiz-adv-x="274" 
d="M137 769q47 0 67.5 -25t20.5 -70t-20.5 -70t-67.5 -25q-48 0 -69 25t-21 70t21 70t69 25zM137 737q-32 0 -45.5 -16.5t-13.5 -46.5t13.5 -46.5t45.5 -16.5q31 0 44 16.5t13 46.5t-13 46.5t-44 16.5z" />
    <glyph glyph-name="ogonek" unicode="&#x2db;" horiz-adv-x="242" 
d="M84 -29q-6 -11 -11.5 -24.5t-4.5 -27.5q0 -42 19.5 -59.5t59.5 -17.5h72v-61h-76q-22 0 -43 6.5t-37.5 20t-26.5 35.5t-10 52t10 56t25 49h38z" />
    <glyph glyph-name="tilde" unicode="&#x2dc;" horiz-adv-x="365" 
d="M316 680q-14 -18 -34.5 -25t-40.5 -7q-19 0 -33 4t-26.5 9t-25 9t-28.5 4q-20 0 -36.5 -3.5t-44.5 -15.5v35q14 17 34.5 24t41.5 7q18 0 32 -4t26.5 -9t25.5 -9t29 -4q23 0 39.5 4t40.5 16v-35z" />
    <glyph glyph-name="hungarumlaut" unicode="&#x2dd;" horiz-adv-x="373" 
d="M105 625h-44l101 118h50zM232 625h-45l101 118h50z" />
    <glyph glyph-name="commaaccent" unicode="&#x326;" horiz-adv-x="147" 
d="M115 -88q0 -24 -4 -45t-10 -38.5t-12.5 -29.5t-12.5 -18h-29v166h68v-35z" />
    <glyph glyph-name="Delta" unicode="&#x394;" horiz-adv-x="488" 
d="M22 72l162 670h114l167 -670v-72h-443v72zM121 83h243l-124 530z" />
    <glyph glyph-name="Omega" unicode="&#x3a9;" horiz-adv-x="563" 
d="M532 0h-188l11 94l70 254v79q0 60 -4.5 105t-19.5 75.5t-43.5 46t-76.5 15.5t-76.5 -15t-43.5 -45t-19.5 -75.5t-4.5 -106.5v-79l70 -254l12 -94h-188v83h96l-86 263v94q0 64 7.5 121t32.5 99.5t72.5 67t127.5 24.5t127.5 -24.5t72.5 -67t32.5 -99.5t7.5 -121v-94
l-86 -263h97v-83z" />
    <glyph glyph-name="mu" unicode="&#x3bc;" horiz-adv-x="461" 
d="M408 141q0 -29 -7.5 -56t-25.5 -48t-47.5 -33.5t-74.5 -12.5q-35 0 -72 13.5t-62 33.5v-257h-72v773h72v-457q25 -20 58.5 -33.5t65.5 -13.5q52 0 73.5 25.5t21.5 60.5v418h70v-413z" />
    <glyph glyph-name="pi" unicode="&#x3c0;" horiz-adv-x="565" 
d="M548 554v-58h-109v-496h-91v496h-208v-428q0 -17 12 -17h10v-51h-79q-34 0 -34 38v516h499z" />
    <glyph glyph-name="Wgrave" unicode="&#x1e80;" horiz-adv-x="777" 
d="M21 0zM756 671l-141 -671h-113l-114 613l-115 -613h-114l-138 671v71h88l111 -619l113 619h114l112 -619l113 619h84v-71zM484 830l-213 30v56l213 -51v-35z" />
    <glyph glyph-name="wgrave" unicode="&#x1e81;" horiz-adv-x="730" 
d="M25 0zM705 500l-130 -500h-105l-106 456l-104 -456h-106l-129 500v54h82l103 -460l103 460h107l103 -460l104 460h78v-54zM460 642l-213 30v56l213 -51v-35z" />
    <glyph glyph-name="Wacute" unicode="&#x1e82;" horiz-adv-x="777" 
d="M21 0zM756 671l-141 -671h-113l-114 613l-115 -613h-114l-138 671v71h88l111 -619l113 619h114l112 -619l113 619h84v-71zM531 860l-212 -30v35l212 51v-56z" />
    <glyph glyph-name="wacute" unicode="&#x1e83;" horiz-adv-x="730" 
d="M25 0zM705 500l-130 -500h-105l-106 456l-104 -456h-106l-129 500v54h82l103 -460l103 460h107l103 -460l104 460h78v-54zM507 672l-212 -30v35l212 51v-56z" />
    <glyph glyph-name="Wdieresis" unicode="&#x1e84;" horiz-adv-x="777" 
d="M21 0zM756 671l-141 -671h-113l-114 613l-115 -613h-114l-138 671v71h88l111 -619l113 619h114l112 -619l113 619h84v-71zM514 824h-70v114h70v-114zM329 824h-70v114h70v-114z" />
    <glyph glyph-name="wdieresis" unicode="&#x1e85;" horiz-adv-x="730" 
d="M25 0zM705 500l-130 -500h-105l-106 456l-104 -456h-106l-129 500v54h82l103 -460l103 460h107l103 -460l104 460h78v-54zM491 636h-70v114h70v-114zM306 636h-70v114h70v-114z" />
    <glyph glyph-name="Ygrave" unicode="&#x1ef2;" horiz-adv-x="481" 
d="M19 0zM462 680l-175 -400v-280h-93v278l-175 402v62h82l141 -366l141 366h79v-62zM336 830l-213 30v56l213 -51v-35z" />
    <glyph glyph-name="ygrave" unicode="&#x1ef3;" horiz-adv-x="480" 
d="M25 0zM454 499l-241 -718h-90l70 213l-168 505v55h87l131 -439l132 439h79v-55zM335 642l-213 30v56l213 -51v-35z" />
    <glyph glyph-name="endash" unicode="&#x2013;" horiz-adv-x="483" 
d="M460 286h-436v53h436v-53z" />
    <glyph glyph-name="emdash" unicode="&#x2014;" horiz-adv-x="727" 
d="M704 286h-680v53h680v-53z" />
    <glyph glyph-name="quoteleft" unicode="&#x2018;" horiz-adv-x="126" 
d="M99 565h-31q-6 9 -14 27t-14.5 43t-11 56t-4.5 66v42h75v-234z" />
    <glyph glyph-name="quoteright" unicode="&#x2019;" horiz-adv-x="126" 
d="M99 757q0 -33 -5 -64.5t-11.5 -57t-14 -44t-12.5 -26.5h-32v234h75v-42z" />
    <glyph glyph-name="quotesinglbase" unicode="&#x201a;" horiz-adv-x="126" 
d="M99 90q0 -35 -4.5 -66t-11 -56t-14 -43t-13.5 -26h-32v233h75v-42z" />
    <glyph glyph-name="quotedblleft" unicode="&#x201c;" horiz-adv-x="255" 
d="M229 565h-32q-6 9 -13.5 27t-14 43t-11 56t-4.5 66v42h75v-234zM99 565h-31q-6 9 -14 27t-14.5 43t-11 56t-4.5 66v42h75v-234z" />
    <glyph glyph-name="quotedblright" unicode="&#x201d;" horiz-adv-x="255" 
d="M99 757q0 -33 -5 -64.5t-11.5 -57t-14 -44t-12.5 -26.5h-32v234h75v-42zM229 757q0 -33 -5 -64.5t-12 -57t-14.5 -44t-12.5 -26.5h-31v234h75v-42z" />
    <glyph glyph-name="quotedblbase" unicode="&#x201e;" horiz-adv-x="255" 
d="M99 90q0 -35 -4.5 -66t-11 -56t-14 -43t-13.5 -26h-32v233h75v-42zM229 90q0 -35 -4.5 -66t-11 -56t-14.5 -43t-14 -26h-31v233h75v-42z" />
    <glyph glyph-name="dagger" unicode="&#x2020;" horiz-adv-x="336" 
d="M196 716l-17 -6v-81l101 -26v-23h-84v-41l-18 -13l18 -12q0 -131 -10.5 -247.5t-24.5 -221.5q-14 106 -24 221t-10 248l18 12l-18 13v41h-85v23l102 26v81l-17 6v26h69v-26z" />
    <glyph glyph-name="daggerdbl" unicode="&#x2021;" horiz-adv-x="378" 
d="M224 716l-17 -6v-81l102 -26v-23h-85v-33l-18 -10l18 -9q0 -86 -16 -157q16 -73 16 -157l-18 -10l18 -10v-32h85v-24l-102 -26v-80l17 -7v-25h-69v26l17 5v81l-102 27v23h85v32l19 10l-19 10q0 42 3.5 81t12.5 76q-9 37 -12.5 75.5t-3.5 81.5l19 9l-19 10v33h-85v23
l102 26v81l-17 6v26h69v-26z" />
    <glyph glyph-name="bullet" unicode="&#x2022;" horiz-adv-x="323" 
d="M162 454q41 0 70 -27.5t29 -71.5q0 -21 -8 -39t-21.5 -31.5t-31.5 -21t-38 -7.5q-43 0 -71.5 28.5t-28.5 70.5q0 44 28.5 71.5t71.5 27.5z" />
    <glyph glyph-name="ellipsis" unicode="&#x2026;" horiz-adv-x="721" 
d="M145 0h-78v104h78v-104zM400 0h-77v104h77v-104zM655 0h-77v104h77v-104z" />
    <glyph glyph-name="perthousand" unicode="&#x2030;" horiz-adv-x="835" 
d="M475 712l-310 -712h-43v29l311 713h42v-30zM806 193q0 -48 -4 -85.5t-15 -64t-32.5 -40t-55.5 -13.5q-35 0 -56 13.5t-32 40t-15 64t-4 85.5v14q0 45 5 80t17.5 59.5t33 37.5t51.5 13t52 -13t33 -37.5t17 -59.5t5 -80v-14zM254 543q0 -48 -4 -85.5t-15.5 -64t-32.5 -40
t-55 -13.5q-35 0 -56 13.5t-32 40t-15 64t-4 85.5v14q0 45 5 80t17 59.5t32.5 37.5t52.5 13q31 0 51.5 -13t33 -37.5t17.5 -59.5t5 -80v-14zM554 193q0 -48 -4 -85.5t-15 -64t-32.5 -40t-55.5 -13.5q-35 0 -56 13.5t-32 40t-15 64t-4 85.5v14q0 45 5 80t17.5 59.5t33 37.5
t51.5 13t52 -13t33 -37.5t17 -59.5t5 -80v-14zM758 200q0 68 -12 104.5t-47 36.5t-47 -33t-12 -98v-17q0 -75 11 -112t48 -37q36 0 47.5 32.5t11.5 95.5v28zM206 550q0 68 -12 104.5t-47 36.5q-36 0 -47.5 -33t-11.5 -98v-17q0 -75 10.5 -112t48.5 -37q35 0 47 32.5t12 95.5
v28zM506 200q0 68 -12 104.5t-47 36.5t-47 -33t-12 -98v-17q0 -75 11 -112t48 -37q36 0 47.5 32.5t11.5 95.5v28z" />
    <glyph glyph-name="guilsinglleft" unicode="&#x2039;" horiz-adv-x="243" 
d="M90 316l130 -172l-35 -32l-161 204l161 204l34 -32z" />
    <glyph glyph-name="guilsinglright" unicode="&#x203a;" horiz-adv-x="243" 
d="M220 316l-161 -204l-35 33l130 171l-130 172l35 32z" />
    <glyph glyph-name="fraction" unicode="&#x2044;" horiz-adv-x="223" 
d="M325 710l-386 -758h-44v38l387 758h43v-38z" />
    <glyph glyph-name="zerosuperior" unicode="&#x2070;" horiz-adv-x="336" 
d="M293 513q0 -57 -3.5 -98t-16 -68t-38 -40t-68.5 -13t-68 13t-37.5 40t-16 68t-3.5 98v19q0 57 3.5 98t16 68t37.5 40t68 13t68.5 -13t38 -40t16 -68t3.5 -98v-19zM235 525q0 50 -2.5 83.5t-9.5 53.5t-20.5 28.5t-35.5 8.5q-23 0 -36.5 -9t-20.5 -29t-8.5 -53.5
t-1.5 -81.5v-10q0 -48 2 -80.5t8.5 -52.5t20 -28.5t36.5 -8.5q24 0 37.5 8.5t20 28.5t8.5 52.5t2 80.5v9z" />
    <glyph glyph-name="foursuperior" unicode="&#x2074;" horiz-adv-x="332" 
d="M263 465h26v-45h-26v-120h-55v120h-166v41l164 284h57v-280zM97 465h111v194z" />
    <glyph glyph-name="fivesuperior" unicode="&#x2075;" horiz-adv-x="326" 
d="M259 692h-152l-8 -138q20 20 42.5 27t47.5 7q49 0 71.5 -30.5t22.5 -109.5q0 -33 -7.5 -61t-23.5 -48.5t-40.5 -32.5t-58.5 -12t-64 17.5t-47 46.5v37h47q9 -22 27 -34t40 -12q35 0 53.5 27t18.5 72q0 50 -13.5 70t-36.5 20q-29 0 -51 -11t-39 -30l-39 17l13 231h197v-53
z" />
    <glyph glyph-name="sixsuperior" unicode="&#x2076;" horiz-adv-x="337" 
d="M274 665h-45q-14 20 -28 26.5t-32 6.5q-41 0 -55 -38t-14 -105q32 15 50.5 21t41.5 6q102 0 102 -128v-5q0 -37 -5 -66t-19 -49t-38.5 -30.5t-62.5 -10.5q-46 0 -71.5 16.5t-37.5 46t-14.5 71.5t-2.5 93q0 41 2 82.5t14 74.5t38.5 53.5t75.5 20.5q29 0 53.5 -9.5
t47.5 -39.5v-37zM102 485q0 -33 1.5 -59t8 -44t20 -27.5t36.5 -9.5q40 0 54 25.5t14 76.5q0 49 -16 69.5t-54 20.5q-18 0 -31 -6.5t-33 -17.5v-28z" />
    <glyph glyph-name="sevensuperior" unicode="&#x2077;" horiz-adv-x="313" 
d="M270 706q-22 -38 -41.5 -88t-36 -104.5t-28.5 -109.5t-18 -104h-57v36q6 41 17.5 86.5t27 92t35 92t42.5 86.5h-169v52h228v-39z" />
    <glyph glyph-name="eightsuperior" unicode="&#x2078;" horiz-adv-x="335" 
d="M218 537q13 -6 26.5 -16.5t24 -24.5t17 -31.5t6.5 -37.5q0 -73 -30 -103.5t-95 -30.5t-95 30t-30 101q0 43 21.5 73.5t50.5 40.5q-26 6 -43.5 32.5t-17.5 64.5q0 54 24 85.5t90 31.5q63 0 88.5 -30t25.5 -83q0 -39 -18 -66.5t-45 -35.5zM166 520q-31 -8 -49.5 -33
t-18.5 -58q0 -47 16.5 -67t51.5 -20q36 0 52 20t16 66q0 35 -19.5 60t-48.5 32zM168 553q34 7 46.5 30t12.5 59q0 27 -13 45t-46 18t-46 -18t-13 -45q0 -37 12 -59.5t47 -29.5z" />
    <glyph glyph-name="ninesuperior" unicode="&#x2079;" horiz-adv-x="337" 
d="M43 595q0 37 5 66t19 49t38.5 30.5t62.5 10.5q46 0 71.5 -16.5t37.5 -46t14.5 -71.5t2.5 -93q0 -41 -2 -82.5t-14 -74.5t-38.5 -53.5t-75.5 -20.5q-29 0 -53.5 9.5t-47.5 39.5v37h45q14 -20 28 -26.5t32 -6.5q41 0 55 38t14 105q-32 -15 -50.5 -21t-41.5 -6
q-102 0 -102 128v5zM235 559q0 33 -1.5 59t-8 44t-20 27.5t-36.5 9.5q-40 0 -54 -25.5t-14 -76.5q0 -49 16 -69.5t54 -20.5q18 0 31 6.5t33 17.5v28z" />
    <glyph glyph-name="zeroinferior" unicode="&#x2080;" horiz-adv-x="336" 
d="M42 0zM293 214q0 -57 -3.5 -98t-16 -68t-38 -40t-68.5 -13t-68 13t-37.5 40t-16 68t-3.5 98v19q0 57 3.5 98t16 68t37.5 40t68 13t68.5 -13t38 -40t16 -68t3.5 -98v-19zM235 226q0 50 -2.5 83.5t-9.5 53.5t-20.5 28.5t-35.5 8.5q-23 0 -36.5 -9t-20.5 -29t-8.5 -53.5
t-1.5 -81.5v-10q0 -48 2 -80.5t8.5 -52.5t20 -28.5t36.5 -8.5q24 0 37.5 8.5t20 28.5t8.5 52.5t2 80.5v9z" />
    <glyph glyph-name="oneinferior" unicode="&#x2081;" horiz-adv-x="192" 
d="M42 1zM149 1h-58v391l-49 -12v51l69 16h38v-446z" />
    <glyph glyph-name="twoinferior" unicode="&#x2082;" horiz-adv-x="315" 
d="M42 1zM45 364v37q26 34 52 43t59 9q63 0 87.5 -34.5t24.5 -88.5q0 -38 -15 -76.5t-38 -75t-51 -69t-53 -56.5h162v-52h-231v48q19 20 48 53t56 71.5t46.5 79t19.5 75.5q0 71 -56 71q-19 0 -34.5 -6t-31.5 -29h-45z" />
    <glyph glyph-name="threeinferior" unicode="&#x2083;" horiz-adv-x="328" 
d="M42 0zM53 364v37q26 34 52.5 43t58.5 9q30 0 51 -8.5t34 -23t19 -34.5t6 -42q0 -35 -14.5 -65t-41.5 -41q32 -11 49.5 -40.5t17.5 -61.5q0 -29 -7.5 -55t-23.5 -45.5t-41 -30.5t-59 -11q-35 0 -65 18.5t-47 48.5v37h47q10 -24 28 -36.5t40 -12.5q36 0 54 24.5t18 62.5
q0 29 -17.5 52.5t-46.5 23.5h-40v45h39q28 0 42.5 24t14.5 55q0 25 -13 44.5t-47 19.5q-17 0 -32 -7t-30 -30h-46z" />
    <glyph glyph-name="fourinferior" unicode="&#x2084;" horiz-adv-x="332" 
d="M42 1zM263 166h26v-45h-26v-120h-55v120h-166v41l164 284h57v-280zM97 166h111v194z" />
    <glyph glyph-name="fiveinferior" unicode="&#x2085;" horiz-adv-x="326" 
d="M42 0zM259 393h-152l-8 -138q20 20 42.5 27t47.5 7q49 0 71.5 -30.5t22.5 -109.5q0 -33 -7.5 -61t-23.5 -48.5t-40.5 -32.5t-58.5 -12t-64 17.5t-47 46.5v37h47q9 -22 27 -34t40 -12q35 0 53.5 27t18.5 72q0 50 -13.5 70t-36.5 20q-29 0 -51 -11t-39 -30l-39 17l13 231
h197v-53z" />
    <glyph glyph-name="sixinferior" unicode="&#x2086;" horiz-adv-x="337" 
d="M43 0zM274 366h-45q-14 20 -28 26.5t-32 6.5q-41 0 -55 -38t-14 -105q32 15 50.5 21t41.5 6q102 0 102 -128v-5q0 -37 -5 -66t-19 -49t-38.5 -30.5t-62.5 -10.5q-46 0 -71.5 16.5t-37.5 46t-14.5 71.5t-2.5 93q0 41 2 82.5t14 74.5t38.5 53.5t75.5 20.5q29 0 53.5 -9.5
t47.5 -39.5v-37zM102 186q0 -33 1.5 -59t8 -44t20 -27.5t36.5 -9.5q40 0 54 25.5t14 76.5q0 49 -16 69.5t-54 20.5q-18 0 -31 -6.5t-33 -17.5v-28z" />
    <glyph glyph-name="seveninferior" unicode="&#x2087;" horiz-adv-x="313" 
d="M42 1zM270 407q-22 -38 -41.5 -88t-36 -104.5t-28.5 -109.5t-18 -104h-57v36q6 41 17.5 86.5t27 92t35 92t42.5 86.5h-169v52h228v-39z" />
    <glyph glyph-name="eightinferior" unicode="&#x2088;" horiz-adv-x="335" 
d="M42 0zM218 238q13 -6 26.5 -16.5t24 -24.5t17 -31.5t6.5 -37.5q0 -73 -30 -103.5t-95 -30.5t-95 30t-30 101q0 43 21.5 73.5t50.5 40.5q-26 6 -43.5 32.5t-17.5 64.5q0 54 24 85.5t90 31.5q63 0 88.5 -30t25.5 -83q0 -39 -18 -66.5t-45 -35.5zM166 221q-31 -8 -49.5 -33
t-18.5 -58q0 -47 16.5 -67t51.5 -20q36 0 52 20t16 66q0 35 -19.5 60t-48.5 32zM168 254q34 7 46.5 30t12.5 59q0 27 -13 45t-46 18t-46 -18t-13 -45q0 -37 12 -59.5t47 -29.5z" />
    <glyph glyph-name="nineinferior" unicode="&#x2089;" horiz-adv-x="337" 
d="M43 0zM43 296q0 37 5 66t19 49t38.5 30.5t62.5 10.5q46 0 71.5 -16.5t37.5 -46t14.5 -71.5t2.5 -93q0 -41 -2 -82.5t-14 -74.5t-38.5 -53.5t-75.5 -20.5q-29 0 -53.5 9.5t-47.5 39.5v37h45q14 -20 28 -26.5t32 -6.5q41 0 55 38t14 105q-32 -15 -50.5 -21t-41.5 -6
q-102 0 -102 128v5zM235 260q0 33 -1.5 59t-8 44t-20 27.5t-36.5 9.5q-40 0 -54 -25.5t-14 -76.5q0 -49 16 -69.5t54 -20.5q18 0 31 6.5t33 17.5v28z" />
    <glyph glyph-name="Euro" unicode="&#x20ac;" horiz-adv-x="449" 
d="M404 645h-40q-18 26 -44 35t-58 9q-43 0 -68.5 -16t-39 -48.5t-17.5 -82.5t-4 -119h199v-27l-10 -29h-189v-104q0 -107 27.5 -159.5t98.5 -52.5q43 0 70 18.5t43 48.5h36v-56q-19 -31 -55 -53t-94 -22q-56 0 -94.5 17.5t-62 53t-34 87.5t-10.5 121v101h-34v30l9 26h25
q0 84 7 145.5t28.5 102.5t60.5 61t104 20q24 0 43 -2.5t35.5 -8t32.5 -14.5t35 -21v-61z" />
    <glyph glyph-name="trademark" unicode="&#x2122;" horiz-adv-x="714" 
d="M257 697h-78v-332h-50v332h-79v45h207v-45zM646 365h-46v280l-84 -275h-53l-86 275v-280h-46v377h70l89 -301l88 301h68v-377z" />
    <glyph glyph-name="uni2126" unicode="&#x2126;" horiz-adv-x="563" 
d="M31 0zM532 0h-188l11 94l70 254v79q0 60 -4.5 105t-19.5 75.5t-43.5 46t-76.5 15.5t-76.5 -15t-43.5 -45t-19.5 -75.5t-4.5 -106.5v-79l70 -254l12 -94h-188v83h96l-86 263v94q0 64 7.5 121t32.5 99.5t72.5 67t127.5 24.5t127.5 -24.5t72.5 -67t32.5 -99.5t7.5 -121v-94
l-86 -263h97v-83z" />
    <glyph glyph-name="onethird" unicode="&#x2153;" horiz-adv-x="764" 
d="M42 0zM553 710l-386 -758h-44v38l387 758h43v-38zM149 300h-58v391l-49 -12v51l69 16h38v-446zM489 336v37q26 34 52.5 43t58.5 9q30 0 51 -8.5t34 -23t19 -34.5t6 -42q0 -35 -14.5 -65t-41.5 -41q32 -11 49.5 -40.5t17.5 -61.5q0 -29 -7.5 -55t-23.5 -45.5t-41 -30.5
t-59 -11q-35 0 -65 18.5t-47 48.5v37h47q10 -24 28 -36.5t40 -12.5q36 0 54 24.5t18 62.5q0 29 -17.5 52.5t-46.5 23.5h-40v45h39q28 0 42.5 24t14.5 55q0 25 -13 44.5t-47 19.5q-17 0 -32 -7t-30 -30h-46z" />
    <glyph glyph-name="twothirds" unicode="&#x2154;" horiz-adv-x="847" 
d="M42 0zM627 710l-386 -758h-44v38l387 758h43v-38zM45 663v37q26 34 52 43t59 9q63 0 87.5 -34.5t24.5 -88.5q0 -38 -15 -76.5t-38 -75t-51 -69t-53 -56.5h162v-52h-231v48q19 20 48 53t56 71.5t46.5 79t19.5 75.5q0 71 -56 71q-19 0 -34.5 -6t-31.5 -29h-45zM572 336v37
q26 34 52.5 43t58.5 9q30 0 51 -8.5t34 -23t19 -34.5t6 -42q0 -35 -14.5 -65t-41.5 -41q32 -11 49.5 -40.5t17.5 -61.5q0 -29 -7.5 -55t-23.5 -45.5t-41 -30.5t-59 -11q-35 0 -65 18.5t-47 48.5v37h47q10 -24 28 -36.5t40 -12.5q36 0 54 24.5t18 62.5q0 29 -17.5 52.5
t-46.5 23.5h-40v45h39q28 0 42.5 24t14.5 55q0 25 -13 44.5t-47 19.5q-17 0 -32 -7t-30 -30h-46z" />
    <glyph glyph-name="oneeighth" unicode="&#x215b;" horiz-adv-x="761" 
d="M42 0zM544 710l-386 -758h-44v38l387 758h43v-38zM149 300h-58v391l-49 -12v51l69 16h38v-446zM643 210q13 -6 26.5 -16.5t24 -24.5t17 -31.5t6.5 -37.5q0 -73 -30 -103.5t-95 -30.5t-95 30t-30 101q0 43 21.5 73.5t50.5 40.5q-26 6 -43.5 32.5t-17.5 64.5q0 54 24 85.5
t90 31.5q63 0 88.5 -30t25.5 -83q0 -39 -18 -66.5t-45 -35.5zM591 193q-31 -8 -49.5 -33t-18.5 -58q0 -47 16.5 -67t51.5 -20q36 0 52 20t16 66q0 35 -19.5 60t-48.5 32zM593 226q34 7 46.5 30t12.5 59q0 27 -13 45t-46 18t-46 -18t-13 -45q0 -37 12 -59.5t47 -29.5z" />
    <glyph glyph-name="threeeighths" unicode="&#x215c;" horiz-adv-x="819" 
d="M42 0zM607 710l-386 -758h-44v38l387 758h43v-38zM702 210q13 -6 26.5 -16.5t24 -24.5t17 -31.5t6.5 -37.5q0 -73 -30 -103.5t-95 -30.5t-95 30t-30 101q0 43 21.5 73.5t50.5 40.5q-26 6 -43.5 32.5t-17.5 64.5q0 54 24 85.5t90 31.5q63 0 88.5 -30t25.5 -83
q0 -39 -18 -66.5t-45 -35.5zM650 193q-31 -8 -49.5 -33t-18.5 -58q0 -47 16.5 -67t51.5 -20q36 0 52 20t16 66q0 35 -19.5 60t-48.5 32zM652 226q34 7 46.5 30t12.5 59q0 27 -13 45t-46 18t-46 -18t-13 -45q0 -37 12 -59.5t47 -29.5zM53 663v37q26 34 52.5 43t58.5 9
q30 0 51 -8.5t34 -23t19 -34.5t6 -42q0 -35 -14.5 -65t-41.5 -41q32 -11 49.5 -40.5t17.5 -61.5q0 -29 -7.5 -55t-23.5 -45.5t-41 -30.5t-59 -11q-35 0 -65 18.5t-47 48.5v37h47q10 -24 28 -36.5t40 -12.5q36 0 54 24.5t18 62.5q0 29 -17.5 52.5t-46.5 23.5h-40v45h39
q28 0 42.5 24t14.5 55q0 25 -13 44.5t-47 19.5q-17 0 -32 -7t-30 -30h-46z" />
    <glyph glyph-name="fiveeighths" unicode="&#x215d;" horiz-adv-x="820" 
d="M42 0zM609 710l-386 -758h-44v38l387 758h43v-38zM259 692h-152l-8 -138q20 20 42.5 27t47.5 7q49 0 71.5 -30.5t22.5 -109.5q0 -33 -7.5 -61t-23.5 -48.5t-40.5 -32.5t-58.5 -12t-64 17.5t-47 46.5v37h47q9 -22 27 -34t40 -12q35 0 53.5 27t18.5 72q0 50 -13.5 70
t-36.5 20q-29 0 -51 -11t-39 -30l-39 17l13 231h197v-53zM703 210q13 -6 26.5 -16.5t24 -24.5t17 -31.5t6.5 -37.5q0 -73 -30 -103.5t-95 -30.5t-95 30t-30 101q0 43 21.5 73.5t50.5 40.5q-26 6 -43.5 32.5t-17.5 64.5q0 54 24 85.5t90 31.5q63 0 88.5 -30t25.5 -83
q0 -39 -18 -66.5t-45 -35.5zM651 193q-31 -8 -49.5 -33t-18.5 -58q0 -47 16.5 -67t51.5 -20q36 0 52 20t16 66q0 35 -19.5 60t-48.5 32zM653 226q34 7 46.5 30t12.5 59q0 27 -13 45t-46 18t-46 -18t-13 -45q0 -37 12 -59.5t47 -29.5z" />
    <glyph glyph-name="seveneighths" unicode="&#x215e;" horiz-adv-x="736" 
d="M42 0zM523 710l-386 -758h-44v38l387 758h43v-38zM618 210q13 -6 26.5 -16.5t24 -24.5t17 -31.5t6.5 -37.5q0 -73 -30 -103.5t-95 -30.5t-95 30t-30 101q0 43 21.5 73.5t50.5 40.5q-26 6 -43.5 32.5t-17.5 64.5q0 54 24 85.5t90 31.5q63 0 88.5 -30t25.5 -83
q0 -39 -18 -66.5t-45 -35.5zM566 193q-31 -8 -49.5 -33t-18.5 -58q0 -47 16.5 -67t51.5 -20q36 0 52 20t16 66q0 35 -19.5 60t-48.5 32zM568 226q34 7 46.5 30t12.5 59q0 27 -13 45t-46 18t-46 -18t-13 -45q0 -37 12 -59.5t47 -29.5zM270 706q-22 -38 -41.5 -88t-36 -104.5
t-28.5 -109.5t-18 -104h-57v36q6 41 17.5 86.5t27 92t35 92t42.5 86.5h-169v52h228v-39z" />
    <glyph glyph-name="partialdiff" unicode="&#x2202;" horiz-adv-x="522" 
d="M135 646q42 60 88.5 83t99.5 23q48 0 81 -13t53 -37t29 -57.5t9 -73.5q0 -46 -8 -100t-19 -114q-15 -83 -31 -150.5t-44.5 -116t-75.5 -75t-124 -26.5q-49 0 -82 10t-53 30t-28.5 48.5t-8.5 66.5q0 72 13 132.5t40.5 105t70 69.5t100.5 25q33 0 68 -14.5t74 -48.5
q8 45 13 78.5t5 62.5q0 53 -22 84t-73 31q-32 0 -61 -18.5t-52 -63.5h-73zM123 226q-2 -18 -3.5 -33t-1.5 -27q0 -47 20.5 -70t70.5 -23q41 0 66.5 16.5t42.5 47t27.5 75t21.5 101.5l6 32q-20 26 -48.5 41t-58.5 15q-35 0 -60 -13.5t-42 -37.5t-27 -56t-14 -68z" />
    <glyph glyph-name="uni2206" unicode="&#x2206;" horiz-adv-x="488" 
d="M22 0zM22 72l162 670h114l167 -670v-72h-443v72zM121 83h243l-124 530z" />
    <glyph glyph-name="product" unicode="&#x220f;" horiz-adv-x="525" 
d="M468 -170h-43v873h-332v-873h-44v912h419v-912z" />
    <glyph glyph-name="summation" unicode="&#x2211;" horiz-adv-x="480" 
d="M41 -157l196 423l-196 423v53h398v-70h-309l191 -406l-191 -406h309v-70h-398v53z" />
    <glyph glyph-name="minus" unicode="&#x2212;" horiz-adv-x="536" 
d="M474 331h-418v64h418v-64z" />
    <glyph glyph-name="radical" unicode="&#x221a;" horiz-adv-x="523" 
d="M293 0h-78l-101 324h-94v57h150l85 -308l188 669h59z" />
    <glyph glyph-name="infinity" unicode="&#x221e;" horiz-adv-x="743" 
d="M370 296q-13 -49 -55.5 -77.5t-105.5 -28.5q-45 0 -80 9t-59 31t-37 59t-13 92q0 104 47.5 147t134.5 43q65 0 109.5 -28.5t60.5 -79.5q13 49 55.5 77t105.5 28q45 0 80 -9t59 -31t37 -58.5t13 -91.5q0 -104 -48 -147.5t-134 -43.5q-66 0 -110 29t-60 80zM395 377
q12 -60 49 -81t100 -21q48 0 75.5 22t27.5 79q0 58 -27.5 80.5t-75.5 22.5q-62 0 -99 -21.5t-50 -80.5zM347 381q-12 60 -49.5 81.5t-100.5 21.5q-47 0 -74.5 -22t-27.5 -80t27.5 -80t74.5 -22q63 0 100 21t50 80z" />
    <glyph glyph-name="integral" unicode="&#x222b;" horiz-adv-x="290" 
d="M190 -102q0 -24 -3.5 -45t-12 -37t-22 -25.5t-33.5 -9.5h-119v74h62q21 0 29 18.5t8 49.5v773q0 24 3.5 45t11.5 37t22 25.5t34 9.5h120v-74h-63q-20 0 -28.5 -18.5t-8.5 -49.5v-773z" />
    <glyph glyph-name="approxequal" unicode="&#x2248;" horiz-adv-x="441" 
d="M44 213zM398 459q-23 -22 -47.5 -32.5t-49.5 -10.5q-24 0 -44 6t-38.5 13t-37 13t-39.5 6q-12 0 -21.5 -1.5t-20.5 -6t-24.5 -13t-31.5 -21.5v50q18 20 43 32t51 12q25 0 46.5 -6t41 -13t37.5 -13t38 -6q12 0 22 1.5t21 6t24 12.5t30 20v-49zM398 260
q-23 -22 -47.5 -32.5t-49.5 -10.5q-24 0 -44 6t-38.5 13t-37 13t-39.5 6q-12 0 -21.5 -1.5t-20.5 -6t-24.5 -13t-31.5 -21.5v50q18 20 43 32t51 12q25 0 46.5 -6t41 -13t37.5 -13t38 -6q12 0 22 1.5t21 6t24 12.5t30 20v-49z" />
    <glyph glyph-name="notequal" unicode="&#x2260;" horiz-adv-x="534" 
d="M491 448h-143l-75 -151h218v-63h-253l-143 -282h-43v38l122 244h-121v63h155l75 151h-230v63h265l120 237h44v-38l-100 -199h109v-63z" />
    <glyph glyph-name="lessequal" unicode="&#x2264;" horiz-adv-x="452" 
d="M392 541l-263 -186l263 -185v-72l-343 234v46l343 235v-72zM434 11h-418v64h418v-64z" />
    <glyph glyph-name="greaterequal" unicode="&#x2265;" horiz-adv-x="455" 
d="M434 11h-418v64h418v-64zM405 332l-343 -234v72l264 185l-264 186v72l343 -235v-46z" />
    <glyph glyph-name="lozenge" unicode="&#x25ca;" horiz-adv-x="548" 
d="M294 30h-44l-229 339l229 340h44l231 -340zM272 631l-182 -262l182 -261l184 261z" />
    <glyph glyph-name="fi" unicode="&#xfb01;" 
d="M16 0zM272 722h-81q-21 0 -29 -15t-8 -46v-107h116v-68h-116v-486h-91v486h-47v68h47v116q0 27 4 50t14.5 40t29 26.5t46.5 9.5h115v-74zM429 68q0 -17 12 -17h10v-51h-79q-34 0 -34 38v516h91v-486zM429 706h-90v91h90v-91z" />
    <glyph glyph-name="fl" unicode="&#xfb02;" horiz-adv-x="474" 
d="M16 0zM272 722h-81q-21 0 -29 -15t-8 -46v-107h116v-68h-116v-486h-91v486h-47v68h47v116q0 27 4 50t14.5 40t29 26.5t46.5 9.5h115v-74zM426 68q0 -17 12 -17h10v-51h-79q-34 0 -34 38v642l20 116h71v-728z" />
    <glyph glyph-name=".null" horiz-adv-x="0" 
 />
    <glyph glyph-name="nonmarkingreturn" horiz-adv-x="201" 
 />
    <glyph glyph-name=".ttfautohint" horiz-adv-x="201" 
d="M0 0z" />
    </font>
</defs>
</svg>
